<svg xmlns="http://www.w3.org/2000/svg" version="1.1" width="100px" height="100px" style="shape-rendering:geometricPrecision; text-rendering:geometricPrecision; image-rendering:optimizeQuality; fill-rule:evenodd; clip-rule:evenodd" xmlns:xlink="http://www.w3.org/1999/xlink">
  <g><path fill="#FFFFFF" d="M 39.5,3.5 C 67.9223,0.452161 86.4223,12.4522 95,39.5C 98.5361,67.9428 86.7027,86.4428 59.5,95C 31.0572,98.5361 12.5572,86.7027 4,59.5C 0.672469,31.0314 12.5058,12.3647 39.5,3.5 Z M 40.5,8.5 C 65.6258,5.97201 82.1258,16.6387 90,40.5C 92.994,65.6944 82.494,82.1944 58.5,90C 33.3056,92.994 16.8056,82.494 9,58.5C 6.127,33.2191 16.627,16.5524 40.5,8.5 Z"/></g>
  <g><path fill="#FFFFFF" d="M 42.5,26.5 C 51.1123,33.4439 59.1123,41.1106 66.5,49.5C 59.4378,57.5643 51.7712,64.8977 43.5,71.5C 41.2956,71.4731 40.4622,70.4731 41,68.5C 47.3481,62.3189 53.5148,55.9855 59.5,49.5C 53.5148,43.0145 47.3481,36.6811 41,30.5C 40.7003,28.9343 41.2003,27.601 42.5,26.5 Z"/></g>
</svg>