<?xml version="1.0" standalone="no"?>
<!DOCTYPE svg PUBLIC "-//W3C//DTD SVG 1.1//EN" "http://www.w3.org/Graphics/SVG/1.1/DTD/svg11.dtd" >
<svg xmlns="http://www.w3.org/2000/svg" xmlns:xlink="http://www.w3.org/1999/xlink" version="1.1">
<metadata>
Created by FontForge 20200427 at Thu Jan 14 00:03:12 2016
 By www
Copyright (c) 2015 ParaType, Inc., ParaType Ltd. All rights reserved.
</metadata>
<defs>
<font id="CirceRoundedWeb-Regular" horiz-adv-x="564" >
  <font-face 
    font-family="Circe Rounded Web"
    font-weight="400"
    font-stretch="normal"
    units-per-em="1000"
    panose-1="2 15 5 2 2 2 3 2 2 3"
    ascent="800"
    descent="-200"
    x-height="450"
    cap-height="700"
    bbox="-524 -320 1454 923"
    underline-thickness="50"
    underline-position="-100"
    unicode-range="U+000D-FEFF"
  />
<missing-glyph horiz-adv-x="500" 
d="M442 8v496h-384v-496h384zM50 512h400v-512h-400v512z" />
    <glyph glyph-name="afii10017small.var.accented" unicode="&#xf350;`" horiz-adv-x="570" 
d="M414 140h-261l-56 -122q-5 -11 -15.5 -18t-23.5 -7q-16 0 -26.5 11.5t-10.5 25.5q0 7 3 15l213 448q6 14 17.5 25.5t31.5 11.5t31.5 -11.5t17.5 -25.5l210 -441q4 -8 4 -18q0 -16 -11.5 -28.5t-28.5 -12.5q-29 0 -40 27zM284 422l-95 -202h189zM331 743q7 9 19 9
q13 0 20 -10l11 -13q7 -8 7 -20q0 -15 -10 -25l-91 -83q-9 -9 -21 -9q-13 0 -23 10q-9 9 -9 20q0 7 3 13.5t8 11.5z" />
    <glyph glyph-name="afii10022small.var.accented" unicode="&#xf355;`" horiz-adv-x="488" 
d="M390 80q17 0 29.5 -12t12.5 -28t-12.5 -28t-29.5 -12h-264q-17 0 -29.5 12.5t-12.5 29.5v441q0 17 12.5 29.5t29.5 12.5h256q17 0 29.5 -12t12.5 -28t-12.5 -28t-29.5 -12h-213v-140h188q17 0 29.5 -12t12.5 -28t-12.5 -28t-29.5 -12h-188v-145h221zM298 743q7 9 19 9
q13 0 20 -10l11 -13q7 -8 7 -20q0 -15 -10 -25l-91 -83q-9 -9 -21 -9q-13 0 -23 10q-9 9 -9 20q0 7 3 13.5t8 11.5z" />
    <glyph glyph-name="afii10026small.var.accented" unicode="&#xf358;`" horiz-adv-x="656" 
d="M572 35q0 -17 -12.5 -29.5t-29.5 -12.5q-18 0 -30.5 12.5t-12.5 29.5v355l-316 -376q-18 -21 -43 -21q-20 0 -32 12.5t-12 32.5v450q0 17 12.5 29.5t30.5 12.5q17 0 29.5 -12.5t12.5 -29.5v-353l310 369q11 13 22.5 19.5t25.5 6.5q20 0 32.5 -12.5t12.5 -29.5v-453z
M368 743q7 9 19 9q13 0 20 -10l11 -13q7 -8 7 -20q0 -15 -10 -25l-91 -83q-9 -9 -21 -9q-13 0 -23 10q-9 9 -9 20q0 7 3 13.5t8 11.5z" />
    <glyph glyph-name="afii10032small.var.accented" unicode="&#xf35e;`" horiz-adv-x="655" 
d="M328 -9q-62 0 -114.5 19.5t-91 55t-60.5 85.5t-22 111q0 57 21 106.5t59 85.5t91 57t117 21q61 0 114 -19.5t91 -55t60 -85t22 -110.5q0 -59 -22 -109t-60 -86t-91 -56t-114 -20zM328 452q-42 0 -78.5 -14t-63 -39t-41.5 -60t-15 -77q0 -41 15.5 -76t42 -60.5t62.5 -40
t78 -14.5q46 0 82.5 14.5t62 40.5t39 60.5t13.5 75.5q0 42 -15 77t-41.5 60t-62.5 39t-78 14zM379 743q7 9 19 9q13 0 20 -10l11 -13q7 -8 7 -20q0 -15 -10 -25l-91 -83q-9 -9 -21 -9q-13 0 -23 10q-9 9 -9 20q0 7 3 13.5t8 11.5z" />
    <glyph glyph-name="afii10037small.var.accented" unicode="&#xf363;`" horiz-adv-x="524" 
d="M33 487q0 17 11 30t32 13q25 0 40 -23l177 -278l133 276q5 11 15 18t23 7q17 0 28 -10.5t11 -26.5q0 -8 -5 -18l-172 -351q-30 -61 -65.5 -92.5t-86.5 -31.5q-22 0 -43 11t-21 33q0 16 8 26t30 10h10.5t11.5 -2q4 -1 10 -1q23 0 36.5 16.5t22.5 33.5l10 18l-208 315
q-8 11 -8 27zM315 743q7 9 19 9q13 0 20 -10l11 -13q7 -8 7 -20q0 -15 -10 -25l-91 -83q-9 -9 -21 -9q-13 0 -23 10q-9 9 -9 20q0 7 3 13.5t8 11.5z" />
    <glyph glyph-name="afii10045small.var.accented" unicode="&#xf36b;`" horiz-adv-x="706" 
d="M537 488q0 17 12.5 29.5t30.5 12.5q17 0 29.5 -12.5t12.5 -29.5v-453q0 -17 -12.5 -29.5t-29.5 -12.5q-18 0 -30.5 12.5t-12.5 29.5v453zM169 80q15 -1 30 -1.5t32 -0.5q64 0 97.5 24t33.5 73q0 45 -33 67.5t-96 22.5q-25 0 -64 -3v-182zM221 -2q-26 0 -50 0.5t-45 0.5
q-18 1 -30 13.5t-12 29.5v446q0 17 12.5 29.5t30.5 12.5q17 0 29.5 -12.5t12.5 -29.5v-146q42 3 71 3q108 0 160 -45.5t52 -122.5q0 -84 -61 -131.5t-170 -47.5zM378 743q7 9 19 9q13 0 20 -10l11 -13q7 -8 7 -20q0 -15 -10 -25l-91 -83q-9 -9 -21 -9q-13 0 -23 10
q-9 9 -9 20q0 7 3 13.5t8 11.5z" />
    <glyph glyph-name="afii10047small.var.accented" unicode="&#xf36d;`" horiz-adv-x="548" 
d="M22 68q0 10 6 21q11 17 30 17q11 0 27 -7q27 -13 60 -20t75 -7q82 0 136 39.5t65 116.5h-236q-15 0 -26 11.5t-11 28.5t11 28.5t26 11.5h235q-14 70 -66.5 107.5t-138.5 37.5q-38 0 -67.5 -5t-55.5 -18q-12 -5 -21 -5q-19 0 -30 16q-7 10 -7 20q0 20 26 37q28 17 68 26
t91 9q64 0 117 -19t91.5 -54.5t60 -85.5t21.5 -111t-21 -111t-60 -85.5t-94.5 -55t-123.5 -19.5q-48 0 -91.5 10t-73.5 29q-23 15 -23 37zM269 743q7 9 19 9q13 0 20 -10l11 -13q7 -8 7 -20q0 -15 -10 -25l-91 -83q-9 -9 -21 -9q-13 0 -23 10q-9 9 -9 20q0 7 3 13.5t8 11.5z
" />
    <glyph glyph-name="afii10048small.var.accented" unicode="&#xf36e;`" horiz-adv-x="871" 
d="M169 228v-193q0 -17 -12.5 -29.5t-29.5 -12.5q-18 0 -30.5 12.5t-12.5 29.5v453q0 17 12.5 29.5t30.5 12.5q17 0 29.5 -12.5t12.5 -29.5v-180h112q7 48 28.5 89.5t56.5 71.5t82 47t104 17q64 0 115.5 -19.5t88 -55t56 -85t19.5 -110.5q0 -59 -19.5 -109t-56 -86t-88 -56
t-115.5 -20q-55 0 -102.5 17t-83 47.5t-58 74t-28.5 97.5h-111zM554 453q-41 0 -75 -14t-59 -39t-38.5 -60t-13.5 -77q0 -41 13.5 -76t38 -60.5t58.5 -40t76 -14.5q44 0 79 14.5t59 40.5t36.5 60.5t12.5 75.5q0 42 -13.5 77t-38 60t-59 39t-76.5 14zM469 743q7 9 19 9
q13 0 20 -10l11 -13q7 -8 7 -20q0 -15 -10 -25l-91 -83q-9 -9 -21 -9q-13 0 -23 10q-9 9 -9 20q0 7 3 13.5t8 11.5z" />
    <glyph glyph-name="afii10049small.var.accented" unicode="&#xf36f;`" horiz-adv-x="519" 
d="M275 528q29 0 60.5 -0.5t57.5 -1.5q18 -1 30 -13.5t12 -29.5v-448q0 -17 -12.5 -29.5t-29.5 -12.5q-18 0 -30.5 12.5t-12.5 29.5v145h-112l-123 -165q-8 -10 -17.5 -16t-21.5 -6q-17 0 -27.5 11t-10.5 27q0 15 9 27l105 139q-21 9 -39.5 23t-32.5 33t-22.5 42t-8.5 50
q0 36 13 69.5t40.5 58.5t70.5 40t102 15zM350 445q-13 1 -36.5 2t-46.5 1q-65 0 -96.5 -28t-31.5 -70q0 -18 7.5 -33.5t20.5 -27t29 -19t34 -10.5h120v185zM313 743q7 9 19 9q13 0 20 -10l11 -13q7 -8 7 -20q0 -15 -10 -25l-91 -83q-9 -9 -21 -9q-13 0 -23 10q-9 9 -9 20
q0 7 3 13.5t8 11.5z" />
    <glyph glyph-name="afii10023small.var.accented" unicode="&#xf371;`" horiz-adv-x="488" 
d="M132 608q-20 0 -34 12t-14 34q0 20 14 31.5t34 11.5q16 0 29.5 -11.5t13.5 -31.5q0 -22 -13.5 -34t-29.5 -12zM378 608q-18 0 -32 12t-14 34q0 20 14 31.5t32 11.5q17 0 30.5 -11.5t13.5 -31.5q0 -22 -13.5 -34t-30.5 -12zM253 613q-13 -17 -28 -17q-9 0 -17 5
q-12 7 -12 20q0 11 7 24l45 84q5 10 14 14.5t19 4.5q11 0 22 -6q17 -11 17 -29q0 -12 -8 -23zM390 80q17 0 29.5 -12t12.5 -28t-12.5 -28t-29.5 -12h-264q-17 0 -29.5 12.5t-12.5 29.5v441q0 17 12.5 29.5t29.5 12.5h256q17 0 29.5 -12t12.5 -28t-12.5 -28t-29.5 -12h-213
v-140h188q17 0 29.5 -12t12.5 -28t-12.5 -28t-29.5 -12h-188v-145h221z" />
    <glyph glyph-name="afii10017.var.accented" unicode="&#x410;`" horiz-adv-x="685" 
d="M500 212h-319l-80 -191q-7 -17 -16.5 -22.5t-21.5 -5.5q-20 0 -30 12t-10 27q0 5 1 9t3 9l268 621q7 15 19 24.5t30 9.5t30 -10t18 -24l267 -618q3 -9 3 -17q0 -17 -10.5 -30t-30.5 -13q-14 0 -24.5 7.5t-15.5 20.5zM341 591l-126 -299h252zM450 874q6 3 12 3
q16 0 23 -15l8 -18q2 -4 2 -11q0 -18 -16 -24l-152 -64q-6 -2 -10 -2q-18 0 -26 15q-3 6 -3 13q0 17 15 25z" />
    <glyph glyph-name="afii10022.var.accented" unicode="&#x415;`" horiz-adv-x="575" 
d="M471 80q16 0 27.5 -11.5t11.5 -28.5t-11.5 -28.5t-27.5 -11.5h-324q-17 0 -29.5 12.5t-12.5 29.5v616q0 17 12.5 29.5t29.5 12.5h314q16 0 27.5 -11.5t11.5 -28.5t-11.5 -28.5t-27.5 -11.5h-271v-226h241q16 0 27.5 -11.5t11.5 -28.5t-11.5 -28.5t-27.5 -11.5h-241v-234
h281zM409 874q6 3 12 3q16 0 23 -15l8 -18q2 -4 2 -11q0 -18 -16 -24l-152 -64q-6 -2 -10 -2q-18 0 -26 15q-3 6 -3 13q0 17 15 25z" />
    <glyph glyph-name="afii10026.var.accented" unicode="&#x418;`" horiz-adv-x="795" 
d="M690 35q0 -17 -12.5 -29.5t-29.5 -12.5q-18 0 -30.5 12.5t-12.5 29.5v524l-407 -535q-11 -15 -22.5 -23t-27.5 -8q-21 0 -32 12.5t-11 33.5v625q0 17 12.5 29t30.5 12q17 0 29.5 -12t12.5 -29v-524l407 535q11 14 21.5 22t26.5 8q22 0 33.5 -12.5t11.5 -32.5v-625z
M499 874q6 3 12 3q16 0 23 -15l8 -18q2 -4 2 -11q0 -18 -16 -24l-152 -64q-6 -2 -10 -2q-18 0 -26 15q-3 6 -3 13q0 17 15 25z" />
    <glyph glyph-name="afii10032.var.accented" unicode="&#x41e;`" horiz-adv-x="814" 
d="M407 -10q-76 0 -141.5 26.5t-113.5 74t-75 113.5t-27 146q0 76 26.5 142t74 114.5t113 76t143.5 27.5q76 0 141.5 -26.5t113.5 -74t75 -113.5t27 -146q0 -78 -27 -144t-75 -114t-113.5 -75t-141.5 -27zM407 630q-57 0 -106 -21t-84.5 -58t-56 -88.5t-20.5 -112.5
q0 -60 20.5 -111t56.5 -88.5t85 -59t105 -21.5q60 0 109 21.5t84.5 59t54.5 89t19 110.5q0 61 -20.5 112.5t-56.5 88.5t-85 58t-105 21zM509 874q6 3 12 3q16 0 23 -15l8 -18q2 -4 2 -11q0 -18 -16 -24l-152 -64q-6 -2 -10 -2q-18 0 -26 15q-3 6 -3 13q0 17 15 25z" />
    <glyph glyph-name="afii10037.var.accented" unicode="&#x423;`" horiz-adv-x="652" 
d="M31 666q0 15 10 27t30 12q25 0 44 -31l246 -413l180 411q15 33 40 33q20 0 30 -11t10 -25q0 -11 -4 -19l-220 -490q-36 -81 -76 -120.5t-98 -39.5q-14 0 -26.5 1.5t-26.5 6.5q-10 3 -21 13t-11 27q0 7 5 19q6 12 15 16.5t18 4.5q10 0 16 -3q15 -6 30 -6q30 0 51 20.5
t35 50.5l12 26l-282 466q-7 10 -7 24zM442 874q6 3 12 3q16 0 23 -15l8 -18q2 -4 2 -11q0 -18 -16 -24l-152 -64q-6 -2 -10 -2q-18 0 -26 15q-3 6 -3 13q0 17 15 25z" />
    <glyph glyph-name="afii10045.var.accented" unicode="&#x42b;`" horiz-adv-x="845" 
d="M655 664q0 17 12.5 29t30.5 12q17 0 29.5 -12t12.5 -29v-629q0 -17 -12.5 -29.5t-29.5 -12.5q-18 0 -30.5 12.5t-12.5 29.5v629zM190 81l40 -2t44 -1q87 0 132.5 37t45.5 112q0 67 -45 102.5t-130 35.5q-35 0 -87 -6v-278zM264 -2q-32 0 -61.5 0.5t-55.5 1.5
q-18 0 -30 12.5t-12 29.5v622q0 17 12.5 29t30.5 12q17 0 29.5 -12t12.5 -29v-224q29 2 52.5 3.5t40.5 1.5q132 0 195.5 -58.5t63.5 -157.5q0 -111 -73.5 -171t-204.5 -60zM509 874q6 3 12 3q16 0 23 -15l8 -18q2 -4 2 -11q0 -18 -16 -24l-152 -64q-6 -2 -10 -2
q-18 0 -26 15q-3 6 -3 13q0 17 15 25z" />
    <glyph glyph-name="afii10047.var.accented" unicode="&#x42d;`" horiz-adv-x="665" 
d="M30 73q0 12 6 21q12 18 32 18q13 0 22 -5q37 -17 78 -27t86 -10q55 0 103 17t84 49t58.5 77.5t28.5 103.5h-308q-16 0 -27.5 11.5t-11.5 28.5t11.5 28.5t27.5 11.5h307q-14 110 -89.5 171.5t-193.5 61.5q-38 0 -72.5 -10.5t-71.5 -27.5q-8 -4 -18 -4t-19 4.5t-14 13.5
q-3 5 -4 9.5t-1 9.5q0 23 19 33q43 23 94 37.5t107 14.5q78 0 142.5 -25.5t111 -72t72 -112.5t25.5 -148q0 -80 -25.5 -146.5t-72 -114.5t-113 -74.5t-148.5 -26.5q-60 0 -109.5 11t-97.5 37q-8 5 -13.5 14.5t-5.5 20.5zM377 874q6 3 12 3q16 0 23 -15l8 -18q2 -4 2 -11
q0 -18 -16 -24l-152 -64q-6 -2 -10 -2q-18 0 -26 15q-3 6 -3 13q0 17 15 25z" />
    <glyph glyph-name="afii10048.var.accented" unicode="&#x42e;`" horiz-adv-x="1078" 
d="M190 317v-282q0 -17 -12.5 -29.5t-29.5 -12.5q-18 0 -30.5 12.5t-12.5 29.5v629q0 17 12.5 29t30.5 12q17 0 29.5 -12t12.5 -29v-267h151q7 67 35 124.5t72.5 99.5t103.5 65.5t129 23.5q76 0 140 -26.5t110 -74t71.5 -113.5t25.5 -146q0 -78 -25.5 -144t-71.5 -114
t-110 -75t-140 -27q-69 0 -128.5 23.5t-105 66.5t-74 103.5t-33.5 133.5h-150zM683 630q-55 0 -101.5 -21t-80.5 -58t-53 -88.5t-19 -112.5q0 -60 19.5 -111t53.5 -88.5t80.5 -59t100.5 -21.5q60 0 107.5 21.5t80.5 59t50 89t17 110.5q0 61 -18.5 112.5t-52.5 88.5t-80.5 58
t-103.5 21zM659 874q6 3 12 3q16 0 23 -15l8 -18q2 -4 2 -11q0 -18 -16 -24l-152 -64q-6 -2 -10 -2q-18 0 -26 15q-3 6 -3 13q0 17 15 25z" />
    <glyph glyph-name="afii10049.var.accented" unicode="&#x42f;`" horiz-adv-x="608" 
d="M339 703q26 0 59 -1t63 -1q18 -1 30 -13.5t12 -29.5v-623q0 -17 -12.5 -29.5t-29.5 -12.5q-18 0 -30.5 12.5t-12.5 29.5v225h-131l-169 -242q-8 -11 -18 -18t-24 -7q-18 0 -27.5 11t-9.5 25t9 26l156 220q-27 11 -52 29t-44 42.5t-30.5 55.5t-11.5 69q0 47 16 89.5
t49.5 74t85 50t122.5 18.5zM418 620q-17 1 -44.5 2t-50.5 1q-41 0 -72 -11.5t-52 -31t-32 -46.5t-11 -58q0 -28 10.5 -51t27.5 -41t38.5 -29t44.5 -15h141v280zM449 874q6 3 12 3q16 0 23 -15l8 -18q2 -4 2 -11q0 -18 -16 -24l-152 -64q-6 -2 -10 -2q-18 0 -26 15
q-3 6 -3 13q0 17 15 25z" />
    <glyph glyph-name="afii10023.var.accented" unicode="&#x401;`" horiz-adv-x="575" 
d="M167 764q-18 0 -30.5 12.5t-12.5 36.5q0 21 12.5 33t30.5 12q16 0 28.5 -12t12.5 -33q0 -24 -12.5 -36.5t-28.5 -12.5zM447 764q-17 0 -30.5 12.5t-13.5 36.5q0 21 13.5 33t30.5 12q16 0 28.5 -12t12.5 -33q0 -24 -12.5 -36.5t-28.5 -12.5zM287 761q-13 -11 -23 -11
q-8 0 -12 4.5t-4 10.5q0 8 4 13l65 85q8 11 15.5 16t18.5 5q13 0 21 -8t8 -19q0 -12 -11 -22zM471 80q16 0 27.5 -11.5t11.5 -28.5t-11.5 -28.5t-27.5 -11.5h-324q-17 0 -29.5 12.5t-12.5 29.5v616q0 17 12.5 29.5t29.5 12.5h314q16 0 27.5 -11.5t11.5 -28.5t-11.5 -28.5
t-27.5 -11.5h-271v-226h241q16 0 27.5 -11.5t11.5 -28.5t-11.5 -28.5t-27.5 -11.5h-241v-234h281z" />
    <glyph glyph-name="afii10065.var.accented" unicode="&#x430;`" horiz-adv-x="460" 
d="M40 132q0 34 13 61t35.5 45t54 27.5t67.5 9.5q26 0 57.5 -6t54.5 -23q0 31 -3.5 57.5t-14 45t-31 29t-53.5 10.5q-25 0 -46 -4.5t-44 -13.5q-8 -3 -15 -3q-22 0 -31 20q-3 7 -3 14q0 11 5.5 19.5t14.5 12.5q35 14 65.5 20.5t58.5 6.5q96 0 134.5 -48t38.5 -136v-248
q0 -14 -10.5 -24.5t-27.5 -10.5t-27.5 10.5t-10.5 24.5v30q-20 -26 -54 -45.5t-90 -19.5q-62 0 -100 36.5t-38 102.5zM322 180q-42 30 -101 30q-18 0 -35.5 -4.5t-31 -13.5t-21.5 -23t-8 -33q0 -32 21 -51.5t60 -19.5q44 0 71.5 19t44.5 39v57zM276 697q7 12 24 12
q9 0 17 -6l14 -10q11 -9 11 -23q0 -12 -7 -19l-80 -97q-11 -12 -26 -12q-9 0 -17 5q-13 9 -13 26q0 9 5 17z" />
    <glyph glyph-name="afii10070.var.accented" unicode="&#x435;`" horiz-adv-x="525" 
d="M400 265q-3 56 -37 88t-93 32q-62 0 -99 -34t-44 -86h273zM483 254v-11.5t-1 -10.5q-1 -12 -11.5 -22t-22.5 -10h-316q5 -64 48 -99.5t109 -35.5q34 0 60.5 6.5t49.5 20.5q10 6 22 6q15 0 27 -13q6 -8 6 -18q0 -8 -3 -15.5t-9 -11.5q-38 -27 -77.5 -38.5t-81.5 -11.5
q-55 0 -99.5 16.5t-76 47.5t-48.5 74.5t-17 96.5q0 49 15.5 92t45 74.5t72.5 50t99 18.5q43 0 81.5 -15t66.5 -42t44.5 -65t16.5 -84zM305 697q7 12 24 12q9 0 17 -6l14 -10q11 -9 11 -23q0 -12 -7 -19l-80 -97q-11 -12 -26 -12q-9 0 -17 5q-13 9 -13 26q0 9 5 17z" />
    <glyph glyph-name="afii10074.var.accented" unicode="&#x438;`" 
d="M492 31q0 -16 -11.5 -27t-28.5 -11t-28.5 11t-11.5 27v297l-243 -299q-14 -17 -26.5 -26.5t-30.5 -9.5t-29 12t-11 28v384q0 16 11.5 27t28.5 11t28.5 -11t11.5 -27v-298l243 299q13 15 25 26t32 11q18 0 29 -12.5t11 -28.5v-383v0zM313 697q7 12 24 12q9 0 17 -6l14 -10
q11 -9 11 -23q0 -12 -7 -19l-80 -97q-11 -12 -26 -12q-9 0 -17 5q-13 9 -13 26q0 9 5 17z" />
    <glyph glyph-name="afii10080.var.accented" unicode="&#x43e;`" 
d="M42 225q0 51 17 94t48.5 74.5t76 49t98.5 17.5t98 -17.5t75.5 -49t49 -74.5t17.5 -94t-17.5 -94t-49 -74.5t-75.5 -49t-98 -17.5t-98.5 17.5t-76 49t-48.5 74.5t-17 94zM127 225q0 -35 11.5 -64.5t32 -50.5t49 -33t62.5 -12t62.5 11.5t49 32.5t32 50.5t11.5 65.5
q0 35 -11.5 64.5t-32 50.5t-49 33t-62.5 12q-33 0 -61.5 -11.5t-49 -32.5t-32.5 -50.5t-12 -65.5zM318 697q7 12 24 12q9 0 17 -6l14 -10q11 -9 11 -23q0 -12 -7 -19l-80 -97q-11 -12 -26 -12q-9 0 -17 5q-13 9 -13 26q0 9 5 17z" />
    <glyph glyph-name="afii10085.var.accented" unicode="&#x443;`" horiz-adv-x="479" 
d="M229 164q8 -17 14 -34t13 -34q9 33 21 69l95 259q4 12 13.5 21.5t25.5 9.5q22 0 33 -11.5t11 -27.5q0 -5 -1 -9.5t-3 -9.5l-159 -397q-24 -61 -45 -99.5t-41.5 -61t-41 -31t-44.5 -8.5q-14 0 -28 2t-25.5 7t-19 14.5t-7.5 23.5q0 32 32 32q8 0 17 -2.5t22 -2.5
q29 0 51 24t45 78l10 24l-189 394q-4 8 -4 19q0 17 12 29.5t32 12.5q12 0 22.5 -7t15.5 -18l123 -266v0zM282 697q7 12 24 12q9 0 17 -6l14 -10q11 -9 11 -23q0 -12 -7 -19l-80 -97q-11 -12 -26 -12q-9 0 -17 5q-13 9 -13 26q0 9 5 17z" />
    <glyph glyph-name="afii10093.var.accented" unicode="&#x44b;`" horiz-adv-x="642" 
d="M226 315q52 0 86 -13t54.5 -34.5t29 -49.5t8.5 -58t-9.5 -58.5t-31 -51t-57.5 -36.5t-89 -14h-107q-16 0 -27 11t-11 27v379q0 16 11.5 27t28.5 11t28.5 -11t11.5 -27v-102h74zM570 31q0 -16 -11.5 -27t-28.5 -11t-28.5 11t-11.5 27v386q0 16 11.5 27t28.5 11t28.5 -11
t11.5 -27v-386zM210 75q60 0 84.5 21t24.5 61q0 41 -25 62t-83 21h-59v-165h58zM341 697q7 12 24 12q9 0 17 -6l14 -10q11 -9 11 -23q0 -12 -7 -19l-80 -97q-11 -12 -26 -12q-9 0 -17 5q-13 9 -13 26q0 9 5 17z" />
    <glyph glyph-name="afii10095.var.accented" unicode="&#x44d;`" horiz-adv-x="478" 
d="M67 96q13 0 27 -8q24 -13 51.5 -18t56.5 -5q63 0 103 34t48 97h-188q-14 0 -24 9.5t-10 23.5q0 13 10 22.5t24 9.5h187q-10 63 -52.5 93.5t-103.5 30.5q-32 0 -59.5 -8t-50.5 -22q-11 -7 -24 -7q-18 0 -28 14q-7 10 -7 21q0 19 16 30q35 23 75 35t77 12q53 0 97.5 -16.5
t76 -47.5t49 -74t17.5 -97q0 -49 -17 -92t-47.5 -74.5t-72.5 -50t-91 -18.5q-45 0 -85.5 8t-73.5 31q-16 11 -16 30q0 14 8 23q11 14 27 14zM242 697q7 12 24 12q9 0 17 -6l14 -10q11 -9 11 -23q0 -12 -7 -19l-80 -97q-11 -12 -26 -12q-9 0 -17 5q-13 9 -13 26q0 9 5 17z
" />
    <glyph glyph-name="afii10096.var.accented" unicode="&#x44e;`" horiz-adv-x="760" 
d="M157 33q0 -17 -12 -28.5t-30 -11.5q-19 0 -31 11.5t-12 28.5v382q0 17 12 28.5t31 11.5q18 0 30 -11.5t12 -28.5v-145h98q7 42 26 76.5t48 60t68 39.5t85 14q53 0 96.5 -17.5t74 -49t47.5 -74.5t17 -94t-17 -94t-48 -74.5t-74.5 -49t-95.5 -17.5q-48 0 -87.5 15t-69 41.5
t-48 63t-23.5 80.5h-97v-157zM342 225q0 -72 40 -113.5t103 -41.5t102.5 42t39.5 113q0 34 -10 63t-28.5 49t-45 31.5t-58.5 11.5t-58 -11t-45 -31.5t-29.5 -49t-10.5 -63.5zM418 697q7 12 24 12q9 0 17 -6l14 -10q11 -9 11 -23q0 -12 -7 -19l-80 -97q-11 -12 -26 -12
q-9 0 -17 5q-13 9 -13 26q0 9 5 17z" />
    <glyph glyph-name="afii10097.var.accented" unicode="&#x44f;`" horiz-adv-x="463" 
d="M146 170q-17 4 -34.5 14.5t-31.5 27t-22.5 38.5t-8.5 50q0 29 10.5 56t34 48t62 33.5t94.5 12.5h102q16 0 27 -11t11 -27v-381q0 -16 -11.5 -27t-28.5 -11t-28.5 11t-11.5 27v119h-87l-99 -135q-6 -8 -14 -15t-21 -7q-19 0 -29.5 10.5t-10.5 24.5q0 13 11 29zM310 375
h-73q-56 0 -79.5 -23t-23.5 -54q0 -17 7.5 -30.5t19.5 -23t27 -14.5t30 -5h92v150zM295 697q7 12 24 12q9 0 17 -6l14 -10q11 -9 11 -23q0 -12 -7 -19l-80 -97q-11 -12 -26 -12q-9 0 -17 5q-13 9 -13 26q0 9 5 17z" />
    <glyph glyph-name="afii10071.var.accented" unicode="&#x451;`" horiz-adv-x="525" 
d="M96 602q0 18 11.5 28.5t28.5 10.5q14 0 25.5 -10.5t11.5 -28.5q0 -20 -11.5 -30.5t-25.5 -10.5q-17 0 -28.5 10.5t-11.5 30.5zM360 602q0 18 12 28.5t28 10.5q14 0 25.5 -10.5t11.5 -28.5q0 -20 -11.5 -30.5t-25.5 -10.5q-16 0 -28 10.5t-12 30.5zM290 689q10 13 25 13
q8 0 19 -7q12 -11 12 -26q0 -12 -7 -20l-78 -93q-11 -13 -25 -13q-8 0 -13 4q-11 7 -11 19q0 9 7 18zM400 265q-3 56 -37 88t-93 32q-62 0 -99 -34t-44 -86h273zM483 254v-11.5t-1 -10.5q-1 -12 -11.5 -22t-22.5 -10h-316q5 -64 48 -99.5t109 -35.5q34 0 60.5 6.5t49.5 20.5
q11 7 24 7q15 0 25 -13q7 -10 7 -21q0 -17 -13 -25q-38 -27 -77.5 -38.5t-81.5 -11.5q-55 0 -99.5 16.5t-76 47.5t-48.5 74.5t-17 96.5q0 49 15.5 92t45 74.5t72.5 50t99 18.5q43 0 81.5 -15t66.5 -42t44.5 -65t16.5 -84z" />
    <glyph glyph-name="fi" unicode="fi" horiz-adv-x="514" 
d="M444 31q0 -16 -11.5 -27t-28.5 -11t-28.5 11t-11.5 27v344h-202v-344q0 -16 -11.5 -27t-28.5 -11t-28.5 11t-11.5 27v480q0 103 51.5 151t136.5 48q50 0 82 -13t52 -29q16 -13 16 -30q0 -16 -10.5 -26t-24.5 -10q-8 0 -18 4t-18 10q-13 8 -29.5 13.5t-36.5 5.5
q-58 0 -89.5 -30.5t-31.5 -102.5v-52h244q16 0 27 -11t11 -27v-381z" />
    <glyph glyph-name="fl" unicode="fl" horiz-adv-x="559" 
d="M522 72q10 0 21.5 -7.5t11.5 -24.5t-9.5 -26.5t-24 -14t-31 -5.5t-29.5 -1q-56 0 -86.5 30.5t-30.5 96.5v487q-14 11 -35 19.5t-47 8.5q-50 0 -75 -29t-25 -92v-64h65q16 0 27 -11t11 -26q0 -16 -11 -27t-27 -11h-65v-344q0 -16 -11.5 -27t-28.5 -11t-28.5 11t-11.5 27
v492q0 94 41.5 140.5t116.5 46.5q36 0 65 -8.5t49 -23.5h32q16 0 27 -11t11 -27v-484q0 -46 12 -67.5t41 -21.5q13 0 25 2.5t20 2.5z" />
    <glyph glyph-name=".notdef" horiz-adv-x="500" 
d="M442 8v496h-384v-496h384zM50 512h400v-512h-400v512z" />
    <glyph glyph-name=".null" horiz-adv-x="0" 
 />
    <glyph glyph-name=".null" horiz-adv-x="0" 
 />
    <glyph glyph-name="nonmarkingreturn" unicode="&#xd;" horiz-adv-x="225" 
 />
    <glyph glyph-name="space" unicode=" " horiz-adv-x="225" 
 />
    <glyph glyph-name="exclam" unicode="!" horiz-adv-x="309" 
d="M112 664q0 17 12.5 29t30.5 12q17 0 29.5 -12t12.5 -29v-407q0 -17 -12.5 -29.5t-29.5 -12.5q-18 0 -30.5 12.5t-12.5 29.5v407zM157 -3q-27 0 -42.5 17t-15.5 40q0 20 15.5 36.5t42.5 16.5q23 0 38 -16.5t15 -36.5q0 -23 -15 -40t-38 -17z" />
    <glyph glyph-name="quotedbl" unicode="&#x22;" horiz-adv-x="415" 
d="M330 517q0 -17 -11.5 -28.5t-28.5 -11.5t-28.5 11.5t-11.5 28.5v143q0 17 11.5 28.5t28.5 11.5t28.5 -11.5t11.5 -28.5v-143zM165 517q0 -17 -11.5 -28.5t-28.5 -11.5t-28.5 11.5t-11.5 28.5v143q0 17 11.5 28.5t28.5 11.5t28.5 -11.5t11.5 -28.5v-143z" />
    <glyph glyph-name="numbersign" unicode="#" horiz-adv-x="704" 
d="M455 195l-65 -175q-8 -21 -30 -21q-4 0 -12 2q-10 4 -16 12.5t-6 18.5q0 4 2 10l56 153h-184l-65 -175q-4 -10 -12.5 -15.5t-18.5 -5.5q-3 0 -5.5 0.5t-5.5 1.5q-11 4 -17 12.5t-6 18.5q0 4 2 10l57 153h-55q-14 0 -24 10t-10 25t10 25t24 10h81l63 170h-144
q-14 0 -24 10t-10 25t10 25t24 10h170l65 174q4 10 12.5 16t19.5 6q3 0 11 -2q22 -10 22 -32q0 -4 -2 -10l-57 -152h184l65 175q4 10 12.5 15.5t19.5 5.5q3 0 11 -2q10 -4 16 -12.5t6 -18.5q0 -4 -2 -10l-57 -153h60q14 0 24 -10t10 -25t-10 -25t-24 -10h-86l-63 -170h149
q14 0 24 -10t10 -25t-10 -25t-24 -10h-175zM226 265h184l63 170h-184z" />
    <glyph glyph-name="dollar" unicode="$" horiz-adv-x="568" 
d="M238 -8q-48 5 -87.5 25t-74.5 49q-15 12 -15 31q0 13 9 25q13 16 31 16q15 0 29 -11q35 -26 71.5 -41.5t72.5 -15.5q27 0 51 7t42 21t28.5 34t10.5 47q0 43 -25.5 69t-63.5 45.5t-82 36.5t-82 41.5t-63.5 61t-25.5 94.5q0 34 12 64t34.5 54t54.5 40t73 22v44
q0 16 11.5 27.5t28.5 11.5t28.5 -11.5t11.5 -27.5v-43q38 -5 68 -14.5t52 -22.5q25 -14 25 -37q0 -10 -8 -23q-11 -16 -31 -16q-13 0 -26 7q-24 14 -51 21t-62 7q-63 0 -97 -28t-34 -75q0 -43 25.5 -69t63.5 -44.5t82 -35t82 -40.5t63.5 -61t25.5 -97q0 -38 -13 -69.5
t-37 -55.5t-56.5 -39.5t-71.5 -21.5v-55q0 -16 -11.5 -27.5t-28.5 -11.5t-28.5 11.5t-11.5 27.5v53v0z" />
    <glyph glyph-name="percent" unicode="%" horiz-adv-x="877" 
d="M223 13q-8 -12 -23 -12q-11 0 -18 6q-11 8 -11 23q0 10 5 16l480 641q7 12 23 12q9 0 17 -6q11 -8 11 -24q0 -10 -5 -16zM229 367q-39 0 -72.5 12.5t-58 35t-38.5 53.5t-14 69t14 69t38.5 53.5t58 34.5t72.5 12t72.5 -12t58 -34.5t38.5 -53.5t14 -69t-14 -69t-38.5 -53.5
t-58 -35t-72.5 -12.5zM229 641q-45 0 -76.5 -28t-31.5 -76q0 -24 9 -43.5t24 -33t34.5 -21t40.5 -7.5q22 0 41.5 7.5t34.5 21t23.5 33t8.5 43.5t-8.5 43t-23.5 32.5t-34.5 21t-41.5 7.5zM649 -5q-39 0 -72.5 12.5t-58 35t-38.5 53.5t-14 69t14 69t38.5 53.5t58 34.5t72.5 12
t72.5 -12t58 -34.5t38.5 -53.5t14 -69t-14 -69t-38.5 -53.5t-58 -35t-72.5 -12.5zM649 269q-45 0 -76.5 -28t-31.5 -76q0 -24 9 -43.5t24 -33t34.5 -21t40.5 -7.5q22 0 41.5 7.5t34.5 21t23.5 33t8.5 43.5t-8.5 43t-23.5 32.5t-34.5 21t-41.5 7.5z" />
    <glyph glyph-name="ampersand" unicode="&#x26;" horiz-adv-x="724" 
d="M575 412q1 17 10.5 28.5t27.5 11.5q22 0 31.5 -12t9.5 -26v-2q-5 -74 -27 -141.5t-60 -121.5l69 -87q12 -15 12 -30q0 -17 -11.5 -28t-26.5 -11q-11 0 -19.5 5t-19.5 19l-60 75q-33 -43 -85 -72.5t-130 -29.5q-50 0 -91.5 15t-71.5 41.5t-46.5 63t-16.5 80.5t14.5 79.5
t37.5 65t53 53.5t61 45q-41 14 -67 47.5t-26 84.5q0 33 12.5 59.5t34 45.5t49.5 29.5t58 10.5q31 0 59 -10.5t49.5 -29.5t34 -45.5t12.5 -59.5q0 -24 -8 -46.5t-22.5 -40.5t-33.5 -30t-40 -16l170 -219q22 39 37 89t20 110zM160 206q0 -30 11 -55t30 -43t44 -28t53 -10
q57 0 97.5 23.5t66.5 62.5l-175 230q-55 -41 -91 -84t-36 -96zM297 645q-33 0 -56 -23t-23 -57q0 -32 23 -55.5t56 -23.5q34 0 57 23.5t23 55.5q0 33 -23.5 56.5t-56.5 23.5z" />
    <glyph glyph-name="quotesingle" unicode="'" horiz-adv-x="250" 
d="M165 517q0 -17 -11.5 -28.5t-28.5 -11.5t-28.5 11.5t-11.5 28.5v143q0 17 11.5 28.5t28.5 11.5t28.5 -11.5t11.5 -28.5v-143z" />
    <glyph glyph-name="parenleft" unicode="(" horiz-adv-x="290" 
d="M251 650q13 0 22 -9q10 -10 10 -23q0 -8 -4 -15.5t-9 -13.5q-80 -83 -115 -172t-35 -192t39 -197t111 -168q13 -13 13 -28q0 -13 -10 -23t-23 -10q-8 0 -16 4t-14 9q-50 48 -84 98.5t-55.5 103t-31 106t-9.5 105.5t9.5 104.5t31 104.5t56 103t85.5 101q12 12 29 12z" />
    <glyph glyph-name="parenright" unicode=")" horiz-adv-x="290" 
d="M7 618q0 13 10 23q9 9 22 9q17 0 29 -12q51 -50 85.5 -101t56 -103t31 -104.5t9.5 -104.5t-9.5 -105.5t-31 -106t-56 -103t-83.5 -98.5q-6 -5 -14 -9t-16 -4q-13 0 -23 10t-10 23q0 15 13 28q72 74 111 168t39 197t-35 192t-115 172q-5 6 -9 13.5t-4 15.5z" />
    <glyph glyph-name="asterisk" unicode="*" horiz-adv-x="479" 
d="M240 606q-20 0 -35.5 14.5t-15.5 36.5q0 21 15.5 36.5t35.5 15.5q23 0 38 -15.5t15 -36.5q0 -22 -15 -36.5t-38 -14.5zM239 323q-20 0 -36 16t-16 36q0 23 16 38.5t36 15.5q21 0 37 -15.5t16 -38.5q0 -20 -16 -36t-37 -16zM355 532q-21 0 -35.5 15.5t-14.5 36.5
q0 22 14.5 37.5t35.5 15.5q22 0 37.5 -15.5t15.5 -37.5q0 -21 -15.5 -36.5t-37.5 -15.5zM355 398q-21 0 -35.5 15.5t-14.5 37.5t14.5 37t35.5 15q22 0 37.5 -15t15.5 -37t-15.5 -37.5t-37.5 -15.5zM122 398q-21 0 -36 15.5t-15 37.5t15 37t36 15q22 0 37 -15t15 -37
t-15 -37.5t-37 -15.5zM122 532q-21 0 -36 15.5t-15 36.5q0 22 15 37.5t36 15.5q22 0 37 -15.5t15 -37.5q0 -21 -15 -36.5t-37 -15.5z" />
    <glyph glyph-name="plus" unicode="+" horiz-adv-x="592" 
d="M332 167q0 -14 -10 -25t-28 -11q-17 0 -27 11t-10 25v158h-156q-14 0 -23 9.5t-9 25.5t9 25.5t23 9.5h156v156q0 14 10 24.5t27 10.5q18 0 28 -10.5t10 -24.5v-156h159q14 0 23 -9.5t9 -25.5t-9 -25.5t-23 -9.5h-159v-158v0z" />
    <glyph glyph-name="comma" unicode="," horiz-adv-x="207" 
d="M59 -100q14 10 25 24t16 35q4 15 4 28q0 14 -5 22q-4 -6 -10 -7.5t-12 -1.5q-15 0 -26.5 13t-11.5 33q0 23 14.5 38t42.5 15q32 0 52 -26t20 -71q0 -51 -23.5 -85.5t-58.5 -53.5q-11 -6 -19 -6q-11 0 -18 10q-4 5 -4 11q0 13 14 22z" />
    <glyph glyph-name="hyphen" unicode="-" horiz-adv-x="389" 
d="M276 310q16 0 27 -11t11 -26q0 -16 -11 -27t-27 -11h-163q-16 0 -27 11t-11 26q0 16 11 27t27 11h163z" />
    <glyph glyph-name="period" unicode="." horiz-adv-x="210" 
d="M50 54q0 20 15.5 36.5t41.5 16.5q23 0 38 -16.5t15 -36.5q0 -23 -15 -40t-38 -17q-26 0 -41.5 17t-15.5 40z" />
    <glyph glyph-name="slash" unicode="/" horiz-adv-x="347" 
d="M50 -178q-4 -9 -12 -15t-19 -6q-4 0 -12 2q-22 10 -22 32q0 4 2 10l311 835q8 20 30 20q9 0 13 -2q10 -4 15.5 -12.5t5.5 -18.5q0 -4 -2 -10z" />
    <glyph glyph-name="zero" unicode="0" 
d="M284 -8q-59 0 -102.5 26.5t-71.5 73.5t-41.5 113t-13.5 145t13 144.5t41 113t71 74t102 26.5t102 -26.5t70.5 -74t41 -113t13.5 -144.5t-13 -145t-40.5 -113t-70 -73.5t-101.5 -26.5zM282 633q-77 0 -109.5 -74.5t-32.5 -208.5q0 -136 34.5 -209.5t109.5 -73.5
q76 0 108 73.5t32 209.5t-33 209.5t-109 73.5z" />
    <glyph glyph-name="one" unicode="1" horiz-adv-x="366" 
d="M166 589l-68 -53q-11 -9 -26 -9q-20 0 -31 14q-8 9 -8 22q0 10 4.5 18.5t12.5 14.5l127 98q13 10 30 10t28 -11t11 -27v-635q0 -16 -11.5 -27t-28.5 -11t-28.5 11t-11.5 27v558z" />
    <glyph glyph-name="two" unicode="2" horiz-adv-x="517" 
d="M424 75q16 0 27 -11t11 -26q0 -16 -11 -27t-27 -11h-355q-21 0 -32 10.5t-11 26.5t9.5 27t17.5 19q29 28 62 61.5t66 69.5t63 74.5t53 77t37 76.5t14 73q0 47 -28.5 80t-85.5 33q-35 0 -63.5 -15.5t-47.5 -56.5q-7 -14 -16.5 -20t-23.5 -6q-20 0 -30 12t-10 28q0 4 0.5 7
t1.5 7q22 63 76 93.5t120 30.5q49 0 85 -15.5t60 -40.5t35.5 -56.5t11.5 -64.5q0 -49 -18 -98.5t-46 -96t-62 -88.5t-67 -76.5t-60 -59.5t-41 -37h285z" />
    <glyph glyph-name="three" unicode="3" horiz-adv-x="532" 
d="M66 624q30 42 76 64t105 22q88 0 140.5 -47t52.5 -130q0 -57 -27.5 -101.5t-81.5 -67.5q33 -6 58 -22t42.5 -39t26.5 -51t9 -59q0 -47 -17 -84.5t-46.5 -64t-69.5 -40.5t-87 -14q-63 0 -116 21t-85 67q-11 16 -11 31q0 20 16 30q12 7 21 7q21 0 37 -21q28 -32 61 -43.5
t74 -11.5q66 0 102 36t36 90q0 57 -40 89.5t-103 32.5h-17q-20 0 -31.5 11.5t-11.5 28.5t11.5 28.5t31.5 11.5h12q23 0 45 9t39 24.5t27 38t10 49.5q0 52 -30 81.5t-84 29.5q-41 0 -66.5 -12t-45.5 -37q-15 -18 -36 -18q-11 0 -21 6q-15 10 -15 28q0 13 9 27z" />
    <glyph glyph-name="four" unicode="4" horiz-adv-x="545" 
d="M418 175v-135q0 -17 -12 -28.5t-28 -11.5t-28 11.5t-12 28.5v135h-281q-17 0 -30 12t-13 29q0 14 9 28l268 433q7 11 16 18t23 7q17 0 27 -11t10 -26q0 -13 -7 -24l-240 -386h218v155q0 17 12 28.5t28 11.5t28 -11.5t12 -28.5v-155h55q17 0 29.5 -12t12.5 -28t-12.5 -28
t-29.5 -12h-55z" />
    <glyph glyph-name="five" unicode="5" horiz-adv-x="505" 
d="M65 143q17 0 34 -19q27 -30 60 -42t68 -12q30 0 56 11t44.5 30.5t29.5 47t11 59.5q0 31 -12 58.5t-34 47t-53.5 31t-70.5 11.5q-13 0 -25 -1t-24 -3q-2 0 -4.5 -0.5t-4.5 -0.5q-20 0 -32 12.5t-12 32.5v8l31 248q2 17 14.5 27.5t28.5 10.5h240q16 0 27 -11.5t11 -28.5
t-11 -28.5t-27 -11.5h-208l-26 -189q11 3 26 5t30 2q48 0 88.5 -15t70 -43.5t46 -68.5t16.5 -90q0 -54 -18 -97t-49.5 -73t-73 -45.5t-87.5 -15.5q-50 0 -99 18t-92 72q-8 11 -8 24q0 9 4 17.5t12 13.5q13 8 23 8z" />
    <glyph glyph-name="six" unicode="6" horiz-adv-x="559" 
d="M381 633q-40 -16 -78 -42t-70 -63t-55.5 -84.5t-33.5 -105.5q21 40 61.5 66.5t103.5 26.5q43 0 79.5 -15.5t63.5 -44t42 -68t15 -87.5q0 -52 -18.5 -93.5t-48.5 -71t-69 -45.5t-80 -16q-59 0 -104 21t-76 56t-47 82t-16 99q0 89 27.5 164.5t71 133.5t97.5 97.5t107 57.5
q5 2 11 3t11 1q24 0 33 -22q3 -8 3 -14q0 -13 -8.5 -22t-21.5 -14zM282 356q-31 0 -55.5 -10t-43 -25.5t-30.5 -35t-18 -37.5q0 -36 10 -68t29.5 -56.5t49 -39t68.5 -14.5q29 0 53 11.5t41.5 30.5t27.5 44.5t10 53.5q0 30 -9 57t-27 46.5t-44.5 31t-61.5 11.5z" />
    <glyph glyph-name="seven" unicode="7" horiz-adv-x="480" 
d="M199 18q-10 -25 -38 -25q-20 0 -30.5 11t-10.5 27q0 8 3 17l230 572h-281q-17 0 -29.5 12t-12.5 28t12.5 28t29.5 12h336q17 0 29.5 -12.5t12.5 -29.5q0 -5 -0.5 -10t-2.5 -9z" />
    <glyph glyph-name="eight" unicode="8" horiz-adv-x="595" 
d="M311 400q22 0 42.5 9t36 24.5t24.5 36.5t9 45q0 27 -10.5 48.5t-27.5 36.5t-40.5 22.5t-48.5 7.5q-52 0 -88 -31t-36 -84q0 -24 9 -45t25 -36.5t36 -24.5t43 -9h26zM288 320q-28 0 -53 -9t-44 -25.5t-30 -39.5t-11 -50t11 -50.5t30.5 -40t46.5 -26t59 -9.5q68 0 108 34.5
t40 91.5q0 30 -11 53t-29.5 38.5t-43 24t-51.5 8.5h-22zM87 527q0 41 16.5 75t45 58t66.5 37t82 13q43 0 81.5 -13t67.5 -37t45.5 -58t16.5 -75q0 -51 -30.5 -97.5t-84.5 -68.5q29 -6 54 -20.5t43.5 -37t29 -52t10.5 -64.5q0 -47 -18.5 -83.5t-50 -62t-74 -38.5t-89.5 -13
t-89.5 13t-74.5 38t-50.5 60t-18.5 80q0 66 36.5 113.5t95.5 65.5q-23 8 -43 24.5t-35 38t-23.5 48.5t-8.5 56z" />
    <glyph glyph-name="nine" unicode="9" horiz-adv-x="551" 
d="M164 63q103 30 165.5 104t77.5 189q-21 -39 -61 -63t-97 -24q-46 0 -84.5 16.5t-66 45.5t-43 68.5t-15.5 84.5q0 52 19.5 93.5t51 71t71.5 45.5t81 16q58 0 102.5 -20t74.5 -55.5t45.5 -83.5t15.5 -104q0 -93 -25 -170t-68 -134.5t-101 -95.5t-125 -53q-4 -1 -11 -1
q-13 0 -23 7t-12 19q-1 3 -1 8q0 13 8 23t21 13zM269 344q31 0 55.5 9t43 23.5t30.5 33t18 37.5q0 36 -9 69t-27.5 58.5t-47.5 40.5t-68 15q-29 0 -54.5 -11.5t-44 -30.5t-29.5 -44.5t-11 -53.5q0 -29 9.5 -55t27.5 -46.5t45 -32.5t62 -12z" />
    <glyph glyph-name="colon" unicode=":" horiz-adv-x="320" 
d="M105 406q0 20 15.5 36.5t41.5 16.5q23 0 38 -16.5t15 -36.5q0 -23 -15 -40t-38 -17q-26 0 -41.5 17t-15.5 40zM105 54q0 20 15.5 36.5t41.5 16.5q23 0 38 -16.5t15 -36.5q0 -23 -15 -40t-38 -17q-26 0 -41.5 17t-15.5 40z" />
    <glyph glyph-name="semicolon" unicode=";" horiz-adv-x="321" 
d="M106 406q0 20 15.5 36.5t41.5 16.5q23 0 38 -16.5t15 -36.5q0 -23 -15 -40t-38 -17q-26 0 -41.5 17t-15.5 40zM122 -100q14 10 25 24t16 35q4 15 4 28q0 14 -5 22q-4 -6 -10 -7.5t-12 -1.5q-15 0 -26.5 13t-11.5 33q0 23 14.5 38t42.5 15q32 0 52 -26t20 -71
q0 -51 -23.5 -85.5t-58.5 -53.5q-11 -6 -19 -6q-11 0 -18 10q-4 5 -4 11q0 13 14 22z" />
    <glyph glyph-name="less" unicode="&#x3c;" horiz-adv-x="574" 
d="M488 177q8 -5 13.5 -13t5.5 -19q0 -17 -11 -27.5t-26 -10.5q-10 0 -20 6l-365 221q-11 6 -14.5 13.5t-3.5 14.5t3.5 14.5t14.5 13.5l365 219q10 6 21 6q15 0 25.5 -10.5t10.5 -24.5t-5.5 -22t-13.5 -13l-311 -183l311 -185v0z" />
    <glyph glyph-name="equal" unicode="=" horiz-adv-x="592" 
d="M491 485q14 0 23 -9.5t9 -25.5t-9 -25.5t-23 -9.5h-390q-14 0 -23 9.5t-9 25.5t9 25.5t23 9.5h390zM491 305q14 0 23 -9.5t9 -25.5t-9 -25.5t-23 -9.5h-390q-14 0 -23 9.5t-9 25.5t9 25.5t23 9.5h390z" />
    <glyph glyph-name="greater" unicode="&#x3e;" horiz-adv-x="574" 
d="M104 107q-15 0 -26 10.5t-11 27.5q0 11 5.5 19t13.5 13l311 185l-311 183q-8 5 -13.5 13t-5.5 22t10.5 24.5t25.5 10.5q10 0 21 -6l365 -219q11 -6 14.5 -13.5t3.5 -14.5t-3.5 -14.5t-14.5 -13.5l-365 -221q-11 -6 -20 -6z" />
    <glyph glyph-name="question" unicode="?" horiz-adv-x="458" 
d="M229 209v-2q0 -12 -7 -23t-24 -13h-4q-17 0 -26 10t-11 24l-2 18q-1 5 -1 10v10q0 36 13.5 60.5t33.5 43.5t44 35.5t44 35.5t33.5 43t13.5 59q0 23 -9 43t-25.5 35t-38.5 23.5t-49 8.5q-37 0 -62 -11.5t-53 -33.5q-13 -10 -27 -10q-17 0 -28 14q-8 10 -8 23q0 16 12 27
q38 34 77 52.5t94 18.5q48 0 86 -14t64 -37.5t39.5 -55t13.5 -66.5q0 -46 -14.5 -78t-36 -56t-46.5 -42.5t-46.5 -37t-36 -40t-14.5 -52.5v-8zM196 -3q-27 0 -42.5 17t-15.5 40q0 20 15.5 36.5t42.5 16.5q23 0 38 -16.5t15 -36.5q0 -23 -15 -40t-38 -17z" />
    <glyph glyph-name="at" unicode="@" horiz-adv-x="1006" 
d="M513 -213q-97 0 -179 33.5t-142 92t-93.5 138.5t-33.5 174q0 91 33.5 171t93.5 139.5t142 93.5t179 34q91 0 169.5 -28.5t136 -80t90 -124t32.5 -159.5q0 -51 -14.5 -99.5t-43 -87t-72 -61.5t-100.5 -23h-42q-17 0 -29 12t-12 32q-24 -22 -60.5 -38t-78.5 -16
q-51 0 -92 16.5t-70.5 47.5t-45 74.5t-15.5 96.5q0 49 19 92t52.5 74.5t80 50t101.5 18.5q45 0 87 -10t75 -26q11 -5 19 -18t8 -25v-306h21q31 0 56.5 15t43.5 41t27.5 62t9.5 77q0 67 -25.5 125t-71.5 101t-111.5 67.5t-144.5 24.5t-147 -26.5t-118.5 -74t-79 -114.5
t-28.5 -148q0 -78 28.5 -144.5t79 -115t118.5 -76t147 -27.5q19 0 37.5 2t37.5 5q2 0 5 0.5t5 0.5q14 0 24 -6t13 -22q1 -3 1 -10q0 -15 -9.5 -24.5t-25.5 -12.5q-23 -5 -44 -6.5t-44 -1.5zM628 356q-26 15 -54 22t-56 7q-38 0 -69 -13t-52.5 -35.5t-33.5 -52t-12 -63.5
q0 -74 42 -115t109 -41q39 0 73 18.5t53 40.5v232z" />
    <glyph glyph-name="A" unicode="A" horiz-adv-x="685" 
d="M500 212h-319l-80 -191q-7 -17 -16.5 -22.5t-21.5 -5.5q-20 0 -30 12t-10 27q0 5 1 9t3 9l268 621q7 15 19 24.5t30 9.5t30 -10t18 -24l267 -618q3 -9 3 -17q0 -17 -10.5 -30t-30.5 -13q-14 0 -24.5 7.5t-15.5 20.5zM341 591l-126 -299h252z" />
    <glyph glyph-name="B" unicode="B" horiz-adv-x="617" 
d="M297 703q63 0 106 -13.5t69.5 -36.5t38 -55t11.5 -68q0 -66 -35 -106t-85 -57q66 -11 105.5 -53t39.5 -114q0 -53 -19.5 -91.5t-53.5 -63.5t-80.5 -36.5t-100.5 -11.5q-34 0 -74 0.5t-72 1.5q-17 1 -29.5 13.5t-12.5 29.5v615q0 17 12.5 30t29.5 13q32 1 73.5 2t76.5 1z
M190 81q17 -2 47.5 -3t60.5 -1q78 0 121 31.5t43 96.5q0 56 -41.5 85t-117.5 29h-113v-238zM190 394h112q28 0 52.5 7.5t43 22.5t29 36.5t10.5 50.5q0 112 -142 112q-28 0 -57 -1t-48 -2v-226z" />
    <glyph glyph-name="C" unicode="C" horiz-adv-x="646" 
d="M566 592q-12 0 -24 6q-59 32 -142 32q-57 0 -105 -20.5t-82.5 -57.5t-53.5 -88.5t-19 -113.5q0 -63 20 -114.5t56 -88t86 -57t111 -20.5q80 0 145 39q11 7 25 7q19 0 30 -14q7 -8 7 -20q0 -10 -5.5 -19t-13.5 -15q-38 -27 -89 -42.5t-107 -15.5q-79 0 -144 25.5
t-112 72.5t-73 113.5t-26 148.5q0 75 23.5 141t68.5 114.5t110 76.5t147 28q56 0 103.5 -13.5t80.5 -33.5q21 -14 21 -34q0 -10 -6 -19q-11 -18 -32 -18z" />
    <glyph glyph-name="D" unicode="D" horiz-adv-x="739" 
d="M105 658q0 17 12 29.5t30 12.5q37 1 76.5 2t72.5 1q105 0 179.5 -28t122 -75.5t69.5 -109.5t22 -131q0 -75 -25 -140.5t-75.5 -114.5t-125.5 -77.5t-175 -28.5q-29 0 -64.5 0.5t-76.5 1.5q-17 0 -29.5 12.5t-12.5 29.5v616zM190 80q35 -1 63.5 -1.5t37.5 -0.5
q75 0 132.5 21t96.5 58.5t59 89t20 112.5q0 57 -19 105.5t-57.5 83.5t-95.5 55t-133 20q-32 0 -55 -1t-49 -2v-540z" />
    <glyph glyph-name="E" unicode="E" horiz-adv-x="575" 
d="M471 80q16 0 27.5 -11.5t11.5 -28.5t-11.5 -28.5t-27.5 -11.5h-324q-17 0 -29.5 12.5t-12.5 29.5v616q0 17 12.5 29.5t29.5 12.5h314q16 0 27.5 -11.5t11.5 -28.5t-11.5 -28.5t-27.5 -11.5h-271v-226h241q16 0 27.5 -11.5t11.5 -28.5t-11.5 -28.5t-27.5 -11.5h-241v-234
h281z" />
    <glyph glyph-name="F" unicode="F" horiz-adv-x="540" 
d="M190 292v-257q0 -17 -12.5 -29.5t-29.5 -12.5q-18 0 -30.5 12.5t-12.5 29.5v623q0 17 12.5 29.5t29.5 12.5h314q16 0 27.5 -11.5t11.5 -28.5t-11.5 -28.5t-27.5 -11.5h-271v-248h241q16 0 27.5 -11.5t11.5 -28.5t-11.5 -28.5t-27.5 -11.5h-241z" />
    <glyph glyph-name="G" unicode="G" horiz-adv-x="727" 
d="M404 630q-59 0 -107.5 -20t-83 -56.5t-54 -88.5t-19.5 -115q0 -64 19.5 -115.5t54.5 -88t84 -56.5t109 -20q25 0 51 4.5t50 13t44.5 19.5t34.5 25v144h-150q-16 0 -27.5 11.5t-11.5 28.5t11.5 28.5t27.5 11.5h188q17 0 29.5 -12.5t12.5 -29.5v-200q0 -17 -7.5 -28.5
t-16.5 -18.5q-24 -18 -53.5 -32.5t-61 -24.5t-63 -15t-60.5 -5q-82 0 -147.5 25.5t-111.5 72.5t-71 113.5t-25 148.5q0 75 24.5 141t69.5 114.5t108.5 76.5t141.5 28q60 0 107.5 -13t84.5 -35q11 -6 16 -15t5 -18q0 -11 -6 -21q-11 -18 -33 -18q-13 0 -26 7q-29 15 -63.5 24
t-74.5 9z" />
    <glyph glyph-name="H" unicode="H" horiz-adv-x="765" 
d="M575 664q0 17 12.5 29t30.5 12q17 0 29.5 -12t12.5 -29v-629q0 -17 -12.5 -29.5t-29.5 -12.5q-18 0 -30.5 12.5t-12.5 29.5v282h-385v-282q0 -17 -12.5 -29.5t-29.5 -12.5q-18 0 -30.5 12.5t-12.5 29.5v629q0 17 12.5 29t30.5 12q17 0 29.5 -12t12.5 -29v-267h385v267v0z
" />
    <glyph glyph-name="I" unicode="I" horiz-adv-x="335" 
d="M125 664q0 17 12.5 29t30.5 12q17 0 29.5 -12t12.5 -29v-629q0 -17 -12.5 -29.5t-29.5 -12.5q-18 0 -30.5 12.5t-12.5 29.5v629v0z" />
    <glyph glyph-name="J" unicode="J" horiz-adv-x="369" 
d="M64 77q10 -3 19 -5t17 -2q46 0 62.5 29t16.5 74v491q0 17 12.5 29t30.5 12q17 0 29.5 -12t12.5 -29v-505q0 -79 -36 -124t-117 -45q-23 0 -42.5 5t-35.5 12q-10 5 -15.5 14t-5.5 20q0 8 3 16q11 23 34 23q7 0 15 -3z" />
    <glyph glyph-name="K" unicode="K" horiz-adv-x="635" 
d="M234 334q-11 13 -11 30q0 18 12 32l262 287q19 22 39 22q17 0 27 -10t10 -24q0 -18 -15 -33l-253 -267l271 -306q15 -16 15 -35q0 -16 -11 -26.5t-28 -10.5q-14 0 -23.5 6t-18.5 17zM105 664q0 17 12.5 29t30.5 12q17 0 29.5 -12t12.5 -29v-629q0 -17 -12.5 -29.5
t-29.5 -12.5q-18 0 -30.5 12.5t-12.5 29.5v629z" />
    <glyph glyph-name="L" unicode="L" horiz-adv-x="550" 
d="M496 80q16 0 27.5 -11.5t11.5 -28.5t-11.5 -28.5t-27.5 -11.5h-349q-17 0 -29.5 12.5t-12.5 29.5v622q0 17 12.5 29t30.5 12q17 0 29.5 -12t12.5 -29v-584h306z" />
    <glyph glyph-name="M" unicode="M" horiz-adv-x="892" 
d="M492 271q-20 -27 -45 -27t-45 27l-212 290v-526q0 -17 -12.5 -29.5t-29.5 -12.5q-18 0 -30.5 12.5t-12.5 29.5v616q0 24 13.5 39t35.5 15q20 0 32.5 -9t22.5 -23l245 -332l235 335q8 11 20 20t29 9q24 0 36.5 -15t12.5 -33v-622q0 -17 -12.5 -29.5t-29.5 -12.5
q-18 0 -30.5 12.5t-12.5 29.5v532z" />
    <glyph glyph-name="N" unicode="N" horiz-adv-x="795" 
d="M610 666q0 16 11.5 27.5t28.5 11.5t28.5 -11.5t11.5 -27.5v-630q0 -19 -9.5 -31t-26.5 -12q-16 0 -27 7.5t-24 23.5l-418 527v-519q0 -16 -11.5 -27.5t-28.5 -11.5t-28.5 11.5t-11.5 27.5v626q0 18 9.5 32.5t29.5 14.5q16 0 27.5 -8t26.5 -28l412 -521v518z" />
    <glyph glyph-name="O" unicode="O" horiz-adv-x="814" 
d="M407 -10q-76 0 -141.5 26.5t-113.5 74t-75 113.5t-27 146q0 76 26.5 142t74 114.5t113 76t143.5 27.5q76 0 141.5 -26.5t113.5 -74t75 -113.5t27 -146q0 -78 -27 -144t-75 -114t-113.5 -75t-141.5 -27zM407 630q-57 0 -106 -21t-84.5 -58t-56 -88.5t-20.5 -112.5
q0 -60 20.5 -111t56.5 -88.5t85 -59t105 -21.5q60 0 109 21.5t84.5 59t54.5 89t19 110.5q0 61 -20.5 112.5t-56.5 88.5t-85 58t-105 21z" />
    <glyph glyph-name="P" unicode="P" horiz-adv-x="597" 
d="M147 700q17 0 37 0.5t39 1t36 0.5h29q75 0 125 -18.5t79.5 -49t42 -69.5t12.5 -80q0 -43 -15.5 -82.5t-46.5 -70t-78.5 -49t-111.5 -18.5q-21 0 -50 1t-55 3v-234q0 -17 -12.5 -29.5t-29.5 -12.5q-18 0 -30.5 12.5t-12.5 29.5v623q0 17 12.5 29.5t29.5 12.5zM190 350
q26 -2 51 -3.5t51 -1.5q78 0 121.5 37.5t43.5 103.5q0 63 -38.5 99.5t-122.5 36.5q-21 0 -51 -0.5t-55 -1.5v-270z" />
    <glyph glyph-name="Q" unicode="Q" horiz-adv-x="814" 
d="M712 16q0 -17 -13 -29q-12 -9 -26 -9q-17 0 -29 13l-45 52q-42 -26 -90 -39.5t-102 -13.5q-76 0 -141.5 26.5t-113.5 74t-75 113.5t-27 146q0 76 26.5 142t74 114.5t113 76t143.5 27.5q76 0 141.5 -26.5t113.5 -74t75 -113.5t27 -146q0 -79 -28 -145.5t-77 -114.5l44 -50
q9 -11 9 -24zM604 155q33 38 51.5 87.5t18.5 107.5q0 61 -20.5 112.5t-56.5 88.5t-85 58t-105 21q-57 0 -106 -21t-84.5 -58t-56 -88.5t-20.5 -112.5q0 -60 20.5 -111t56.5 -88.5t85 -59t105 -21.5q39 0 74 9.5t64 26.5l-37 45q-9 10 -9 25q0 17 12 29q10 9 25 9
q17 0 28 -12z" />
    <glyph glyph-name="R" unicode="R" horiz-adv-x="627" 
d="M587 32q0 -16 -10.5 -27.5t-28.5 -11.5q-14 0 -24 6.5t-19 17.5l-201 263h-114v-245q0 -17 -12.5 -29.5t-29.5 -12.5q-18 0 -30.5 12.5t-12.5 29.5v623q0 17 12.5 29.5t29.5 12.5q20 0 43 0.5t44 1t37 0.5h22q72 0 119.5 -16.5t76.5 -45t41 -66.5t12 -80q0 -41 -13 -74
t-34 -58t-48.5 -42t-56.5 -24l186 -235q11 -14 11 -29zM190 360h103q30 0 59 9t51 26.5t35.5 42t13.5 55.5q0 27 -8 50.5t-27.5 41t-51 27.5t-77.5 10q-17 0 -45 -0.5t-53 -1.5v-260z" />
    <glyph glyph-name="S" unicode="S" horiz-adv-x="526" 
d="M252 -10q-56 0 -103 21.5t-91 58.5q-6 5 -9 12.5t-3 15.5q0 14 9 25q12 15 31 15q13 0 23 -7q40 -29 73 -45t71 -16q27 0 52 7t44 21t30 34t11 47q0 43 -25.5 69t-63.5 45.5t-82 36.5t-82 41.5t-63.5 61t-25.5 94.5q0 38 14.5 71.5t41.5 58t66 39t89 14.5q49 0 90 -13
t74 -34q16 -11 16 -32q0 -13 -7 -21q-14 -19 -33 -19q-6 0 -11.5 2t-11.5 5q-25 15 -51 23.5t-61 8.5q-59 0 -92.5 -28t-33.5 -75q0 -43 25.5 -69t63.5 -44.5t82 -35t82 -40.5t63.5 -61t25.5 -97q0 -43 -18 -78t-48.5 -60t-72 -38.5t-89.5 -13.5z" />
    <glyph glyph-name="T" unicode="T" horiz-adv-x="595" 
d="M340 35q0 -17 -12.5 -29.5t-29.5 -12.5q-18 0 -30.5 12.5t-12.5 29.5v585h-206q-16 0 -27.5 11.5t-11.5 28.5t11.5 28.5t27.5 11.5h497q16 0 27.5 -11.5t11.5 -28.5t-11.5 -28.5t-27.5 -11.5h-206v-585z" />
    <glyph glyph-name="U" unicode="U" horiz-adv-x="751" 
d="M180 315q0 -115 53 -179.5t152 -64.5q87 0 136.5 59t49.5 179v355q0 17 12.5 29t30.5 12q17 0 29.5 -12t12.5 -29v-372q0 -80 -22 -137t-59.5 -93.5t-86.5 -53.5t-103 -17q-63 0 -116 19.5t-92 58t-60.5 96t-21.5 134.5v365q0 17 12.5 29t30.5 12q17 0 29.5 -12t12.5 -29
v-349v0z" />
    <glyph glyph-name="V" unicode="V" horiz-adv-x="644" 
d="M17 663q0 17 11 29.5t31 12.5q16 0 25.5 -8t16.5 -25l226 -548l220 548q8 18 17 25.5t23 7.5q19 0 29.5 -11.5t10.5 -26.5q0 -4 -1 -8t-3 -9l-255 -625q-6 -15 -16 -23.5t-27 -8.5t-28 9.5t-16 22.5l-260 620q-2 5 -3 9t-1 9z" />
    <glyph glyph-name="W" unicode="W" horiz-adv-x="960" 
d="M434 661q6 17 17.5 30.5t32.5 13.5t32.5 -12t18.5 -32l176 -516l151 526q9 34 39 34q21 0 30.5 -12.5t9.5 -27.5q0 -5 -2 -15l-181 -616q-5 -17 -15.5 -29t-28.5 -12q-22 0 -33 12t-17 29l-182 529l-179 -529q-6 -18 -17 -29.5t-31 -11.5q-18 0 -30 11.5t-17 29.5
l-186 604q-3 10 -3 20q0 19 11.5 33t36.5 14q18 0 27.5 -10.5t13.5 -23.5l154 -526l172 516v0z" />
    <glyph glyph-name="X" unicode="X" horiz-adv-x="633" 
d="M51 665q0 16 10.5 28t30.5 12q14 0 22.5 -7.5t19.5 -22.5l185 -255l182 255q11 17 21.5 23.5t24.5 6.5q17 0 28 -11t11 -27q0 -13 -9 -26l-205 -285l216 -300q7 -8 7 -22q0 -15 -10.5 -28t-28.5 -13q-23 0 -41 25l-199 273l-197 -273q-8 -11 -18.5 -18t-23.5 -7
q-18 0 -28.5 12t-10.5 28q0 14 9 26l215 297l-203 283q-8 11 -8 26z" />
    <glyph glyph-name="Y" unicode="Y" horiz-adv-x="584" 
d="M28 664q0 17 11.5 29t31.5 12q14 0 23 -7t19 -24l180 -294l181 294q9 15 19.5 23t24.5 8q19 0 28.5 -11t9.5 -25q0 -11 -7 -23l-217 -346v-265q0 -17 -12.5 -29.5t-29.5 -12.5q-18 0 -30.5 12.5t-12.5 29.5v265l-212 340q-7 11 -7 24z" />
    <glyph glyph-name="Z" unicode="Z" horiz-adv-x="625" 
d="M58 0q-15 0 -24.5 8t-9.5 22t6 24t14 21l414 545h-369q-16 0 -27.5 11.5t-11.5 28.5t11.5 28.5t27.5 11.5h459q15 0 24.5 -8t9.5 -24q0 -12 -7 -23.5t-14 -19.5l-416 -545h401q16 0 27.5 -11.5t11.5 -28.5t-11.5 -28.5t-27.5 -11.5h-488z" />
    <glyph glyph-name="bracketleft" unicode="[" horiz-adv-x="320" 
d="M273 -125q15 0 26 -11t11 -27q0 -15 -11 -26t-26 -11h-176q-15 0 -26 11t-11 26v776q0 15 11 26t26 11h176q15 0 26 -11t11 -27q0 -15 -11 -26t-26 -11h-133v-700h133z" />
    <glyph glyph-name="backslash" unicode="\" horiz-adv-x="347" 
d="M-12 655q-2 4 -2 13q0 10 5.5 18.5t15.5 12.5q8 2 11 2q11 0 19.5 -6t12.5 -17l309 -831q2 -4 2 -13q0 -22 -21 -30q-4 -2 -12 -2q-11 0 -19.5 5.5t-12.5 16.5z" />
    <glyph glyph-name="bracketright" unicode="]" horiz-adv-x="320" 
d="M47 575q-15 0 -26 11t-11 27q0 15 11 26t26 11h176q15 0 26 -11t11 -26v-776q0 -15 -11 -26t-26 -11h-176q-15 0 -26 11t-11 27q0 15 11 26t26 11h133v700h-133z" />
    <glyph glyph-name="asciicircum" unicode="^" horiz-adv-x="492" 
d="M141 471q-13 -21 -36 -21q-14 0 -23.5 9.5t-9.5 23.5q0 12 9 26l124 178q10 14 19.5 20.5t23.5 6.5q23 0 41 -27l124 -181q7 -10 7 -22q0 -14 -10 -24t-23 -10q-23 0 -36 21l-105 155z" />
    <glyph glyph-name="underscore" unicode="_" horiz-adv-x="312" 
d="M272 -120q17 0 28.5 -11.5t11.5 -28.5t-11.5 -28.5t-28.5 -11.5h-232q-17 0 -28.5 11.5t-11.5 28.5t11.5 28.5t28.5 11.5h232z" />
    <glyph glyph-name="grave" unicode="`" horiz-adv-x="290" 
d="M212 591q6 -8 6 -18q0 -15 -12 -25q-8 -5 -18 -5q-8 0 -15.5 3t-12.5 9l-79 94q-7 8 -7 20q0 14 11 23l13 10q7 6 18 6q15 0 25 -13z" />
    <glyph glyph-name="a" unicode="a" horiz-adv-x="460" 
d="M40 132q0 34 13 61t35.5 45t54 27.5t67.5 9.5q26 0 57.5 -6t54.5 -23q0 31 -3.5 57.5t-14 45t-31 29t-53.5 10.5q-25 0 -46 -4.5t-44 -13.5q-8 -3 -15 -3q-22 0 -31 20q-3 7 -3 14q0 11 5.5 19.5t14.5 12.5q35 14 65.5 20.5t58.5 6.5q96 0 134.5 -48t38.5 -136v-248
q0 -14 -10.5 -24.5t-27.5 -10.5t-27.5 10.5t-10.5 24.5v30q-20 -26 -54 -45.5t-90 -19.5q-62 0 -100 36.5t-38 102.5zM322 180q-42 30 -101 30q-18 0 -35.5 -4.5t-31 -13.5t-21.5 -23t-8 -33q0 -32 21 -51.5t60 -19.5q44 0 71.5 19t44.5 39v57z" />
    <glyph glyph-name="b" unicode="b" horiz-adv-x="549" 
d="M152 407q24 22 61.5 37.5t78.5 15.5q50 0 90 -17t67.5 -47t42 -72t14.5 -92q0 -56 -18 -100.5t-50.5 -76t-78.5 -48.5t-103 -17q-45 0 -87 10.5t-74 27.5q-9 5 -16 16t-7 22v596q0 16 11.5 27t28.5 11t28.5 -11t11.5 -27v-255zM152 96q27 -18 53 -24.5t55 -6.5
q34 0 63.5 11t51 31.5t34 50.5t12.5 68q0 76 -40.5 117.5t-106.5 41.5q-39 0 -72 -18.5t-50 -39.5v-231z" />
    <glyph glyph-name="c" unicode="c" horiz-adv-x="477" 
d="M380 359q-24 13 -48 19.5t-51 6.5q-30 0 -58 -11.5t-49.5 -32.5t-34 -50.5t-12.5 -65.5q0 -37 13 -66.5t35 -50.5t51.5 -32t62.5 -11q27 0 50.5 7t45.5 24q16 13 31 13q13 0 23 -10q11 -10 11 -25q0 -17 -11 -26q-38 -34 -76 -46t-80 -12q-54 0 -98 16.5t-76 47.5
t-49.5 74.5t-17.5 96.5q0 49 17 92t47.5 74.5t72 50t91.5 18.5q45 0 79 -8t67 -27q21 -11 21 -34q0 -11 -5 -18q-11 -18 -33 -18q-11 0 -19 4z" />
    <glyph glyph-name="d" unicode="d" horiz-adv-x="554" 
d="M482 31q0 -16 -11.5 -27t-28.5 -11t-28.5 11t-11.5 27v26q-25 -27 -61 -46t-82 -19q-50 0 -90 16.5t-68 46.5t-43.5 72.5t-15.5 94.5t18.5 96t51.5 75.5t78 49t98 17.5q36 0 63.5 -7.5t50.5 -24.5v234q0 16 11.5 27t28.5 11t28.5 -11t11.5 -27v-631zM402 350
q-55 35 -111 35q-33 0 -63 -11t-52.5 -32t-35.5 -51t-13 -67t11 -66t31 -49.5t46.5 -31t58.5 -10.5q39 0 73 18.5t55 41.5v223z" />
    <glyph glyph-name="e" unicode="e" horiz-adv-x="525" 
d="M400 265q-3 56 -37 88t-93 32q-62 0 -99 -34t-44 -86h273zM483 254v-11.5t-1 -10.5q-1 -12 -11.5 -22t-22.5 -10h-316q5 -64 48 -99.5t109 -35.5q34 0 60.5 6.5t49.5 20.5q10 6 22 6q15 0 27 -13q6 -8 6 -18q0 -8 -3 -15.5t-9 -11.5q-38 -27 -77.5 -38.5t-81.5 -11.5
q-55 0 -99.5 16.5t-76 47.5t-48.5 74.5t-17 96.5q0 49 15.5 92t45 74.5t72.5 50t99 18.5q43 0 81.5 -15t66.5 -42t44.5 -65t16.5 -84z" />
    <glyph glyph-name="f" unicode="f" horiz-adv-x="338" 
d="M162 31q0 -16 -11.5 -27t-28.5 -11t-28.5 11t-11.5 27v492q0 94 41.5 140.5t116.5 46.5q30 0 55 -7t45 -19q17 -10 17 -29q0 -15 -10 -24t-25 -9q-12 0 -21 4q-12 5 -23 7t-25 2q-43 0 -67 -29t-24 -92v-64h112q16 0 27 -11t11 -26q0 -16 -11 -27t-27 -11h-112v-344z" />
    <glyph glyph-name="g" unicode="g" horiz-adv-x="502" 
d="M212 79q7 0 13.5 0.5t13.5 0.5q49 0 91 -9t72.5 -27t48 -45t17.5 -64q0 -36 -17.5 -63t-48 -44.5t-72.5 -26.5t-91 -9t-91 8.5t-72.5 26t-48 44.5t-17.5 64q0 55 39.5 89t104.5 48q-6 8 -8.5 17.5t-2.5 19.5q0 23 12 38q-48 20 -74.5 59t-26.5 89q0 34 13 64t37 52.5
t58 35.5t76 13q33 0 62 -8.5t52 -24.5l101 24q3 1 8 1q11 0 19.5 -6.5t10.5 -17.5q1 -2 1 -7q0 -11 -7 -20t-18 -12l-66 -16q21 -35 21 -78q0 -34 -13 -63.5t-37 -51.5t-58 -34.5t-76 -12.5h-15t-15 1q-3 -6 -4 -12.5t-1 -12.5q0 -18 9 -30zM85 -65q0 -38 42 -58t112 -20
t112 20t42 58t-41 59t-113 21t-113 -21t-41 -59zM129 295q0 -42 29.5 -69.5t79.5 -27.5q48 0 78.5 26.5t30.5 70.5q0 42 -29 71t-80 29q-50 0 -79.5 -29t-29.5 -71z" />
    <glyph glyph-name="h" unicode="h" horiz-adv-x="558" 
d="M152 31q0 -16 -11.5 -27t-28.5 -11t-28.5 11t-11.5 27v631q0 16 11.5 27t28.5 11t28.5 -11t11.5 -27v-264q25 26 64.5 43t82.5 17q88 0 137.5 -47t49.5 -153v-227q0 -16 -11.5 -27t-28.5 -11t-28.5 11t-11.5 27v216q0 136 -126 136q-38 0 -72.5 -16.5t-55.5 -40.5v-295z
" />
    <glyph glyph-name="i" unicode="i" horiz-adv-x="268" 
d="M174 31q0 -16 -11.5 -27t-28.5 -11t-28.5 11t-11.5 27v386q0 16 11.5 27t28.5 11t28.5 -11t11.5 -27v-386zM84 619q0 22 15.5 35t36.5 13q19 0 34 -13t15 -35q0 -25 -15 -38.5t-34 -13.5q-21 0 -36.5 13.5t-15.5 38.5z" />
    <glyph glyph-name="j" unicode="j" horiz-adv-x="283" 
d="M115 417q0 16 11.5 27t28.5 11t28.5 -11t11.5 -27v-450q0 -83 -33 -129t-108 -46q-41 0 -70 11q-26 10 -26 35q0 16 10 25t27 9h8.5t8.5 -2q12 -3 24 -3q43 0 61 28t18 78v444zM104 619q0 22 15.5 35t36.5 13q19 0 34 -13t15 -35q0 -25 -15 -38.5t-34 -13.5
q-21 0 -36.5 13.5t-15.5 38.5z" />
    <glyph glyph-name="k" unicode="k" horiz-adv-x="476" 
d="M194 206q-11 13 -11 29t11 29l147 170q18 21 36 21t28.5 -10t10.5 -24q0 -15 -12 -28l-138 -152l161 -181q12 -15 12 -30t-10.5 -26t-29.5 -11q-13 0 -22 5.5t-17 15.5zM152 31q0 -16 -11.5 -27t-28.5 -11t-28.5 11t-11.5 27v631q0 16 11.5 27t28.5 11t28.5 -11t11.5 -27
v-631z" />
    <glyph glyph-name="l" unicode="l" horiz-adv-x="288" 
d="M152 156q0 -46 12 -67.5t41 -21.5q13 0 25 2.5t20 2.5q10 0 21.5 -7.5t11.5 -24.5t-9.5 -26.5t-24 -14t-31 -5.5t-29.5 -1q-56 0 -86.5 30.5t-30.5 96.5v542q0 16 11.5 27t28.5 11t28.5 -11t11.5 -27v-506z" />
    <glyph glyph-name="m" unicode="m" horiz-adv-x="812" 
d="M152 393q25 29 65 47t84 18q53 0 88 -21.5t48 -56.5q24 35 65.5 56.5t92.5 21.5q31 0 57.5 -8t46 -27t30.5 -50.5t11 -77.5v-264q0 -16 -11.5 -27t-28.5 -11t-28.5 11t-11.5 27v242q0 110 -97 110q-41 0 -71.5 -18.5t-46.5 -46.5q1 -6 1 -15v-17v-255q0 -16 -11.5 -27
t-28.5 -11t-28.5 11t-11.5 27v259q0 42 -24 67.5t-72 25.5q-39 0 -70 -18t-48 -43v-291q0 -16 -11.5 -27t-28.5 -11t-28.5 11t-11.5 27v386q0 16 11.5 27t28.5 11t28.5 -11t11.5 -27v-24v0z" />
    <glyph glyph-name="n" unicode="n" horiz-adv-x="558" 
d="M152 31q0 -16 -11.5 -27t-28.5 -11t-28.5 11t-11.5 27v386q0 16 11.5 27t28.5 11t28.5 -11t11.5 -27v-22q23 26 62.5 44.5t84.5 18.5q88 0 137.5 -46t49.5 -152v-229q0 -16 -11.5 -27t-28.5 -11t-28.5 11t-11.5 27v214q0 71 -32 104.5t-95 33.5q-38 0 -71.5 -16.5
t-55.5 -41.5v-294z" />
    <glyph glyph-name="o" unicode="o" 
d="M42 225q0 51 17 94t48.5 74.5t76 49t98.5 17.5t98 -17.5t75.5 -49t49 -74.5t17.5 -94t-17.5 -94t-49 -74.5t-75.5 -49t-98 -17.5t-98.5 17.5t-76 49t-48.5 74.5t-17 94zM127 225q0 -35 11.5 -64.5t32 -50.5t49 -33t62.5 -12t62.5 11.5t49 32.5t32 50.5t11.5 65.5
q0 35 -11.5 64.5t-32 50.5t-49 33t-62.5 12q-33 0 -61.5 -11.5t-49 -32.5t-32.5 -50.5t-12 -65.5z" />
    <glyph glyph-name="p" unicode="p" horiz-adv-x="556" 
d="M152 -162q0 -16 -11.5 -27t-28.5 -11t-28.5 11t-11.5 27v579q0 16 11.5 27t28.5 11t28.5 -11t11.5 -27v-20q23 27 64.5 45t88.5 18q48 0 86.5 -17t65.5 -47t41.5 -72t14.5 -92q0 -51 -16.5 -95.5t-47.5 -77t-74 -51t-96 -18.5q-36 0 -69.5 7.5t-57.5 23.5v-183zM152 100
q30 -20 59 -27.5t61 -7.5q36 0 65 12.5t49 34t31 51.5t11 66q0 34 -9.5 62.5t-28.5 49.5t-46 32.5t-62 11.5q-40 0 -74.5 -18t-55.5 -44v-223z" />
    <glyph glyph-name="q" unicode="q" horiz-adv-x="557" 
d="M484 -162q0 -16 -11.5 -27t-28.5 -11t-28.5 11t-11.5 27v198q-27 -21 -62 -33.5t-69 -12.5q-53 0 -95.5 16.5t-72.5 47.5t-46.5 74.5t-16.5 96.5q0 49 19 92t52.5 74.5t80 50t101.5 18.5q46 0 88.5 -10.5t76.5 -27.5q10 -5 17 -16t7 -22v-546zM404 356q-26 15 -54 22
t-56 7q-38 0 -69 -13t-52.5 -35.5t-33.5 -52t-12 -63.5q0 -35 11 -63.5t31.5 -49t49.5 -32t64 -11.5q36 0 69.5 16t51.5 38v237z" />
    <glyph glyph-name="r" unicode="r" horiz-adv-x="340" 
d="M152 33q0 -17 -11.5 -28.5t-28.5 -11.5t-28.5 11.5t-11.5 28.5v382q0 17 11.5 28.5t28.5 11.5t28.5 -11.5t11.5 -28.5v-18q17 26 43.5 43.5t69.5 17.5q12 0 22 -2t19 -4q12 -4 20.5 -11.5t8.5 -20.5q0 -3 -0.5 -6t-1.5 -7q-8 -28 -40 -28q-5 0 -10 0.5t-10 1.5
q-7 2 -13.5 2h-13.5q-39 0 -60 -19.5t-34 -44.5v-286z" />
    <glyph glyph-name="s" unicode="s" horiz-adv-x="410" 
d="M41 66q0 12 8 22q11 14 28 14q13 0 23 -7q52 -35 104 -35q32 0 56 15.5t24 46.5q0 23 -18 36t-45 22.5t-58.5 19t-58.5 25.5t-45 41.5t-18 66.5q0 60 43 93.5t110 33.5q43 0 73 -10t55 -24q16 -10 16 -28q0 -10 -6 -19q-10 -16 -30 -16q-11 0 -20 5q-19 10 -38.5 16
t-45.5 6q-34 0 -53 -16.5t-19 -39.5q0 -24 18 -37.5t45 -23.5t58.5 -19.5t58.5 -24.5t45 -39.5t18 -63.5q0 -36 -14.5 -61.5t-38.5 -42t-55.5 -24.5t-65.5 -8q-45 0 -78.5 12.5t-62.5 35.5q-13 10 -13 28z" />
    <glyph glyph-name="t" unicode="t" horiz-adv-x="344" 
d="M222 67q20 0 36.5 6t27.5 6q14 0 24 -8.5t10 -24.5q0 -19 -21 -32q-20 -12 -43.5 -17t-52.5 -5q-76 0 -108.5 46t-32.5 133v366q0 16 11.5 27t28.5 11t28.5 -11t11.5 -27v-87h127q16 0 27 -11t11 -26q0 -16 -11 -27t-27 -11h-127v-196q0 -54 18.5 -83t61.5 -29z" />
    <glyph glyph-name="u" unicode="u" horiz-adv-x="540" 
d="M387 417q0 16 11.5 27t28.5 11t28.5 -11t11.5 -27v-386q0 -16 -11.5 -27t-28.5 -11t-28.5 11t-11.5 27v33q-23 -29 -64 -51.5t-95 -22.5q-75 0 -120.5 46.5t-45.5 145.5v235q0 16 11.5 27t28.5 11t28.5 -11t11.5 -27v-217q0 -64 27 -99.5t89 -35.5q39 0 73.5 20t55.5 47
v285z" />
    <glyph glyph-name="v" unicode="v" horiz-adv-x="465" 
d="M201 207q10 -22 20 -48.5t18 -51.5q8 25 17.5 52t19.5 50l94 221q10 25 38 25q17 0 27.5 -11t10.5 -26q0 -8 -3 -15l-167 -382q-12 -28 -40 -28q-27 0 -40 28l-173 374q-4 8 -4 17q0 17 12.5 30t31.5 13q14 0 23.5 -7t14.5 -18l100 -223v0z" />
    <glyph glyph-name="w" unicode="w" horiz-adv-x="693" 
d="M487 167q6 -16 11 -32t10 -33q7 34 18 69l74 254q4 13 14 21.5t24 8.5q19 0 29 -11t10 -25q0 -4 -2 -12l-121 -382q-10 -32 -44 -32q-35 0 -46 31l-101 265q-5 14 -9 27.5t-8 27.5q-5 -16 -9 -30t-10 -28l-98 -261q-12 -32 -44 -32t-42 32l-125 378q-2 8 -2 13
q0 16 12 27.5t29 11.5q15 0 25 -8t14 -21l81 -260q5 -17 8.5 -32t8.5 -31q5 15 8.5 29.5t10.5 33.5l92 255q12 34 45 34q32 0 44 -34l93 -254v0z" />
    <glyph glyph-name="x" unicode="x" horiz-adv-x="473" 
d="M239 280l111 153q9 12 17.5 17t18.5 5q19 0 28.5 -10.5t9.5 -24.5q0 -12 -7 -22l-122 -165l130 -177q8 -11 8 -25t-10 -26t-30 -12t-36 22l-121 167l-123 -167q-8 -11 -16.5 -16.5t-20.5 -5.5q-18 0 -27 10.5t-9 24.5q0 13 8 24l131 177l-119 165q-7 10 -7 23q0 14 10 26
t30 12q13 0 20.5 -6t15.5 -16z" />
    <glyph glyph-name="y" unicode="y" horiz-adv-x="479" 
d="M229 164q8 -17 14 -34t13 -34q9 33 21 69l95 259q4 12 13.5 21.5t25.5 9.5q22 0 33 -11.5t11 -27.5q0 -5 -1 -9.5t-3 -9.5l-159 -397q-24 -61 -45 -99.5t-41.5 -61t-41 -31t-44.5 -8.5q-14 0 -28 2t-25.5 7t-19 14.5t-7.5 23.5q0 32 32 32q8 0 17 -2.5t22 -2.5
q29 0 51 24t45 78l10 24l-189 394q-4 8 -4 19q0 17 12 29.5t32 12.5q12 0 22.5 -7t15.5 -18l123 -266v0z" />
    <glyph glyph-name="z" unicode="z" horiz-adv-x="456" 
d="M74 0q-16 0 -28 10t-12 28q0 8 4 16.5t9 13.5l262 307h-224q-16 0 -27 11t-11 27q0 15 11 26t27 11h296q16 0 27.5 -9.5t11.5 -29.5q0 -8 -3.5 -15.5t-8.5 -13.5l-263 -307h239q16 0 27 -11t11 -26q0 -16 -11 -27t-27 -11h-310v0z" />
    <glyph glyph-name="braceleft" unicode="{" horiz-adv-x="335" 
d="M270 -125q45 0 45 -38q0 -17 -12.5 -27t-30.5 -10h-28q-65 0 -99.5 31t-34.5 104v157q0 45 -17.5 66t-40.5 28q-32 10 -32 39q0 16 7 25t25 15q22 8 40 32t18 73v139q0 69 30 105t108 36h26q18 0 29.5 -9.5t11.5 -26.5q0 -19 -11 -29t-29 -10h-8q-43 0 -60 -21t-17 -72
v-142q0 -49 -20.5 -79t-54.5 -35q32 -4 53.5 -30t21.5 -84v-145q0 -50 19 -71t61 -21z" />
    <glyph glyph-name="bar" unicode="|" horiz-adv-x="330" 
d="M205 31q0 -16 -11.5 -27t-28.5 -11t-28.5 11t-11.5 27v631q0 16 11.5 27t28.5 11t28.5 -11t11.5 -27v-631z" />
    <glyph glyph-name="braceright" unicode="}" horiz-adv-x="335" 
d="M63 -200q-18 0 -30.5 10t-12.5 27q0 38 45 38q42 0 61 21t19 71v145q0 58 21.5 84t53.5 30q-34 5 -54.5 35t-20.5 79v142q0 51 -17 72t-60 21h-8q-18 0 -29 10t-11 29q0 17 11.5 26.5t29.5 9.5h26q78 0 108 -36t30 -105v-139q0 -49 18 -73t40 -32q18 -6 25 -15t7 -25
q0 -29 -32 -39q-23 -7 -40.5 -28t-17.5 -66v-157q0 -73 -34.5 -104t-99.5 -31h-28v0z" />
    <glyph glyph-name="asciitilde" unicode="~" horiz-adv-x="592" 
d="M539 360q0 -15 -10 -23q-31 -26 -58.5 -37t-53.5 -11q-30 0 -59.5 11.5t-58 25.5t-56 25.5t-53.5 11.5q-22 0 -41 -9t-39 -26q-11 -9 -22 -9q-13 0 -26 11q-9 9 -9 22q0 14 9 22q32 29 62 42.5t62 13.5q31 0 60.5 -11.5t59 -25t58.5 -25t58 -11.5q17 0 31 7.5t30 18.5
q13 8 23 8q13 0 26 -11q7 -9 7 -20z" />
    <glyph glyph-name="uni00A0" unicode="&#xa0;" horiz-adv-x="225" 
 />
    <glyph glyph-name="exclamdown" unicode="&#xa1;" horiz-adv-x="309" 
d="M198.014 -206.919q0 -16.998 -12.498 -28.9961q-12.499 -11.999 -30.4971 -11.999q-16.9971 0 -29.4961 11.999q-12.498 11.998 -12.498 28.9961v406.95q0 16.998 12.498 29.4961q12.499 12.499 29.4961 12.499q17.998 0 30.4971 -12.499q12.498 -12.498 12.498 -29.4961
v-406.95zM153.02 460q26.9961 0 42.4941 -16.998t15.498 -39.9951q0 -19.998 -15.498 -36.4961t-42.4941 -16.498q-22.998 0 -37.9961 16.498t-14.998 36.4961q0 22.9971 14.998 39.9951t37.9961 16.998z" />
    <glyph glyph-name="cent" unicode="&#xa2;" horiz-adv-x="565" 
d="M486 48q-31 -28 -62 -40.5t-64 -15.5v-77q0 -14 -11 -24.5t-29 -10.5t-29 10.5t-11 24.5v79q-44 7 -79 26.5t-60 49.5t-38.5 69t-13.5 86q0 44 14 83.5t39 70t60.5 51t77.5 27.5v74q0 14 11 24.5t29 10.5t29 -10.5t11 -24.5v-73q29 -3 53.5 -11t49.5 -22q21 -11 21 -34
q0 -11 -5 -18q-11 -18 -33 -18q-11 0 -19 4q-24 13 -48 19.5t-51 6.5q-30 0 -58 -11.5t-49.5 -32.5t-34 -50.5t-12.5 -65.5q0 -37 13 -66.5t35 -50.5t51.5 -32t62.5 -11q27 0 50.5 7t45.5 24q16 13 31 13q13 0 23 -10q11 -10 11 -25q0 -17 -11 -26z" />
    <glyph glyph-name="sterling" unicode="&#xa3;" horiz-adv-x="581" 
d="M38 40q0 15 12 27q38 35 72 49q22 28 37 61t15 74v12t-1 12h-66q-14 0 -23 9.5t-9 23.5t9 23t23 9h47q-8 19 -17.5 37.5t-17.5 39t-13.5 44t-5.5 53.5q0 39 15 74.5t43.5 62t68 42t89.5 15.5q51 0 89 -14t74 -37q20 -13 20 -34q0 -12 -9 -24q-10 -14 -29 -14q-14 0 -28 8
q-28 17 -55 26t-60 9q-29 0 -53 -9.5t-40.5 -26t-25.5 -38t-9 -45.5q0 -28 6 -49.5t15 -41t18.5 -38t17.5 -40.5h131q13 0 22 -9t9 -23t-9 -23.5t-22 -10.5l-119 -3q0 -49 -17 -83.5t-37 -60.5q27 -3 53 -11t52 -17t51.5 -16t51.5 -7q21 0 38.5 5.5t39.5 19.5q13 9 27 9
q18 0 28 -13q9 -11 9 -24q0 -17 -14 -29q-33 -26 -65.5 -37t-64.5 -11q-29 0 -57.5 8t-56.5 18t-56.5 18t-57.5 8q-23 0 -42.5 -8t-39.5 -23q-14 -11 -30 -11q-13 0 -23 10q-10 11 -10 24z" />
    <glyph glyph-name="currency" unicode="&#xa4;" horiz-adv-x="571" 
d="M61 86q-14 0 -24 10t-10 25t10 25l62 64q-20 29 -30.5 63.5t-10.5 71.5q0 76 41 135l-58 60q-10 10 -10 25t10 25q11 11 25 11t25 -11l58 -60q27 20 61 31t75 11t74.5 -11t60.5 -30l63 62q11 11 25 11t25 -11t11 -25t-11 -25l-63 -62q20 -29 31 -64t11 -72
q0 -76 -42 -135l60 -60q11 -11 11 -25t-10 -24t-25 -10t-25 10l-60 59q-27 -20 -61 -31t-75 -11q-42 0 -75.5 11t-60.5 31l-63 -63q-11 -11 -25 -11zM133 345q0 -32 10.5 -60.5t30 -50t47.5 -34t64 -12.5q37 0 65 12.5t47.5 34t29.5 50t10 60.5q0 33 -10.5 61.5t-30 50
t-47.5 33.5t-64 12q-35 0 -63.5 -12.5t-48 -33.5t-30 -49.5t-10.5 -61.5z" />
    <glyph glyph-name="yen" unicode="&#xa5;" horiz-adv-x="567" 
d="M87 129q-14 0 -23 9.5t-9 23.5t9 23t23 9h152v105h-152q-14 0 -23 9.5t-9 23.5t9 23t23 9h114l-162 278q-6 10 -6 22q0 16 11.5 28.5t32.5 12.5q15 0 24 -8t18 -24l166 -293l167 294q7 12 16.5 21.5t25.5 9.5q19 0 29.5 -12t10.5 -27q0 -5 -1 -9.5t-4 -9.5l-167 -283h116
q13 0 22 -9t9 -23t-9 -23.5t-22 -9.5h-154v-105h154q13 0 22 -9t9 -23t-9 -23.5t-22 -9.5h-154v-87q0 -17 -12.5 -29.5t-29.5 -12.5q-18 0 -30.5 12.5t-12.5 29.5v87h-152v0z" />
    <glyph glyph-name="brokenbar" unicode="&#xa6;" horiz-adv-x="330" 
d="M125 662q0 16 11.5 27t28.5 11t28.5 -11t11.5 -27v-184q0 -16 -11.5 -27t-28.5 -11t-28.5 11t-11.5 27v184zM205 38q0 -16 -11.5 -27t-28.5 -11t-28.5 11t-11.5 27v184q0 16 11.5 27t28.5 11t28.5 -11t11.5 -27v-184z" />
    <glyph glyph-name="section" unicode="&#xa7;" horiz-adv-x="524" 
d="M184 -107q11 -8 25.5 -13t34.5 -5q35 0 59 23.5t24 57.5q0 41 -26 67t-63 44q-41 4 -73 19.5t-54 39.5t-34 55.5t-12 67.5q0 63 34.5 110.5t97.5 64.5q-34 19 -58 53t-24 82q0 29 11 55t31.5 45t50.5 30t68 11q42 0 69.5 -10t50.5 -33q10 -10 10 -26t-11 -26t-26 -10
q-16 0 -32 12q-11 8 -25 13t-34 5q-35 0 -59 -23.5t-24 -57.5q0 -41 25.5 -67.5t61.5 -44.5q41 -3 74 -18t56 -39.5t35 -56.5t12 -69q0 -63 -35.5 -110.5t-98.5 -64.5q33 -19 57.5 -52t24.5 -81q0 -29 -11 -55t-31.5 -45t-50.5 -30t-68 -11q-40 0 -69 11.5t-52 34.5
q-11 11 -11 26t11 26q11 10 24 10q15 0 35 -15zM145 249q0 -23 8.5 -43.5t24 -36t37 -24.5t47.5 -9q27 0 48.5 9t36.5 24.5t23.5 36t8.5 43.5t-8.5 43.5t-24 36.5t-37 25t-47.5 9t-47.5 -9t-37 -24.5t-24 -36.5t-8.5 -44z" />
    <glyph glyph-name="dieresis" unicode="&#xa8;" horiz-adv-x="415" 
d="M107 560q-20 0 -33.5 13t-13.5 37q0 21 13.5 33.5t33.5 12.5q17 0 30.5 -12.5t13.5 -33.5q0 -24 -13.5 -37t-30.5 -13zM311 560q-20 0 -34 13t-14 37q0 21 14 33.5t34 12.5q17 0 30.5 -12.5t13.5 -33.5q0 -24 -13.5 -37t-30.5 -13z" />
    <glyph glyph-name="copyright" unicode="&#xa9;" horiz-adv-x="1018" 
d="M75 221q0 91 33 170t91.5 137.5t137.5 92.5t172 34t172 -34t137.5 -92.5t91.5 -137.5t33 -170t-33 -170t-91.5 -137.5t-137.5 -92.5t-172 -34t-172 34t-137.5 92.5t-91.5 137.5t-33 170zM145 220q0 -75 27.5 -141t76 -115.5t115 -78t145.5 -28.5q78 0 145 28.5t115.5 78
t76 115.5t27.5 141t-27.5 141.5t-76 116t-115.5 78.5t-145 29q-79 0 -145.5 -29t-115 -78.5t-76 -116t-27.5 -141.5zM276 225q0 49 17 92t47.5 74.5t72 50t91.5 18.5q45 0 79 -8t67 -27q21 -11 21 -34q0 -11 -5 -18q-11 -18 -33 -18q-11 0 -19 4q-24 13 -48 19.5t-51 6.5
q-30 0 -58 -11.5t-49.5 -32.5t-34 -50.5t-12.5 -65.5q0 -37 13 -66.5t35 -50.5t51.5 -32t62.5 -11q27 0 50.5 7t45.5 24q16 13 31 13q13 0 23 -10q11 -10 11 -25q0 -17 -11 -26q-38 -34 -76 -46t-80 -12q-54 0 -98 16.5t-76 47.5t-49.5 74.5t-17.5 96.5z" />
    <glyph glyph-name="ordfeminine" unicode="&#xaa;" horiz-adv-x="425" 
d="M50 424q0 53 33.5 80.5t92.5 27.5q34 0 60.5 -5.5t48.5 -16.5q0 47 -22 67.5t-62 20.5q-17 0 -31 -2.5t-26 -7.5q-15 -5 -23 -5q-14 0 -22 12q-5 8 -5 14q0 19 23 29q18 9 41.5 14.5t55.5 5.5q29 0 55 -8t45 -24t30 -40t11 -57v-174q0 -14 -10 -24t-26 -10q-14 0 -24 10
t-10 24v17q-17 -21 -45.5 -36t-78.5 -15q-51 0 -81 30.5t-30 72.5zM285 462q-17 8 -40.5 14t-45.5 6q-32 0 -53 -13.5t-21 -37.5q0 -23 19 -37t51 -14q29 0 51 11t39 25v46z" />
    <glyph glyph-name="guillemotleft" unicode="&#xab;" horiz-adv-x="502" 
d="M452 103q8 -10 8 -22q0 -17 -13 -27q-10 -10 -23 -10q-17 0 -26 12l-141 168q-10 13 -10 26t10 25l144 168q9 11 24 11q14 0 25 -10q6 -5 8.5 -11.5t2.5 -13.5q0 -14 -8 -22l-126 -147zM246 103q8 -10 8 -22q0 -17 -13 -27q-10 -10 -23 -10q-17 0 -26 12l-141 168
q-10 13 -10 26t10 25l144 168q9 11 24 11q14 0 25 -10q6 -5 8.5 -11.5t2.5 -13.5q0 -14 -8 -22l-126 -147z" />
    <glyph glyph-name="logicalnot" unicode="&#xac;" horiz-adv-x="592" 
d="M533 226q0 -14 -9.5 -23t-25.5 -9t-25.5 9t-9.5 23v99h-372q-14 0 -23 9.5t-9 25.5t9 25.5t23 9.5h410q14 0 23 -9t9 -23v-137v0z" />
    <glyph glyph-name="uni00AD" unicode="&#xad;" horiz-adv-x="389" 
d="M277 310q15 0 26 -11t11 -27q0 -15 -11 -26t-26 -11h-165q-15 0 -26 11t-11 27q0 15 11 26t26 11h165z" />
    <glyph glyph-name="registered" unicode="&#xae;" horiz-adv-x="618" 
d="M50 497q0 53 20 100t55.5 82t83 55.5t101.5 20.5q53 0 100 -20.5t82 -55.5t55.5 -82t20.5 -100q0 -54 -20.5 -102t-55.5 -83t-82 -55.5t-100 -20.5q-54 0 -101.5 20.5t-83 55.5t-55.5 83t-20 102zM116 497q0 -40 15.5 -75.5t41.5 -62t61.5 -42t75.5 -15.5t75 15.5t61 42
t41 62t15 75.5t-15 75t-41 61t-61 41t-75 15t-75.5 -15t-61.5 -41t-41.5 -61t-15.5 -75zM303 461h-37v-74q0 -11 -8 -19t-20 -8q-11 0 -19 8t-8 19v226q0 11 8 19t19 8h71q59 0 83.5 -25t24.5 -62q0 -29 -17 -51t-43 -30l46 -69q3 -4 4 -8.5t1 -8.5q0 -11 -6.5 -18.5
t-20.5 -7.5q-16 0 -27 19zM305 501q24 0 40.5 14t16.5 37q0 22 -15.5 35t-44.5 13h-36v-99h39z" />
    <glyph glyph-name="macron" unicode="&#xaf;" horiz-adv-x="384" 
d="M292 645q14 0 23 -9.5t9 -23.5t-9 -23t-23 -9h-200q-14 0 -23 9.5t-9 23.5t9 23t23 9h200z" />
    <glyph glyph-name="degree" unicode="&#xb0;" horiz-adv-x="410" 
d="M204 415q-32 0 -60 12t-49 32.5t-33 48.5t-12 61t12 61.5t33 49.5t49 33t60 12t60.5 -11.5t49.5 -31.5t33.5 -48.5t12.5 -61.5t-12.5 -61.5t-33.5 -49.5t-49.5 -33.5t-60.5 -12.5zM205 655q-18 0 -33.5 -7t-27 -18.5t-18 -27t-6.5 -32.5q0 -35 25 -60t60 -25
q17 0 32.5 6.5t27 18t18.5 27t7 33.5q0 35 -25 60t-60 25z" />
    <glyph glyph-name="plusminus" unicode="&#xb1;" horiz-adv-x="592" 
d="M332 322q0 -14 -10.5 -24.5t-26.5 -10.5q-17 0 -27.5 10.5t-10.5 24.5v88h-153q-14 0 -24.5 10.5t-10.5 24.5t10.5 24.5t24.5 10.5h153v156q0 14 10.5 24.5t27.5 10.5q16 0 26.5 -10.5t10.5 -24.5v-156h156q14 0 24.5 -10.5t10.5 -24.5t-10.5 -24.5t-24.5 -10.5h-156v-88
zM488 235q14 0 24.5 -10.5t10.5 -24.5t-10.5 -24.5t-24.5 -10.5h-384q-14 0 -24.5 10.5t-10.5 24.5t10.5 24.5t24.5 10.5h384z" />
    <glyph glyph-name="twosuperior" unicode="&#xb2;" horiz-adv-x="334" 
d="M280 410q12 0 21 -9t9 -21t-9 -21t-21 -9h-224q-14 0 -23 8t-9 24q0 10 7.5 19t19.5 17q27 18 56 39t54 42.5t41 44t16 45.5t-15.5 39t-45.5 16q-17 0 -32 -5.5t-26 -19.5q-17 -21 -33 -21q-8 0 -15 3q-5 2 -11 8.5t-6 17.5q0 9 5 18q14 28 47 43.5t78 15.5
q65 0 96.5 -31t31.5 -76q0 -35 -21 -65.5t-49.5 -54.5t-57.5 -41.5t-46 -25.5h162z" />
    <glyph glyph-name="threesuperior" unicode="&#xb3;" horiz-adv-x="341" 
d="M164 705q56 0 90 -23t34 -65q0 -31 -19.5 -53t-54.5 -31q43 -4 65 -28.5t22 -55.5q0 -24 -11 -43.5t-30.5 -33t-45 -21t-54.5 -7.5q-41 0 -75 13t-59 47q-5 7 -5 16q0 14 12 22q7 5 16 5q13 0 26 -13q30 -32 74 -32q38 0 57.5 15t19.5 38q0 20 -19 33.5t-57 13.5
q-14 0 -21.5 7.5t-7.5 18.5q0 10 7.5 17t19.5 7q29 0 47 14.5t18 36.5q0 21 -17 33t-46 12q-24 0 -41 -5.5t-28 -16.5q-13 -10 -23 -10q-9 0 -16 6q-9 7 -9 18q0 12 10 22q19 19 47.5 31t73.5 12z" />
    <glyph glyph-name="acute" unicode="&#xb4;" horiz-adv-x="288" 
d="M149 697q7 12 24 12q9 0 17 -6l14 -10q11 -9 11 -23q0 -12 -7 -19l-80 -97q-11 -12 -26 -12q-9 0 -17 5q-13 9 -13 26q0 9 5 17z" />
    <glyph glyph-name="mu" unicode="&#xb5;" horiz-adv-x="539" 
d="M392 417q0 16 11.5 27t28.5 11t28.5 -11t11.5 -27v-386q0 -16 -11.5 -27t-28.5 -11t-28.5 11t-11.5 27v33q-23 -29 -64 -51.5t-95 -22.5q-49 0 -86 20v-172q0 -16 -11.5 -27t-28.5 -11t-28.5 11t-11.5 27v579q0 16 11.5 27t28.5 11t28.5 -11t11.5 -27v-217
q0 -64 27 -99.5t89 -35.5q39 0 73.5 20t55.5 47v285z" />
    <glyph glyph-name="mu" unicode="&#x3bc;" horiz-adv-x="539" 
d="M392 417q0 16 11.5 27t28.5 11t28.5 -11t11.5 -27v-386q0 -16 -11.5 -27t-28.5 -11t-28.5 11t-11.5 27v33q-23 -29 -64 -51.5t-95 -22.5q-49 0 -86 20v-172q0 -16 -11.5 -27t-28.5 -11t-28.5 11t-11.5 27v579q0 16 11.5 27t28.5 11t28.5 -11t11.5 -27v-217
q0 -64 27 -99.5t89 -35.5q39 0 73.5 20t55.5 47v285z" />
    <glyph glyph-name="paragraph" unicode="&#xb6;" horiz-adv-x="461" 
d="M96 -118q13 0 25 -6q10 -4 21 -6.5t24 -2.5q28 0 46 9.5t28 26.5t13.5 39t3.5 48v273q-43 0 -81.5 15t-67.5 43t-46 68.5t-17 91.5t15.5 91.5t44 69t67.5 43.5t87 15h136q14 0 25 -11t11 -26q0 -16 -11 -27t-25 -11h-58v-638q0 -94 -39 -144.5t-126 -50.5q-50 0 -89 19
q-9 4 -15.5 13t-6.5 20q0 7 3 15q5 13 13.5 18t18.5 5z" />
    <glyph glyph-name="periodcentered" unicode="&#xb7;" horiz-adv-x="225" 
d="M57 299q0 20 15.5 36.5t41.5 16.5q23 0 38 -16.5t15 -36.5q0 -23 -15 -40t-38 -17q-26 0 -41.5 17t-15.5 40z" />
    <glyph glyph-name="cedilla" unicode="&#xb8;" horiz-adv-x="351" 
d="M190 -43q51 -3 76 -24t25 -56q0 -36 -32.5 -59t-93.5 -23q-29 0 -49 6.5t-35 14.5q-13 6 -13 22q0 6 2 10q5 12 20 12q7 0 15 -3q12 -5 25 -8.5t25 -3.5q24 0 40 10t16 30q0 15 -10 25t-30 10q-10 0 -17 7t-7 17v56h43v-43z" />
    <glyph glyph-name="onesuperior" unicode="&#xb9;" horiz-adv-x="243" 
d="M65 598q-8 -5 -17 -5q-16 0 -23 12q-4 7 -4 14q0 14 15 24l59 41q17 12 27 19t21 7t18 -7t7 -20v-299q0 -15 -10 -24.5t-26 -9.5q-14 0 -24 9.5t-10 24.5v235z" />
    <glyph glyph-name="ordmasculine" unicode="&#xba;" horiz-adv-x="476" 
d="M238 319q-39 0 -72.5 12.5t-58 35t-38.5 53.5t-14 69t14 69t38.5 53.5t58 34.5t72.5 12t72.5 -12t58 -34.5t38.5 -53.5t14 -69t-14 -69t-38.5 -53.5t-58 -35t-72.5 -12.5zM238 593q-45 0 -76.5 -28t-31.5 -76q0 -24 9 -43.5t24 -33t34.5 -21t40.5 -7.5q22 0 41.5 7.5
t34.5 21t23.5 33t8.5 43.5t-8.5 43t-23.5 32.5t-34.5 21t-41.5 7.5z" />
    <glyph glyph-name="guillemotright" unicode="&#xbb;" horiz-adv-x="502" 
d="M257 397q-8 10 -8 22q0 15 13 27q10 8 22 8q14 0 25 -11l144 -168q10 -10 10 -26t-10 -27l-141 -166q-9 -12 -26 -12q-13 0 -23 10q-13 10 -13 27q0 12 8 22l125 147zM48 397q-8 10 -8 22q0 15 13 27q10 8 22 8q14 0 25 -11l144 -168q10 -10 10 -26t-10 -27l-141 -166
q-9 -12 -26 -12q-13 0 -23 10q-13 10 -13 27q0 12 8 22l125 147z" />
    <glyph glyph-name="onequarter" unicode="&#xbc;" horiz-adv-x="678" 
d="M75 598q-8 -5 -17 -5q-16 0 -23 12q-4 7 -4 14q0 14 15 24l59 41q17 12 27 19t21 7t18 -7t7 -20v-299q0 -15 -10 -24.5t-26 -9.5q-14 0 -24 9.5t-10 24.5v235zM102 13q-8 -12 -23 -12q-11 0 -18 6q-11 8 -11 23q0 10 5 16l480 641q7 12 23 12q9 0 17 -6q11 -8 11 -24
q0 -10 -5 -16zM579 31q0 -12 -9 -21.5t-23 -9.5q-15 0 -24 9.5t-9 21.5v48h-168q-14 0 -22 7.5t-8 21.5q0 10 6.5 19t15.5 21l133 179q8 11 15 17t18 6t18 -6t7 -17q0 -12 -9 -24l-127 -169h121v59q0 14 9 23t24 9q14 0 23 -9t9 -23v-59h30q12 0 20.5 -8t8.5 -18
q0 -12 -8.5 -20.5t-20.5 -8.5h-30v-48z" />
    <glyph glyph-name="onehalf" unicode="&#xbd;" horiz-adv-x="653" 
d="M82 598q-8 -5 -17 -5q-16 0 -23 12q-4 7 -4 14q0 14 15 24l59 41q17 12 27 19t21 7t18 -7t7 -20v-299q0 -15 -10 -24.5t-26 -9.5q-14 0 -24 9.5t-10 24.5v235zM83 13q-8 -12 -23 -12q-11 0 -18 6q-11 8 -11 23q0 10 5 16l480 641q7 12 23 12q9 0 17 -6q11 -8 11 -24
q0 -10 -5 -16zM599 60q12 0 21 -9t9 -21t-9 -21t-21 -9h-224q-14 0 -23 8t-9 24q0 10 7.5 19t19.5 17q27 18 56 39t54 42.5t41 44t16 45.5t-15.5 39t-45.5 16q-17 0 -32 -5.5t-26 -19.5q-17 -21 -33 -21q-8 0 -15 3q-5 2 -11 8.5t-6 17.5q0 9 5 18q14 28 47 43.5t78 15.5
q65 0 96.5 -31t31.5 -76q0 -35 -21 -65.5t-49.5 -54.5t-57.5 -41.5t-46 -25.5h162z" />
    <glyph glyph-name="threequarters" unicode="&#xbe;" horiz-adv-x="728" 
d="M174 13q-8 -12 -23 -12q-11 0 -18 6q-11 8 -11 23q0 10 5 16l480 641q7 12 23 12q9 0 17 -6q11 -8 11 -24q0 -10 -5 -16zM629 31q0 -12 -9 -21.5t-23 -9.5q-15 0 -24 9.5t-9 21.5v48h-168q-14 0 -22 7.5t-8 21.5q0 10 6.5 19t15.5 21l133 179q8 11 15 17t18 6t18 -6
t7 -17q0 -12 -9 -24l-127 -169h121v59q0 14 9 23t24 9q14 0 23 -9t9 -23v-59h30q12 0 20.5 -8t8.5 -18q0 -12 -8.5 -20.5t-20.5 -8.5h-30v-48zM158 705q56 0 90 -23t34 -65q0 -31 -19.5 -53t-54.5 -31q43 -4 65 -28.5t22 -55.5q0 -24 -11 -43.5t-30.5 -33t-45 -21
t-54.5 -7.5q-41 0 -75 13t-59 47q-5 7 -5 16q0 14 12 22q7 5 16 5q13 0 26 -13q30 -32 74 -32q38 0 57.5 15t19.5 38q0 20 -19 33.5t-57 13.5q-14 0 -21.5 7.5t-7.5 18.5q0 10 7.5 17t19.5 7q29 0 47 14.5t18 36.5q0 21 -17 33t-46 12q-24 0 -41 -5.5t-28 -16.5
q-13 -10 -23 -10q-9 0 -16 6q-9 7 -9 18q0 12 10 22q19 19 47.5 31t73.5 12z" />
    <glyph glyph-name="questiondown" unicode="&#xbf;" horiz-adv-x="458" 
d="M237.028 248.025v2q0 11.998 6.99902 22.9971t23.9971 12.998h3.99902q16.998 0 25.9971 -9.99805q8.99902 -9.99902 10.999 -23.9971l1.99902 -17.998q1 -5 1 -9.99902v-9.99902q0 -35.9951 -13.498 -60.4922t-33.4961 -43.4951q-19.9971 -18.9971 -43.9941 -35.4951
t-43.9951 -35.4961q-19.9971 -18.9971 -33.4961 -42.9941q-13.498 -23.9971 -13.498 -58.9932q0 -22.9971 8.99902 -42.9951q8.99902 -19.9971 25.4971 -34.9951t38.4951 -23.4971t48.9941 -8.49902q36.9951 0 61.9922 11.498q24.9971 11.499 52.9932 33.4961
q12.999 9.99902 26.9971 9.99902q16.998 0 27.9971 -13.998q7.99805 -9.99902 7.99805 -22.998q0 -15.998 -11.998 -26.9961q-37.9951 -33.9961 -76.9902 -52.4941q-38.9961 -18.4971 -93.9893 -18.4971q-47.9941 0 -85.9893 13.998t-63.9922 37.4951t-39.4951 54.9932
q-13.498 31.4971 -13.498 66.4922q0 45.9941 14.498 77.9902t35.9951 55.9932q21.498 23.9971 46.4951 42.4951t46.4941 36.9951q21.4971 18.498 35.9951 39.9951q14.498 21.498 14.498 52.4941v7.99902zM270.023 460q26.9971 0 42.4951 -16.998t15.498 -39.9951
q0 -19.998 -15.498 -36.4961t-42.4951 -16.498q-22.9971 0 -37.9951 16.498t-14.998 36.4961q0 22.9971 14.998 39.9951t37.9951 16.998z" />
    <glyph glyph-name="Agrave" unicode="&#xc0;" horiz-adv-x="685" 
d="M500 212h-319l-80 -191q-7 -17 -16.5 -22.5t-21.5 -5.5q-20 0 -30 12t-10 27q0 5 1 9t3 9l268 621q7 15 19 24.5t30 9.5t30 -10t18 -24l267 -618q3 -9 3 -17q0 -17 -10.5 -30t-30.5 -13q-14 0 -24.5 7.5t-15.5 20.5zM341 591l-126 -299h252zM203 862q7 15 23 15
q6 0 12 -3l147 -78q7 -4 11.5 -11t4.5 -15q0 -6 -3 -12q-8 -15 -25 -15q-8 0 -12 2l-152 64q-16 6 -16 24q0 7 2 11z" />
    <glyph glyph-name="Aacute" unicode="&#xc1;" horiz-adv-x="685" 
d="M500 212h-319l-80 -191q-7 -17 -16.5 -22.5t-21.5 -5.5q-20 0 -30 12t-10 27q0 5 1 9t3 9l268 621q7 15 19 24.5t30 9.5t30 -10t18 -24l267 -618q3 -9 3 -17q0 -17 -10.5 -30t-30.5 -13q-14 0 -24.5 7.5t-15.5 20.5zM341 591l-126 -299h252zM450 874q6 3 12 3
q16 0 23 -15l8 -18q2 -4 2 -11q0 -18 -16 -24l-152 -64q-6 -2 -10 -2q-18 0 -26 15q-3 6 -3 13q0 17 15 25z" />
    <glyph glyph-name="Acircumflex" unicode="&#xc2;" horiz-adv-x="685" 
d="M500 212h-319l-80 -191q-7 -17 -16.5 -22.5t-21.5 -5.5q-20 0 -30 12t-10 27q0 5 1 9t3 9l268 621q7 15 19 24.5t30 9.5t30 -10t18 -24l267 -618q3 -9 3 -17q0 -17 -10.5 -30t-30.5 -13q-14 0 -24.5 7.5t-15.5 20.5zM341 591l-126 -299h252zM341 811l-115 -65
q-8 -5 -17 -5q-16 0 -25 13q-5 6 -5 16q0 17 15 25l122 72q11 7 25 7q15 0 25 -7l126 -73q14 -8 14 -24q0 -10 -4 -15q-8 -15 -26 -15q-7 0 -14 4z" />
    <glyph glyph-name="Atilde" unicode="&#xc3;" horiz-adv-x="685" 
d="M500 212h-319l-80 -191q-7 -17 -16.5 -22.5t-21.5 -5.5q-20 0 -30 12t-10 27q0 5 1 9t3 9l268 621q7 15 19 24.5t30 9.5t30 -10t18 -24l267 -618q3 -9 3 -17q0 -17 -10.5 -30t-30.5 -13q-14 0 -24.5 7.5t-15.5 20.5zM341 591l-126 -299h252zM524 817q0 -11 -11 -24
q-26 -26 -49.5 -35.5t-49.5 -9.5q-20 0 -38.5 7.5t-36 17t-35.5 17t-38 7.5q-14 0 -26.5 -6.5t-23.5 -14.5q-10 -7 -20 -7q-12 0 -22 10q-7 7 -7 18q0 13 9 21q26 22 48.5 31t44.5 9t41.5 -7.5t37.5 -17t36.5 -17t38.5 -7.5q13 0 25 8.5t26 17.5q13 8 23 8t19 -8q8 -8 8 -18
z" />
    <glyph glyph-name="Adieresis" unicode="&#xc4;" horiz-adv-x="685" 
d="M500 212h-319l-80 -191q-7 -17 -16.5 -22.5t-21.5 -5.5q-20 0 -30 12t-10 27q0 5 1 9t3 9l268 621q7 15 19 24.5t30 9.5t30 -10t18 -24l267 -618q3 -9 3 -17q0 -17 -10.5 -30t-30.5 -13q-14 0 -24.5 7.5t-15.5 20.5zM341 591l-126 -299h252zM173 813q0 21 16 33t39 12
q20 0 36 -12t16 -33q0 -23 -16 -35.5t-36 -12.5q-23 0 -39 12.5t-16 35.5zM405 813q0 21 16.5 33t39.5 12q20 0 35.5 -11.5t15.5 -33.5q0 -23 -15.5 -35.5t-35.5 -12.5q-23 0 -39.5 12.5t-16.5 35.5z" />
    <glyph glyph-name="Aring" unicode="&#xc5;" horiz-adv-x="685" 
d="M101 21q-5 -13 -16 -20.5t-25 -7.5q-17 0 -27 12t-10 27q0 8 3 16l277 648q-37 8 -61 32t-24 64q0 25 10 43t26.5 30t39 17.5t48.5 5.5t49 -5.5t40 -17.5t27 -30t10 -43q0 -39 -23.5 -63.5t-61.5 -32.5l276 -643q3 -9 3 -17q0 -17 -10.5 -30t-30.5 -13q-14 0 -24.5 7.5
t-15.5 20.5l-81 191h-319zM341 591l-126 -299h252zM343 843q-28 0 -46.5 -12t-18.5 -39q0 -28 18.5 -41.5t46.5 -13.5q27 0 46 13.5t19 41.5q0 27 -19 39t-46 12z" />
    <glyph glyph-name="AE" unicode="&#xc6;" horiz-adv-x="951" 
d="M523 0q-17 0 -29.5 12.5t-12.5 29.5v174h-250l-139 -198q-8 -11 -17.5 -18t-23.5 -7q-18 0 -28 11.5t-10 26.5q0 16 10 29l442 615q8 11 21 18t27 7h324q16 0 27.5 -11.5t11.5 -28.5t-11.5 -28.5t-27.5 -11.5h-271v-226h241q16 0 27.5 -11.5t11.5 -28.5t-11.5 -28.5
t-27.5 -11.5h-241v-234h281q16 0 27.5 -11.5t11.5 -28.5t-11.5 -28.5t-27.5 -11.5h-324zM481 571l-194 -275h194v275z" />
    <glyph glyph-name="Ccedilla" unicode="&#xc7;" horiz-adv-x="646" 
d="M566 592q-12 0 -24 6q-59 32 -142 32q-57 0 -105 -20.5t-82.5 -57.5t-53.5 -88.5t-19 -113.5q0 -63 20 -114.5t56 -88t86 -57t111 -20.5q80 0 145 39q11 7 25 7q19 0 30 -14q7 -8 7 -20q0 -10 -5.5 -19t-13.5 -15q-38 -27 -89 -42.5t-107 -15.5v-33q56 -3 81 -24t25 -56
q0 -36 -32.5 -59t-90.5 -23q-35 0 -58 7.5t-40 18.5q-10 7 -10 18q0 9 4 14q7 12 20 12q6 0 12 -3q13 -7 27 -12t27 -5q24 0 40 9.5t16 26.5q0 18 -11.5 28.5t-28.5 10.5q-11 0 -17.5 6.5t-6.5 15.5v50q-70 7 -127.5 35t-98.5 74.5t-63.5 109.5t-22.5 139q0 75 23.5 141
t68.5 114.5t110 76.5t147 28q56 0 103.5 -13.5t80.5 -33.5q21 -14 21 -34q0 -10 -6 -19q-11 -18 -32 -18z" />
    <glyph glyph-name="Egrave" unicode="&#xc8;" horiz-adv-x="575" 
d="M471 80q16 0 27.5 -11.5t11.5 -28.5t-11.5 -28.5t-27.5 -11.5h-324q-17 0 -29.5 12.5t-12.5 29.5v616q0 17 12.5 29.5t29.5 12.5h314q16 0 27.5 -11.5t11.5 -28.5t-11.5 -28.5t-27.5 -11.5h-271v-226h241q16 0 27.5 -11.5t11.5 -28.5t-11.5 -28.5t-27.5 -11.5h-241v-234
h281zM177 862q7 15 23 15q6 0 12 -3l147 -78q7 -4 11.5 -11t4.5 -15q0 -6 -3 -12q-8 -15 -25 -15q-8 0 -12 2l-152 64q-16 6 -16 24q0 7 2 11z" />
    <glyph glyph-name="Eacute" unicode="&#xc9;" horiz-adv-x="575" 
d="M471 80q16 0 27.5 -11.5t11.5 -28.5t-11.5 -28.5t-27.5 -11.5h-324q-17 0 -29.5 12.5t-12.5 29.5v616q0 17 12.5 29.5t29.5 12.5h314q16 0 27.5 -11.5t11.5 -28.5t-11.5 -28.5t-27.5 -11.5h-271v-226h241q16 0 27.5 -11.5t11.5 -28.5t-11.5 -28.5t-27.5 -11.5h-241v-234
h281zM399 874q6 3 12 3q16 0 23 -15l8 -18q2 -4 2 -11q0 -18 -16 -24l-152 -64q-6 -2 -10 -2q-18 0 -26 15q-3 6 -3 13q0 17 15 25z" />
    <glyph glyph-name="Ecircumflex" unicode="&#xca;" horiz-adv-x="575" 
d="M471 80q16 0 27.5 -11.5t11.5 -28.5t-11.5 -28.5t-27.5 -11.5h-324q-17 0 -29.5 12.5t-12.5 29.5v616q0 17 12.5 29.5t29.5 12.5h314q16 0 27.5 -11.5t11.5 -28.5t-11.5 -28.5t-27.5 -11.5h-271v-226h241q16 0 27.5 -11.5t11.5 -28.5t-11.5 -28.5t-27.5 -11.5h-241v-234
h281zM302 811l-115 -65q-8 -5 -17 -5q-16 0 -25 13q-5 6 -5 16q0 17 15 25l122 72q11 7 25 7q15 0 25 -7l126 -73q14 -8 14 -24q0 -10 -4 -15q-8 -15 -26 -15q-7 0 -14 4z" />
    <glyph glyph-name="Edieresis" unicode="&#xcb;" horiz-adv-x="575" 
d="M471 80q16 0 27.5 -11.5t11.5 -28.5t-11.5 -28.5t-27.5 -11.5h-324q-17 0 -29.5 12.5t-12.5 29.5v616q0 17 12.5 29.5t29.5 12.5h314q16 0 27.5 -11.5t11.5 -28.5t-11.5 -28.5t-27.5 -11.5h-271v-226h241q16 0 27.5 -11.5t11.5 -28.5t-11.5 -28.5t-27.5 -11.5h-241v-234
h281zM136 813q0 21 16 33t39 12q20 0 36 -12t16 -33q0 -23 -16 -35.5t-36 -12.5q-23 0 -39 12.5t-16 35.5zM368 813q0 21 16.5 33t39.5 12q20 0 35.5 -11.5t15.5 -33.5q0 -23 -15.5 -35.5t-35.5 -12.5q-23 0 -39.5 12.5t-16.5 35.5z" />
    <glyph glyph-name="Igrave" unicode="&#xcc;" horiz-adv-x="335" 
d="M125 664q0 17 12.5 29t30.5 12q17 0 29.5 -12t12.5 -29v-629q0 -17 -12.5 -29.5t-29.5 -12.5q-18 0 -30.5 12.5t-12.5 29.5v629v0zM18 862q7 15 23 15q6 0 12 -3l147 -78q7 -4 11.5 -11t4.5 -15q0 -6 -3 -12q-8 -15 -25 -15q-8 0 -12 2l-152 64q-16 6 -16 24q0 7 2 11z
" />
    <glyph glyph-name="Iacute" unicode="&#xcd;" horiz-adv-x="335" 
d="M125 664q0 17 12.5 29t30.5 12q17 0 29.5 -12t12.5 -29v-629q0 -17 -12.5 -29.5t-29.5 -12.5q-18 0 -30.5 12.5t-12.5 29.5v629v0zM284 874q6 3 12 3q16 0 23 -15l8 -18q2 -4 2 -11q0 -18 -16 -24l-152 -64q-6 -2 -10 -2q-18 0 -26 15q-3 6 -3 13q0 17 15 25z" />
    <glyph glyph-name="Icircumflex" unicode="&#xce;" horiz-adv-x="335" 
d="M125 664q0 17 12.5 29t30.5 12q17 0 29.5 -12t12.5 -29v-629q0 -17 -12.5 -29.5t-29.5 -12.5q-18 0 -30.5 12.5t-12.5 29.5v629v0zM167 811l-115 -65q-8 -5 -17 -5q-16 0 -25 13q-5 6 -5 16q0 17 15 25l122 72q11 7 25 7q15 0 25 -7l126 -73q14 -8 14 -24q0 -10 -4 -15
q-8 -15 -26 -15q-7 0 -14 4z" />
    <glyph glyph-name="Idieresis" unicode="&#xcf;" horiz-adv-x="335" 
d="M125 664q0 17 12.5 29t30.5 12q17 0 29.5 -12t12.5 -29v-629q0 -17 -12.5 -29.5t-29.5 -12.5q-18 0 -30.5 12.5t-12.5 29.5v629v0zM-1 813q0 21 16 33t39 12q20 0 36 -12t16 -33q0 -23 -16 -35.5t-36 -12.5q-23 0 -39 12.5t-16 35.5zM231 813q0 21 16.5 33t39.5 12
q20 0 35.5 -11.5t15.5 -33.5q0 -23 -15.5 -35.5t-35.5 -12.5q-23 0 -39.5 12.5t-16.5 35.5z" />
    <glyph glyph-name="Eth" unicode="&#xd0;" horiz-adv-x="754" 
d="M704 359q0 -75 -25 -140.5t-75.5 -114.5t-125.5 -77.5t-175 -28.5q-29 0 -64.5 0.5t-76.5 1.5q-17 0 -29.5 12.5t-12.5 29.5v274h-73q-15 0 -26 11t-11 27q0 15 11 26t26 11h73v267q0 17 12 29.5t30 12.5q37 1 76.5 2t72.5 1q105 0 179.5 -28t122 -75.5t69.5 -109.5
t22 -131zM205 80q35 -1 63.5 -1.5t37.5 -0.5q75 0 132.5 21t96.5 58.5t59 89t20 112.5q0 57 -19 105.5t-57.5 83.5t-95.5 55t-133 20q-32 0 -55 -1t-49 -2v-229h152q14 0 25 -11t11 -26q0 -16 -11 -27t-25 -11h-152v-236z" />
    <glyph glyph-name="Ntilde" unicode="&#xd1;" horiz-adv-x="795" 
d="M610 666q0 16 11.5 27.5t28.5 11.5t28.5 -11.5t11.5 -27.5v-630q0 -19 -9.5 -31t-26.5 -12q-16 0 -27 7.5t-24 23.5l-418 527v-519q0 -16 -11.5 -27.5t-28.5 -11.5t-28.5 11.5t-11.5 27.5v626q0 18 9.5 32.5t29.5 14.5q16 0 27.5 -8t26.5 -28l412 -521v518zM585 817
q0 -11 -11 -24q-26 -26 -49.5 -35.5t-49.5 -9.5q-20 0 -38.5 7.5t-36 17t-35.5 17t-38 7.5q-14 0 -26.5 -6.5t-23.5 -14.5q-10 -7 -20 -7q-12 0 -22 10q-7 7 -7 18q0 13 9 21q26 22 48.5 31t44.5 9t41.5 -7.5t37.5 -17t36.5 -17t38.5 -7.5q13 0 25 8.5t26 17.5q13 8 23 8
t19 -8q8 -8 8 -18z" />
    <glyph glyph-name="Ograve" unicode="&#xd2;" horiz-adv-x="814" 
d="M407 -10q-76 0 -141.5 26.5t-113.5 74t-75 113.5t-27 146q0 76 26.5 142t74 114.5t113 76t143.5 27.5q76 0 141.5 -26.5t113.5 -74t75 -113.5t27 -146q0 -78 -27 -144t-75 -114t-113.5 -75t-141.5 -27zM407 630q-57 0 -106 -21t-84.5 -58t-56 -88.5t-20.5 -112.5
q0 -60 20.5 -111t56.5 -88.5t85 -59t105 -21.5q60 0 109 21.5t84.5 59t54.5 89t19 110.5q0 61 -20.5 112.5t-56.5 88.5t-85 58t-105 21zM297 862q7 15 23 15q6 0 12 -3l147 -78q7 -4 11.5 -11t4.5 -15q0 -6 -3 -12q-8 -15 -25 -15q-8 0 -12 2l-152 64q-16 6 -16 24q0 7 2 11
z" />
    <glyph glyph-name="Oacute" unicode="&#xd3;" horiz-adv-x="814" 
d="M407 -10q-76 0 -141.5 26.5t-113.5 74t-75 113.5t-27 146q0 76 26.5 142t74 114.5t113 76t143.5 27.5q76 0 141.5 -26.5t113.5 -74t75 -113.5t27 -146q0 -78 -27 -144t-75 -114t-113.5 -75t-141.5 -27zM407 630q-57 0 -106 -21t-84.5 -58t-56 -88.5t-20.5 -112.5
q0 -60 20.5 -111t56.5 -88.5t85 -59t105 -21.5q60 0 109 21.5t84.5 59t54.5 89t19 110.5q0 61 -20.5 112.5t-56.5 88.5t-85 58t-105 21zM509 874q6 3 12 3q16 0 23 -15l8 -18q2 -4 2 -11q0 -18 -16 -24l-152 -64q-6 -2 -10 -2q-18 0 -26 15q-3 6 -3 13q0 17 15 25z" />
    <glyph glyph-name="Ocircumflex" unicode="&#xd4;" horiz-adv-x="814" 
d="M407 -10q-76 0 -141.5 26.5t-113.5 74t-75 113.5t-27 146q0 76 26.5 142t74 114.5t113 76t143.5 27.5q76 0 141.5 -26.5t113.5 -74t75 -113.5t27 -146q0 -78 -27 -144t-75 -114t-113.5 -75t-141.5 -27zM407 630q-57 0 -106 -21t-84.5 -58t-56 -88.5t-20.5 -112.5
q0 -60 20.5 -111t56.5 -88.5t85 -59t105 -21.5q60 0 109 21.5t84.5 59t54.5 89t19 110.5q0 61 -20.5 112.5t-56.5 88.5t-85 58t-105 21zM409 811l-115 -65q-8 -5 -17 -5q-16 0 -25 13q-5 6 -5 16q0 17 15 25l122 72q11 7 25 7q15 0 25 -7l126 -73q14 -8 14 -24q0 -10 -4 -15
q-8 -15 -26 -15q-7 0 -14 4z" />
    <glyph glyph-name="Otilde" unicode="&#xd5;" horiz-adv-x="814" 
d="M407 -10q-76 0 -141.5 26.5t-113.5 74t-75 113.5t-27 146q0 76 26.5 142t74 114.5t113 76t143.5 27.5q76 0 141.5 -26.5t113.5 -74t75 -113.5t27 -146q0 -78 -27 -144t-75 -114t-113.5 -75t-141.5 -27zM407 630q-57 0 -106 -21t-84.5 -58t-56 -88.5t-20.5 -112.5
q0 -60 20.5 -111t56.5 -88.5t85 -59t105 -21.5q60 0 109 21.5t84.5 59t54.5 89t19 110.5q0 61 -20.5 112.5t-56.5 88.5t-85 58t-105 21zM587 817q0 -11 -11 -24q-26 -26 -49.5 -35.5t-49.5 -9.5q-20 0 -38.5 7.5t-36 17t-35.5 17t-38 7.5q-14 0 -26.5 -6.5t-23.5 -14.5
q-10 -7 -20 -7q-12 0 -22 10q-7 7 -7 18q0 13 9 21q26 22 48.5 31t44.5 9t41.5 -7.5t37.5 -17t36.5 -17t38.5 -7.5q13 0 25 8.5t26 17.5q13 8 23 8t19 -8q8 -8 8 -18z" />
    <glyph glyph-name="Odieresis" unicode="&#xd6;" horiz-adv-x="814" 
d="M407 -10q-76 0 -141.5 26.5t-113.5 74t-75 113.5t-27 146q0 76 26.5 142t74 114.5t113 76t143.5 27.5q76 0 141.5 -26.5t113.5 -74t75 -113.5t27 -146q0 -78 -27 -144t-75 -114t-113.5 -75t-141.5 -27zM407 630q-57 0 -106 -21t-84.5 -58t-56 -88.5t-20.5 -112.5
q0 -60 20.5 -111t56.5 -88.5t85 -59t105 -21.5q60 0 109 21.5t84.5 59t54.5 89t19 110.5q0 61 -20.5 112.5t-56.5 88.5t-85 58t-105 21zM236 813q0 21 16 33t39 12q20 0 36 -12t16 -33q0 -23 -16 -35.5t-36 -12.5q-23 0 -39 12.5t-16 35.5zM468 813q0 21 16.5 33t39.5 12
q20 0 35.5 -11.5t15.5 -33.5q0 -23 -15.5 -35.5t-35.5 -12.5q-23 0 -39.5 12.5t-16.5 35.5z" />
    <glyph glyph-name="multiply" unicode="&#xd7;" horiz-adv-x="521" 
d="M123 189q-14 0 -24 10t-10 25t10 25l111 111l-110 110q-11 11 -11 25t11 25t25 11t25 -11l110 -111l110 111q11 11 25 11q15 0 24 -11q11 -11 11 -25t-11 -25l-110 -110l112 -111q11 -11 11 -25t-11 -25q-10 -10 -25 -10t-25 10l-111 111l-112 -111q-10 -10 -25 -10z" />
    <glyph glyph-name="Oslash" unicode="&#xd8;" horiz-adv-x="814" 
d="M121 46q-13 0 -24 11q-10 10 -10 22q0 14 12 26l22 21q-34 45 -52.5 101.5t-18.5 122.5q0 76 26.5 142t74 114.5t113 76t143.5 27.5q68 0 126.5 -21t104.5 -59l20 19q10 10 24 10t22 -9q10 -9 10 -24q0 -14 -10 -24l-19 -18q38 -46 58.5 -105t20.5 -129q0 -78 -27 -144
t-75 -114t-113.5 -75t-141.5 -27q-71 0 -132 22.5t-108 64.5l-21 -20q-11 -11 -25 -11zM229 138q35 -32 80.5 -50t97.5 -18q60 0 109 21.5t84.5 59t54.5 89t19 110.5q0 50 -14 93t-39 78zM576 570q-34 29 -77 44.5t-92 15.5q-57 0 -106 -21t-84.5 -58t-56 -88.5
t-20.5 -112.5q0 -46 12 -86.5t34 -74.5z" />
    <glyph glyph-name="Ugrave" unicode="&#xd9;" horiz-adv-x="751" 
d="M180 315q0 -115 53 -179.5t152 -64.5q87 0 136.5 59t49.5 179v355q0 17 12.5 29t30.5 12q17 0 29.5 -12t12.5 -29v-372q0 -80 -22 -137t-59.5 -93.5t-86.5 -53.5t-103 -17q-63 0 -116 19.5t-92 58t-60.5 96t-21.5 134.5v365q0 17 12.5 29t30.5 12q17 0 29.5 -12t12.5 -29
v-349v0zM252 862q7 15 23 15q6 0 12 -3l147 -78q7 -4 11.5 -11t4.5 -15q0 -6 -3 -12q-8 -15 -25 -15q-8 0 -12 2l-152 64q-16 6 -16 24q0 7 2 11z" />
    <glyph glyph-name="Uacute" unicode="&#xda;" horiz-adv-x="751" 
d="M180 315q0 -115 53 -179.5t152 -64.5q87 0 136.5 59t49.5 179v355q0 17 12.5 29t30.5 12q17 0 29.5 -12t12.5 -29v-372q0 -80 -22 -137t-59.5 -93.5t-86.5 -53.5t-103 -17q-63 0 -116 19.5t-92 58t-60.5 96t-21.5 134.5v365q0 17 12.5 29t30.5 12q17 0 29.5 -12t12.5 -29
v-349v0zM474 874q6 3 12 3q16 0 23 -15l8 -18q2 -4 2 -11q0 -18 -16 -24l-152 -64q-6 -2 -10 -2q-18 0 -26 15q-3 6 -3 13q0 17 15 25z" />
    <glyph glyph-name="Ucircumflex" unicode="&#xdb;" horiz-adv-x="751" 
d="M180 315q0 -115 53 -179.5t152 -64.5q87 0 136.5 59t49.5 179v355q0 17 12.5 29t30.5 12q17 0 29.5 -12t12.5 -29v-372q0 -80 -22 -137t-59.5 -93.5t-86.5 -53.5t-103 -17q-63 0 -116 19.5t-92 58t-60.5 96t-21.5 134.5v365q0 17 12.5 29t30.5 12q17 0 29.5 -12t12.5 -29
v-349v0zM373 811l-115 -65q-8 -5 -17 -5q-16 0 -25 13q-5 6 -5 16q0 17 15 25l122 72q11 7 25 7q15 0 25 -7l126 -73q14 -8 14 -24q0 -10 -4 -15q-8 -15 -26 -15q-7 0 -14 4z" />
    <glyph glyph-name="Udieresis" unicode="&#xdc;" horiz-adv-x="751" 
d="M180 315q0 -115 53 -179.5t152 -64.5q87 0 136.5 59t49.5 179v355q0 17 12.5 29t30.5 12q17 0 29.5 -12t12.5 -29v-372q0 -80 -22 -137t-59.5 -93.5t-86.5 -53.5t-103 -17q-63 0 -116 19.5t-92 58t-60.5 96t-21.5 134.5v365q0 17 12.5 29t30.5 12q17 0 29.5 -12t12.5 -29
v-349v0zM201 813q0 21 16 33t39 12q20 0 36 -12t16 -33q0 -23 -16 -35.5t-36 -12.5q-23 0 -39 12.5t-16 35.5zM433 813q0 21 16.5 33t39.5 12q20 0 35.5 -11.5t15.5 -33.5q0 -23 -15.5 -35.5t-35.5 -12.5q-23 0 -39.5 12.5t-16.5 35.5z" />
    <glyph glyph-name="Yacute" unicode="&#xdd;" horiz-adv-x="584" 
d="M28 664q0 17 11.5 29t31.5 12q14 0 23 -7t19 -24l180 -294l181 294q9 15 19.5 23t24.5 8q19 0 28.5 -11t9.5 -25q0 -11 -7 -23l-217 -346v-265q0 -17 -12.5 -29.5t-29.5 -12.5q-18 0 -30.5 12.5t-12.5 29.5v265l-212 340q-7 11 -7 24zM393 874q6 3 12 3q16 0 23 -15
l8 -18q2 -4 2 -11q0 -18 -16 -24l-152 -64q-6 -2 -10 -2q-18 0 -26 15q-3 6 -3 13q0 17 15 25z" />
    <glyph glyph-name="Thorn" unicode="&#xde;" horiz-adv-x="597" 
d="M190 595q9 0 22.5 0.5t28 0.5t27 0.5t20.5 0.5q75 0 125 -18.5t79.5 -49t42 -69.5t12.5 -80q0 -43 -15.5 -82.5t-46.5 -70t-78.5 -49t-111.5 -18.5q-21 0 -50 1t-55 3v-129q0 -17 -12.5 -29.5t-29.5 -12.5q-18 0 -30.5 12.5t-12.5 29.5v629q0 17 12.5 29t30.5 12
q17 0 29.5 -12t12.5 -29v-69zM190 245q26 -2 51 -3.5t51 -1.5q78 0 121.5 37.5t43.5 103.5q0 63 -40.5 99.5t-127.5 36.5q-10 0 -23.5 -0.5t-27.5 -1t-26.5 -1t-21.5 -0.5v-269z" />
    <glyph glyph-name="germandbls" unicode="&#xdf;" horiz-adv-x="546" 
d="M234 25q-14 13 -14 32q0 14 9.5 23.5t22.5 9.5q14 0 22.5 -3.5t16 -8t17 -8t25.5 -3.5q35 0 61.5 23t26.5 66q0 27 -13.5 46.5t-34 36t-44 31t-44 31.5t-34 38t-13.5 51q0 36 14.5 59t32.5 41.5t32.5 36.5t14.5 44q0 29 -24 47.5t-56 18.5q-51 0 -74 -32.5t-23 -104.5
v-469q0 -16 -11.5 -27t-28.5 -11t-28.5 11t-11.5 27v479q0 105 49.5 153.5t138.5 48.5q33 0 61 -9.5t49 -27t32.5 -40.5t11.5 -50q0 -37 -14.5 -59.5t-32.5 -40.5t-32.5 -35.5t-14.5 -44.5q0 -26 13.5 -44t34 -33t44 -29t44 -33.5t34 -46t13.5 -65.5q0 -34 -11.5 -63.5
t-32.5 -51.5t-50.5 -34.5t-64.5 -12.5q-37 0 -64.5 7t-48.5 26z" />
    <glyph glyph-name="agrave" unicode="&#xe0;" horiz-adv-x="460" 
d="M40 132q0 34 13 61t35.5 45t54 27.5t67.5 9.5q26 0 57.5 -6t54.5 -23q0 31 -3.5 57.5t-14 45t-31 29t-53.5 10.5q-25 0 -46 -4.5t-44 -13.5q-8 -3 -15 -3q-22 0 -31 20q-3 7 -3 14q0 11 5.5 19.5t14.5 12.5q35 14 65.5 20.5t58.5 6.5q96 0 134.5 -48t38.5 -136v-248
q0 -14 -10.5 -24.5t-27.5 -10.5t-27.5 10.5t-10.5 24.5v30q-20 -26 -54 -45.5t-90 -19.5q-62 0 -100 36.5t-38 102.5zM322 180q-42 30 -101 30q-18 0 -35.5 -4.5t-31 -13.5t-21.5 -23t-8 -33q0 -32 21 -51.5t60 -19.5q44 0 71.5 19t44.5 39v57zM282 591q6 -8 6 -18
q0 -15 -12 -25q-8 -5 -18 -5q-8 0 -15.5 3t-12.5 9l-79 94q-7 8 -7 20q0 14 11 23l13 10q7 6 18 6q15 0 25 -13z" />
    <glyph glyph-name="aacute" unicode="&#xe1;" horiz-adv-x="460" 
d="M40 132q0 34 13 61t35.5 45t54 27.5t67.5 9.5q26 0 57.5 -6t54.5 -23q0 31 -3.5 57.5t-14 45t-31 29t-53.5 10.5q-25 0 -46 -4.5t-44 -13.5q-8 -3 -15 -3q-22 0 -31 20q-3 7 -3 14q0 11 5.5 19.5t14.5 12.5q35 14 65.5 20.5t58.5 6.5q96 0 134.5 -48t38.5 -136v-248
q0 -14 -10.5 -24.5t-27.5 -10.5t-27.5 10.5t-10.5 24.5v30q-20 -26 -54 -45.5t-90 -19.5q-62 0 -100 36.5t-38 102.5zM322 180q-42 30 -101 30q-18 0 -35.5 -4.5t-31 -13.5t-21.5 -23t-8 -33q0 -32 21 -51.5t60 -19.5q44 0 71.5 19t44.5 39v57zM256 697q7 12 24 12
q9 0 17 -6l14 -10q11 -9 11 -23q0 -12 -7 -19l-80 -97q-11 -12 -26 -12q-9 0 -17 5q-13 9 -13 26q0 9 5 17z" />
    <glyph glyph-name="acircumflex" unicode="&#xe2;" horiz-adv-x="460" 
d="M40 132q0 34 13 61t35.5 45t54 27.5t67.5 9.5q26 0 57.5 -6t54.5 -23q0 31 -3.5 57.5t-14 45t-31 29t-53.5 10.5q-25 0 -46 -4.5t-44 -13.5q-8 -3 -15 -3q-22 0 -31 20q-3 7 -3 14q0 11 5.5 19.5t14.5 12.5q35 14 65.5 20.5t58.5 6.5q96 0 134.5 -48t38.5 -136v-248
q0 -14 -10.5 -24.5t-27.5 -10.5t-27.5 10.5t-10.5 24.5v30q-20 -26 -54 -45.5t-90 -19.5q-62 0 -100 36.5t-38 102.5zM322 180q-42 30 -101 30q-18 0 -35.5 -4.5t-31 -13.5t-21.5 -23t-8 -33q0 -32 21 -51.5t60 -19.5q44 0 71.5 19t44.5 39v57zM148 547q-10 -8 -21 -8
q-12 0 -22 10q-8 8 -8 20q0 14 9 23l102 94q9 9 23 9t23 -9l99 -94q10 -10 10 -23q0 -12 -9 -21q-10 -10 -23 -10q-11 0 -21 8l-81 71z" />
    <glyph glyph-name="atilde" unicode="&#xe3;" horiz-adv-x="460" 
d="M40 132q0 34 13 61t35.5 45t54 27.5t67.5 9.5q26 0 57.5 -6t54.5 -23q0 31 -3.5 57.5t-14 45t-31 29t-53.5 10.5q-25 0 -46 -4.5t-44 -13.5q-8 -3 -15 -3q-22 0 -31 20q-3 7 -3 14q0 11 5.5 19.5t14.5 12.5q35 14 65.5 20.5t58.5 6.5q96 0 134.5 -48t38.5 -136v-248
q0 -14 -10.5 -24.5t-27.5 -10.5t-27.5 10.5t-10.5 24.5v30q-20 -26 -54 -45.5t-90 -19.5q-62 0 -100 36.5t-38 102.5zM322 180q-42 30 -101 30q-18 0 -35.5 -4.5t-31 -13.5t-21.5 -23t-8 -33q0 -32 21 -51.5t60 -19.5q44 0 71.5 19t44.5 39v57zM384 614q0 -13 -8 -20
q-28 -24 -50.5 -34.5t-42.5 -10.5q-17 0 -31.5 6.5t-28.5 15t-28 15t-31 6.5q-11 0 -23 -7.5t-26 -16.5q-11 -6 -20 -6q-10 0 -19 9q-5 7 -5 14q0 13 13 25q26 22 46 30.5t41 8.5q18 0 33 -6.5t29 -14.5t28 -14.5t29 -6.5q14 0 25.5 8t25.5 18q7 6 17 6q11 0 21 -10
q5 -5 5 -15z" />
    <glyph glyph-name="adieresis" unicode="&#xe4;" horiz-adv-x="460" 
d="M40 132q0 34 13 61t35.5 45t54 27.5t67.5 9.5q26 0 57.5 -6t54.5 -23q0 31 -3.5 57.5t-14 45t-31 29t-53.5 10.5q-25 0 -46 -4.5t-44 -13.5q-8 -3 -15 -3q-22 0 -31 20q-3 7 -3 14q0 11 5.5 19.5t14.5 12.5q35 14 65.5 20.5t58.5 6.5q96 0 134.5 -48t38.5 -136v-248
q0 -14 -10.5 -24.5t-27.5 -10.5t-27.5 10.5t-10.5 24.5v30q-20 -26 -54 -45.5t-90 -19.5q-62 0 -100 36.5t-38 102.5zM322 180q-42 30 -101 30q-18 0 -35.5 -4.5t-31 -13.5t-21.5 -23t-8 -33q0 -32 21 -51.5t60 -19.5q44 0 71.5 19t44.5 39v57zM130 560q-20 0 -33.5 13
t-13.5 37q0 21 13.5 33.5t33.5 12.5q17 0 30.5 -12.5t13.5 -33.5q0 -24 -13.5 -37t-30.5 -13zM334 560q-20 0 -34 13t-14 37q0 21 14 33.5t34 12.5q17 0 30.5 -12.5t13.5 -33.5q0 -24 -13.5 -37t-30.5 -13z" />
    <glyph glyph-name="aring" unicode="&#xe5;" horiz-adv-x="460" 
d="M40 132q0 34 13 61t35.5 45t54 27.5t67.5 9.5q26 0 57.5 -6t54.5 -23q0 31 -3.5 57.5t-14 45t-31 29t-53.5 10.5q-25 0 -46 -4.5t-44 -13.5q-8 -3 -15 -3q-22 0 -31 20q-3 7 -3 14q0 11 5.5 19.5t14.5 12.5q35 14 65.5 20.5t58.5 6.5q96 0 134.5 -48t38.5 -136v-248
q0 -14 -10.5 -24.5t-27.5 -10.5t-27.5 10.5t-10.5 24.5v30q-20 -26 -54 -45.5t-90 -19.5q-62 0 -100 36.5t-38 102.5zM322 180q-42 30 -101 30q-18 0 -35.5 -4.5t-31 -13.5t-21.5 -23t-8 -33q0 -32 21 -51.5t60 -19.5q44 0 71.5 19t44.5 39v57zM230 503q-24 0 -45 8.5
t-36.5 23.5t-24 35t-8.5 43t8.5 43t24 35t36.5 24t45 9q25 0 46 -9t36.5 -24t24.5 -35t9 -43t-9 -43t-24.5 -35t-36.5 -23.5t-46 -8.5zM231 679q-27 0 -45 -19t-18 -46q0 -28 18 -47t45 -19t45 19t18 47q0 27 -18 46t-45 19z" />
    <glyph glyph-name="ae" unicode="&#xe6;" horiz-adv-x="778" 
d="M655 265q-3 56 -37 88t-93 32q-42 0 -75.5 -18t-53.5 -51q1 -9 1.5 -19t0.5 -21v-11h257zM318 196q-25 7 -46.5 10.5t-50.5 3.5q-18 0 -35.5 -4.5t-31 -13.5t-21.5 -23t-8 -33q0 -32 23 -50t58 -18q44 0 69.5 17.5t42.5 37.5v73zM194 -7q-74 0 -114 36.5t-40 102.5
q0 34 13 61t35.5 45t54 27.5t67.5 9.5q13 0 28.5 -1t30.5 -3t28 -4.5t21 -5.5v16q0 53 -21.5 82t-76.5 29q-25 0 -46 -4.5t-44 -13.5q-6 -3 -14 -3q-10 0 -19 5.5t-13 15.5q-3 7 -3 14q0 22 19 30q35 15 66 21.5t59 6.5q54 0 88 -15t54 -44q29 27 70 43t92 16q43 0 81.5 -15
t66.5 -42t44.5 -65t16.5 -84v-10.5t-1 -10.5q-1 -12 -11.5 -22.5t-23.5 -10.5h-304v-62q21 -35 57 -54t89 -19q33 0 59 6.5t49 19.5q6 3 11.5 5t11.5 2q16 0 27 -14q6 -8 6 -18q0 -17 -13 -27q-38 -26 -76.5 -37.5t-80.5 -11.5q-58 0 -103.5 18.5t-77.5 51.5
q-42 -38 -81.5 -52.5t-81.5 -14.5z" />
    <glyph glyph-name="ccedilla" unicode="&#xe7;" horiz-adv-x="477" 
d="M380 359q-24 13 -48 19.5t-51 6.5q-30 0 -58 -11.5t-49.5 -32.5t-34 -50.5t-12.5 -65.5q0 -37 13 -66.5t35 -50.5t51.5 -32t62.5 -11q27 0 50.5 7t45.5 24q16 13 31 13q13 0 23 -10q11 -10 11 -25q0 -17 -11 -26q-36 -32 -72.5 -44.5t-76.5 -13.5v-33q51 -3 76 -24
t25 -56q0 -36 -32.5 -59t-93.5 -23q-29 0 -49 6.5t-35 14.5q-13 6 -13 22q0 6 2 10q5 12 20 12q7 0 15 -3q12 -5 25 -8.5t25 -3.5q24 0 40 10t16 30q0 15 -10 25t-30 10q-10 0 -17 7t-7 17v48q-46 5 -84 24t-65 49t-41.5 70.5t-14.5 89.5t17 92t47.5 74.5t72 50t91.5 18.5
q45 0 79 -8t67 -27q21 -11 21 -34q0 -11 -5 -18q-11 -18 -33 -18q-11 0 -19 4z" />
    <glyph glyph-name="egrave" unicode="&#xe8;" horiz-adv-x="525" 
d="M400 265q-3 56 -37 88t-93 32q-62 0 -99 -34t-44 -86h273zM483 254v-11.5t-1 -10.5q-1 -12 -11.5 -22t-22.5 -10h-316q5 -64 48 -99.5t109 -35.5q34 0 60.5 6.5t49.5 20.5q10 6 22 6q15 0 27 -13q6 -8 6 -18q0 -8 -3 -15.5t-9 -11.5q-38 -27 -77.5 -38.5t-81.5 -11.5
q-55 0 -99.5 16.5t-76 47.5t-48.5 74.5t-17 96.5q0 49 15.5 92t45 74.5t72.5 50t99 18.5q43 0 81.5 -15t66.5 -42t44.5 -65t16.5 -84zM317 591q6 -8 6 -18q0 -15 -12 -25q-8 -5 -18 -5q-8 0 -15.5 3t-12.5 9l-79 94q-7 8 -7 20q0 14 11 23l13 10q7 6 18 6q15 0 25 -13z" />
    <glyph glyph-name="eacute" unicode="&#xe9;" horiz-adv-x="525" 
d="M400 265q-3 56 -37 88t-93 32q-62 0 -99 -34t-44 -86h273zM483 254v-11.5t-1 -10.5q-1 -12 -11.5 -22t-22.5 -10h-316q5 -64 48 -99.5t109 -35.5q34 0 60.5 6.5t49.5 20.5q10 6 22 6q15 0 27 -13q6 -8 6 -18q0 -8 -3 -15.5t-9 -11.5q-38 -27 -77.5 -38.5t-81.5 -11.5
q-55 0 -99.5 16.5t-76 47.5t-48.5 74.5t-17 96.5q0 49 15.5 92t45 74.5t72.5 50t99 18.5q43 0 81.5 -15t66.5 -42t44.5 -65t16.5 -84zM311 697q7 12 24 12q9 0 17 -6l14 -10q11 -9 11 -23q0 -12 -7 -19l-80 -97q-11 -12 -26 -12q-9 0 -17 5q-13 9 -13 26q0 9 5 17z" />
    <glyph glyph-name="ecircumflex" unicode="&#xea;" horiz-adv-x="525" 
d="M400 265q-3 56 -37 88t-93 32q-62 0 -99 -34t-44 -86h273zM483 254v-11.5t-1 -10.5q-1 -12 -11.5 -22t-22.5 -10h-316q5 -64 48 -99.5t109 -35.5q34 0 60.5 6.5t49.5 20.5q10 6 22 6q15 0 27 -13q6 -8 6 -18q0 -8 -3 -15.5t-9 -11.5q-38 -27 -77.5 -38.5t-81.5 -11.5
q-55 0 -99.5 16.5t-76 47.5t-48.5 74.5t-17 96.5q0 49 15.5 92t45 74.5t72.5 50t99 18.5q43 0 81.5 -15t66.5 -42t44.5 -65t16.5 -84zM188 547q-10 -8 -21 -8q-12 0 -22 10q-8 8 -8 20q0 14 9 23l102 94q9 9 23 9t23 -9l99 -94q10 -10 10 -23q0 -12 -9 -21q-10 -10 -23 -10
q-11 0 -21 8l-81 71z" />
    <glyph glyph-name="edieresis" unicode="&#xeb;" horiz-adv-x="525" 
d="M400 265q-3 56 -37 88t-93 32q-62 0 -99 -34t-44 -86h273zM483 254v-11.5t-1 -10.5q-1 -12 -11.5 -22t-22.5 -10h-316q5 -64 48 -99.5t109 -35.5q34 0 60.5 6.5t49.5 20.5q10 6 22 6q15 0 27 -13q6 -8 6 -18q0 -8 -3 -15.5t-9 -11.5q-38 -27 -77.5 -38.5t-81.5 -11.5
q-55 0 -99.5 16.5t-76 47.5t-48.5 74.5t-17 96.5q0 49 15.5 92t45 74.5t72.5 50t99 18.5q43 0 81.5 -15t66.5 -42t44.5 -65t16.5 -84zM166 560q-20 0 -33.5 13t-13.5 37q0 21 13.5 33.5t33.5 12.5q17 0 30.5 -12.5t13.5 -33.5q0 -24 -13.5 -37t-30.5 -13zM370 560
q-20 0 -34 13t-14 37q0 21 14 33.5t34 12.5q17 0 30.5 -12.5t13.5 -33.5q0 -24 -13.5 -37t-30.5 -13z" />
    <glyph glyph-name="igrave" unicode="&#xec;" horiz-adv-x="268" 
d="M174 31q0 -16 -11.5 -27t-28.5 -11t-28.5 11t-11.5 27v386q0 16 11.5 27t28.5 11t28.5 -11t11.5 -27v-386zM159 591q6 -8 6 -18q0 -15 -12 -25q-8 -5 -18 -5q-8 0 -15.5 3t-12.5 9l-79 94q-7 8 -7 20q0 14 11 23l13 10q7 6 18 6q15 0 25 -13z" />
    <glyph glyph-name="iacute" unicode="&#xed;" horiz-adv-x="268" 
d="M174 31q0 -16 -11.5 -27t-28.5 -11t-28.5 11t-11.5 27v386q0 16 11.5 27t28.5 11t28.5 -11t11.5 -27v-386zM167 697q7 12 24 12q9 0 17 -6l14 -10q11 -9 11 -23q0 -12 -7 -19l-80 -97q-11 -12 -26 -12q-9 0 -17 5q-13 9 -13 26q0 9 5 17z" />
    <glyph glyph-name="icircumflex" unicode="&#xee;" horiz-adv-x="268" 
d="M174 31q0 -16 -11.5 -27t-28.5 -11t-28.5 11t-11.5 27v386q0 16 11.5 27t28.5 11t28.5 -11t11.5 -27v-386zM54 547q-10 -8 -21 -8q-12 0 -22 10q-8 8 -8 20q0 14 9 23l102 94q9 9 23 9t23 -9l99 -94q10 -10 10 -23q0 -12 -9 -21q-10 -10 -23 -10q-11 0 -21 8l-81 71z" />
    <glyph glyph-name="idieresis" unicode="&#xef;" horiz-adv-x="268" 
d="M174 31q0 -16 -11.5 -27t-28.5 -11t-28.5 11t-11.5 27v386q0 16 11.5 27t28.5 11t28.5 -11t11.5 -27v-386zM35 560q-20 0 -33.5 13t-13.5 37q0 21 13.5 33.5t33.5 12.5q17 0 30.5 -12.5t13.5 -33.5q0 -24 -13.5 -37t-30.5 -13zM239 560q-20 0 -34 13t-14 37q0 21 14 33.5
t34 12.5q17 0 30.5 -12.5t13.5 -33.5q0 -24 -13.5 -37t-30.5 -13z" />
    <glyph glyph-name="eth" unicode="&#xf0;" 
d="M42 225q0 51 17 94t48.5 74.5t76 49t98.5 17.5q44 0 79.5 -21.5t55.5 -57.5q-12 52 -36 98.5t-57 86.5l-93 -38q-8 -3 -15 -3q-23 0 -34 23q-3 7 -3 14q0 12 7 20.5t17 12.5l66 28q-17 16 -29.5 25t-26.5 19q-14 9 -14 26q0 9 5 17q9 14 26 14q9 0 17 -5
q30 -17 53.5 -34.5t39.5 -31.5l76 32q7 3 16 3q10 0 19 -5t14 -16q3 -8 3 -14q0 -12 -7 -21.5t-17 -13.5l-48 -21q30 -36 53.5 -77t39.5 -84.5t24.5 -88t8.5 -87.5q0 -63 -17.5 -113.5t-49 -85t-75.5 -53t-98 -18.5t-98.5 17.5t-76 49t-48.5 74.5t-17 94zM127 225
q0 -35 11.5 -64.5t32 -50.5t49 -33t62.5 -12q69 0 112 49.5t43 137.5v13q-5 23 -18 44.5t-32.5 38.5t-46 27t-58.5 10q-33 0 -61.5 -11.5t-49 -32.5t-32.5 -50.5t-12 -65.5z" />
    <glyph glyph-name="ntilde" unicode="&#xf1;" horiz-adv-x="558" 
d="M152 31q0 -16 -11.5 -27t-28.5 -11t-28.5 11t-11.5 27v386q0 16 11.5 27t28.5 11t28.5 -11t11.5 -27v-22q23 26 62.5 44.5t84.5 18.5q88 0 137.5 -46t49.5 -152v-229q0 -16 -11.5 -27t-28.5 -11t-28.5 11t-11.5 27v214q0 71 -32 104.5t-95 33.5q-38 0 -71.5 -16.5
t-55.5 -41.5v-294zM429 614q0 -13 -8 -20q-28 -24 -50.5 -34.5t-42.5 -10.5q-17 0 -31.5 6.5t-28.5 15t-28 15t-31 6.5q-11 0 -23 -7.5t-26 -16.5q-11 -6 -20 -6q-10 0 -19 9q-5 7 -5 14q0 13 13 25q26 22 46 30.5t41 8.5q18 0 33 -6.5t29 -14.5t28 -14.5t29 -6.5
q14 0 25.5 8t25.5 18q7 6 17 6q11 0 21 -10q5 -5 5 -15z" />
    <glyph glyph-name="ograve" unicode="&#xf2;" 
d="M42 225q0 51 17 94t48.5 74.5t76 49t98.5 17.5t98 -17.5t75.5 -49t49 -74.5t17.5 -94t-17.5 -94t-49 -74.5t-75.5 -49t-98 -17.5t-98.5 17.5t-76 49t-48.5 74.5t-17 94zM127 225q0 -35 11.5 -64.5t32 -50.5t49 -33t62.5 -12t62.5 11.5t49 32.5t32 50.5t11.5 65.5
q0 35 -11.5 64.5t-32 50.5t-49 33t-62.5 12q-33 0 -61.5 -11.5t-49 -32.5t-32.5 -50.5t-12 -65.5zM321 591q6 -8 6 -18q0 -15 -12 -25q-8 -5 -18 -5q-8 0 -15.5 3t-12.5 9l-79 94q-7 8 -7 20q0 14 11 23l13 10q7 6 18 6q15 0 25 -13z" />
    <glyph glyph-name="oacute" unicode="&#xf3;" 
d="M42 225q0 51 17 94t48.5 74.5t76 49t98.5 17.5t98 -17.5t75.5 -49t49 -74.5t17.5 -94t-17.5 -94t-49 -74.5t-75.5 -49t-98 -17.5t-98.5 17.5t-76 49t-48.5 74.5t-17 94zM127 225q0 -35 11.5 -64.5t32 -50.5t49 -33t62.5 -12t62.5 11.5t49 32.5t32 50.5t11.5 65.5
q0 35 -11.5 64.5t-32 50.5t-49 33t-62.5 12q-33 0 -61.5 -11.5t-49 -32.5t-32.5 -50.5t-12 -65.5zM315 697q7 12 24 12q9 0 17 -6l14 -10q11 -9 11 -23q0 -12 -7 -19l-80 -97q-11 -12 -26 -12q-9 0 -17 5q-13 9 -13 26q0 9 5 17z" />
    <glyph glyph-name="ocircumflex" unicode="&#xf4;" 
d="M42 225q0 51 17 94t48.5 74.5t76 49t98.5 17.5t98 -17.5t75.5 -49t49 -74.5t17.5 -94t-17.5 -94t-49 -74.5t-75.5 -49t-98 -17.5t-98.5 17.5t-76 49t-48.5 74.5t-17 94zM127 225q0 -35 11.5 -64.5t32 -50.5t49 -33t62.5 -12t62.5 11.5t49 32.5t32 50.5t11.5 65.5
q0 35 -11.5 64.5t-32 50.5t-49 33t-62.5 12q-33 0 -61.5 -11.5t-49 -32.5t-32.5 -50.5t-12 -65.5zM201 547q-10 -8 -21 -8q-12 0 -22 10q-8 8 -8 20q0 14 9 23l102 94q9 9 23 9t23 -9l99 -94q10 -10 10 -23q0 -12 -9 -21q-10 -10 -23 -10q-11 0 -21 8l-81 71z" />
    <glyph glyph-name="otilde" unicode="&#xf5;" 
d="M42 225q0 51 17 94t48.5 74.5t76 49t98.5 17.5t98 -17.5t75.5 -49t49 -74.5t17.5 -94t-17.5 -94t-49 -74.5t-75.5 -49t-98 -17.5t-98.5 17.5t-76 49t-48.5 74.5t-17 94zM127 225q0 -35 11.5 -64.5t32 -50.5t49 -33t62.5 -12t62.5 11.5t49 32.5t32 50.5t11.5 65.5
q0 35 -11.5 64.5t-32 50.5t-49 33t-62.5 12q-33 0 -61.5 -11.5t-49 -32.5t-32.5 -50.5t-12 -65.5zM437 614q0 -13 -8 -20q-28 -24 -50.5 -34.5t-42.5 -10.5q-17 0 -31.5 6.5t-28.5 15t-28 15t-31 6.5q-11 0 -23 -7.5t-26 -16.5q-11 -6 -20 -6q-10 0 -19 9q-5 7 -5 14
q0 13 13 25q26 22 46 30.5t41 8.5q18 0 33 -6.5t29 -14.5t28 -14.5t29 -6.5q14 0 25.5 8t25.5 18q7 6 17 6q11 0 21 -10q5 -5 5 -15z" />
    <glyph glyph-name="odieresis" unicode="&#xf6;" 
d="M42 225q0 51 17 94t48.5 74.5t76 49t98.5 17.5t98 -17.5t75.5 -49t49 -74.5t17.5 -94t-17.5 -94t-49 -74.5t-75.5 -49t-98 -17.5t-98.5 17.5t-76 49t-48.5 74.5t-17 94zM127 225q0 -35 11.5 -64.5t32 -50.5t49 -33t62.5 -12t62.5 11.5t49 32.5t32 50.5t11.5 65.5
q0 35 -11.5 64.5t-32 50.5t-49 33t-62.5 12q-33 0 -61.5 -11.5t-49 -32.5t-32.5 -50.5t-12 -65.5zM186 560q-20 0 -33.5 13t-13.5 37q0 21 13.5 33.5t33.5 12.5q17 0 30.5 -12.5t13.5 -33.5q0 -24 -13.5 -37t-30.5 -13zM390 560q-20 0 -34 13t-14 37q0 21 14 33.5t34 12.5
q17 0 30.5 -12.5t13.5 -33.5q0 -24 -13.5 -37t-30.5 -13z" />
    <glyph glyph-name="divide" unicode="&#xf7;" horiz-adv-x="592" 
d="M246 564q0 17 13 32.5t37 15.5q23 0 36 -15.5t13 -32.5q0 -20 -13 -35.5t-36 -15.5q-24 0 -37 15.5t-13 35.5zM246 157q0 17 13 32t37 15q22 0 35.5 -15t13.5 -32q0 -20 -13 -35.5t-36 -15.5q-24 0 -37 15.5t-13 35.5zM488 395q14 0 24.5 -10.5t10.5 -24.5t-10.5 -24.5
t-24.5 -10.5h-384q-14 0 -24.5 10.5t-10.5 24.5t10.5 24.5t24.5 10.5h384z" />
    <glyph glyph-name="oslash" unicode="&#xf8;" horiz-adv-x="540" 
d="M73 -1q-15 0 -25 11q-9 10 -9 22q0 14 13 27l23 22q-22 29 -33.5 65.5t-11.5 78.5q0 51 17 94t48.5 74.5t76 49t98.5 17.5q46 0 84.5 -13t68.5 -36l23 22q8 8 21 8q16 0 26 -11q8 -10 8 -21q0 -14 -11 -25l-22 -21q42 -59 42 -138q0 -51 -17.5 -94t-49 -74.5t-75.5 -49
t-98 -17.5q-44 0 -80.5 11.5t-65.5 31.5l-27 -25q-9 -9 -24 -9zM364 355q-41 30 -94 30q-33 0 -61.5 -11.5t-49 -32.5t-32.5 -50.5t-12 -65.5q0 -50 21 -86zM183 90q37 -25 87 -25q34 0 62.5 11.5t49 32.5t32 50.5t11.5 65.5q0 22 -5 42t-13 37z" />
    <glyph glyph-name="ugrave" unicode="&#xf9;" horiz-adv-x="540" 
d="M387 417q0 16 11.5 27t28.5 11t28.5 -11t11.5 -27v-386q0 -16 -11.5 -27t-28.5 -11t-28.5 11t-11.5 27v33q-23 -29 -64 -51.5t-95 -22.5q-75 0 -120.5 46.5t-45.5 145.5v235q0 16 11.5 27t28.5 11t28.5 -11t11.5 -27v-217q0 -64 27 -99.5t89 -35.5q39 0 73.5 20t55.5 47
v285zM306 591q6 -8 6 -18q0 -15 -12 -25q-8 -5 -18 -5q-8 0 -15.5 3t-12.5 9l-79 94q-7 8 -7 20q0 14 11 23l13 10q7 6 18 6q15 0 25 -13z" />
    <glyph glyph-name="uacute" unicode="&#xfa;" horiz-adv-x="540" 
d="M387 417q0 16 11.5 27t28.5 11t28.5 -11t11.5 -27v-386q0 -16 -11.5 -27t-28.5 -11t-28.5 11t-11.5 27v33q-23 -29 -64 -51.5t-95 -22.5q-75 0 -120.5 46.5t-45.5 145.5v235q0 16 11.5 27t28.5 11t28.5 -11t11.5 -27v-217q0 -64 27 -99.5t89 -35.5q39 0 73.5 20t55.5 47
v285zM305 697q7 12 24 12q9 0 17 -6l14 -10q11 -9 11 -23q0 -12 -7 -19l-80 -97q-11 -12 -26 -12q-9 0 -17 5q-13 9 -13 26q0 9 5 17z" />
    <glyph glyph-name="ucircumflex" unicode="&#xfb;" horiz-adv-x="540" 
d="M387 417q0 16 11.5 27t28.5 11t28.5 -11t11.5 -27v-386q0 -16 -11.5 -27t-28.5 -11t-28.5 11t-11.5 27v33q-23 -29 -64 -51.5t-95 -22.5q-75 0 -120.5 46.5t-45.5 145.5v235q0 16 11.5 27t28.5 11t28.5 -11t11.5 -27v-217q0 -64 27 -99.5t89 -35.5q39 0 73.5 20t55.5 47
v285zM185 547q-10 -8 -21 -8q-12 0 -22 10q-8 8 -8 20q0 14 9 23l102 94q9 9 23 9t23 -9l99 -94q10 -10 10 -23q0 -12 -9 -21q-10 -10 -23 -10q-11 0 -21 8l-81 71z" />
    <glyph glyph-name="udieresis" unicode="&#xfc;" horiz-adv-x="540" 
d="M387 417q0 16 11.5 27t28.5 11t28.5 -11t11.5 -27v-386q0 -16 -11.5 -27t-28.5 -11t-28.5 11t-11.5 27v33q-23 -29 -64 -51.5t-95 -22.5q-75 0 -120.5 46.5t-45.5 145.5v235q0 16 11.5 27t28.5 11t28.5 -11t11.5 -27v-217q0 -64 27 -99.5t89 -35.5q39 0 73.5 20t55.5 47
v285zM168 560q-20 0 -33.5 13t-13.5 37q0 21 13.5 33.5t33.5 12.5q17 0 30.5 -12.5t13.5 -33.5q0 -24 -13.5 -37t-30.5 -13zM372 560q-20 0 -34 13t-14 37q0 21 14 33.5t34 12.5q17 0 30.5 -12.5t13.5 -33.5q0 -24 -13.5 -37t-30.5 -13z" />
    <glyph glyph-name="yacute" unicode="&#xfd;" horiz-adv-x="479" 
d="M229 164q8 -17 14 -34t13 -34q9 33 21 69l95 259q4 12 13.5 21.5t25.5 9.5q22 0 33 -11.5t11 -27.5q0 -5 -1 -9.5t-3 -9.5l-159 -397q-24 -61 -45 -99.5t-41.5 -61t-41 -31t-44.5 -8.5q-14 0 -28 2t-25.5 7t-19 14.5t-7.5 23.5q0 32 32 32q8 0 17 -2.5t22 -2.5
q29 0 51 24t45 78l10 24l-189 394q-4 8 -4 19q0 17 12 29.5t32 12.5q12 0 22.5 -7t15.5 -18l123 -266v0zM267 697q7 12 24 12q9 0 17 -6l14 -10q11 -9 11 -23q0 -12 -7 -19l-80 -97q-11 -12 -26 -12q-9 0 -17 5q-13 9 -13 26q0 9 5 17z" />
    <glyph glyph-name="thorn" unicode="&#xfe;" horiz-adv-x="556" 
d="M152 -162q0 -16 -11.5 -27t-28.5 -11t-28.5 11t-11.5 27v824q0 16 11.5 27t28.5 11t28.5 -11t11.5 -27v-260q26 25 65.5 41.5t87.5 16.5t86.5 -17t65.5 -47t41.5 -72t14.5 -92q0 -51 -16.5 -95.5t-47.5 -77t-74 -51t-96 -18.5q-36 0 -69.5 7.5t-57.5 23.5v-183zM152 100
q30 -20 59 -27.5t61 -7.5q36 0 65 12.5t49 34t31 51.5t11 66q0 34 -9.5 62.5t-28.5 49.5t-46 32.5t-62 11.5q-40 0 -74.5 -18t-55.5 -44v-223z" />
    <glyph glyph-name="ydieresis" unicode="&#xff;" horiz-adv-x="479" 
d="M229 164q8 -17 14 -34t13 -34q9 33 21 69l95 259q4 12 13.5 21.5t25.5 9.5q22 0 33 -11.5t11 -27.5q0 -5 -1 -9.5t-3 -9.5l-159 -397q-24 -61 -45 -99.5t-41.5 -61t-41 -31t-44.5 -8.5q-14 0 -28 2t-25.5 7t-19 14.5t-7.5 23.5q0 32 32 32q8 0 17 -2.5t22 -2.5
q29 0 51 24t45 78l10 24l-189 394q-4 8 -4 19q0 17 12 29.5t32 12.5q12 0 22.5 -7t15.5 -18l123 -266v0zM141 560q-20 0 -33.5 13t-13.5 37q0 21 13.5 33.5t33.5 12.5q17 0 30.5 -12.5t13.5 -33.5q0 -24 -13.5 -37t-30.5 -13zM345 560q-20 0 -34 13t-14 37q0 21 14 33.5
t34 12.5q17 0 30.5 -12.5t13.5 -33.5q0 -24 -13.5 -37t-30.5 -13z" />
    <glyph glyph-name="Amacron" unicode="&#x100;" horiz-adv-x="685" 
d="M500 212h-319l-80 -191q-7 -17 -16.5 -22.5t-21.5 -5.5q-20 0 -30 12t-10 27q0 5 1 9t3 9l268 621q7 15 19 24.5t30 9.5t30 -10t18 -24l267 -618q3 -9 3 -17q0 -17 -10.5 -30t-30.5 -13q-14 0 -24.5 7.5t-15.5 20.5zM341 591l-126 -299h252zM463 835q14 0 23 -9.5
t9 -23.5t-9 -23t-23 -9h-240q-14 0 -23 9.5t-9 23.5t9 23t23 9h240z" />
    <glyph glyph-name="amacron" unicode="&#x101;" horiz-adv-x="460" 
d="M40 132q0 34 13 61t35.5 45t54 27.5t67.5 9.5q26 0 57.5 -6t54.5 -23q0 31 -3.5 57.5t-14 45t-31 29t-53.5 10.5q-25 0 -46 -4.5t-44 -13.5q-8 -3 -15 -3q-22 0 -31 20q-3 7 -3 14q0 11 5.5 19.5t14.5 12.5q35 14 65.5 20.5t58.5 6.5q96 0 134.5 -48t38.5 -136v-248
q0 -14 -10.5 -24.5t-27.5 -10.5t-27.5 10.5t-10.5 24.5v30q-20 -26 -54 -45.5t-90 -19.5q-62 0 -100 36.5t-38 102.5zM322 180q-42 30 -101 30q-18 0 -35.5 -4.5t-31 -13.5t-21.5 -23t-8 -33q0 -32 21 -51.5t60 -19.5q44 0 71.5 19t44.5 39v57zM333 645q14 0 23 -9.5
t9 -23.5t-9 -23t-23 -9h-200q-14 0 -23 9.5t-9 23.5t9 23t23 9h200z" />
    <glyph glyph-name="Abreve" unicode="&#x102;" horiz-adv-x="685" 
d="M500 212h-319l-80 -191q-7 -17 -16.5 -22.5t-21.5 -5.5q-20 0 -30 12t-10 27q0 5 1 9t3 9l268 621q7 15 19 24.5t30 9.5t30 -10t18 -24l267 -618q3 -9 3 -17q0 -17 -10.5 -30t-30.5 -13q-14 0 -24.5 7.5t-15.5 20.5zM341 591l-126 -299h252zM489 870q12 0 20 -7
q9 -8 9 -21q0 -8 -5 -15q-30 -35 -72.5 -58.5t-93.5 -23.5q-59 0 -100.5 23t-69.5 57q-5 7 -5 15q0 14 11 23q8 7 19 7t21 -8q19 -17 49 -32t75 -15q40 0 70.5 13.5t51.5 33.5q8 8 20 8z" />
    <glyph glyph-name="abreve" unicode="&#x103;" horiz-adv-x="460" 
d="M40 132q0 34 13 61t35.5 45t54 27.5t67.5 9.5q26 0 57.5 -6t54.5 -23q0 31 -3.5 57.5t-14 45t-31 29t-53.5 10.5q-25 0 -46 -4.5t-44 -13.5q-8 -3 -15 -3q-22 0 -31 20q-3 7 -3 14q0 11 5.5 19.5t14.5 12.5q35 14 65.5 20.5t58.5 6.5q96 0 134.5 -48t38.5 -136v-248
q0 -14 -10.5 -24.5t-27.5 -10.5t-27.5 10.5t-10.5 24.5v30q-20 -26 -54 -45.5t-90 -19.5q-62 0 -100 36.5t-38 102.5zM322 180q-42 30 -101 30q-18 0 -35.5 -4.5t-31 -13.5t-21.5 -23t-8 -33q0 -32 21 -51.5t60 -19.5q44 0 71.5 19t44.5 39v57zM348 670q9 0 18 -7
q8 -8 8 -19q0 -8 -7 -17q-11 -13 -25.5 -25.5t-32 -23t-38 -17t-44.5 -6.5q-50 0 -84 23t-54 48q-6 7 -6 18q0 12 9 20q10 8 19 8q12 0 23 -11q16 -16 39 -28.5t57 -12.5q30 0 54 11.5t42 28.5q12 10 22 10z" />
    <glyph glyph-name="Aogonek" unicode="&#x104;" horiz-adv-x="685" 
d="M500 212h-319l-80 -191q-7 -17 -16.5 -22.5t-21.5 -5.5q-20 0 -30 12t-10 27q0 5 1 9t3 9l268 621q7 15 19 24.5t30 9.5t30 -10t18 -24l267 -618q3 -9 3 -17q0 -17 -10.5 -30t-30.5 -13q-15 0 -23 7q-20 -2 -37 -9.5t-30 -18.5t-20.5 -25t-7.5 -29q0 -16 6 -26t15 -16
t19.5 -8.5t19.5 -2.5q11 0 22 3q8 2 12 2q21 0 27 -21q1 -3 1 -9q0 -18 -22 -29q-24 -11 -58 -11q-22 0 -43.5 4.5t-39 15.5t-28.5 28.5t-11 43.5q0 27 13.5 48.5t36 37.5t51.5 25t59 12l-2 6zM341 591l-126 -299h252z" />
    <glyph glyph-name="aogonek" unicode="&#x105;" horiz-adv-x="460" 
d="M40 132q0 34 13 61t35.5 45t54 27.5t67.5 9.5q26 0 57.5 -6t54.5 -23q0 31 -3.5 57.5t-14 45t-31 29t-53.5 10.5q-25 0 -46 -4.5t-44 -13.5q-8 -3 -15 -3q-22 0 -31 20q-3 7 -3 14q0 11 5.5 19.5t14.5 12.5q35 14 65.5 20.5t58.5 6.5q96 0 134.5 -48t38.5 -136v-248
q0 -14 -10.5 -24.5t-27.5 -10.5q-11 0 -19 5q-34 -8 -56.5 -31t-22.5 -49q0 -16 6 -26t15 -16t19.5 -8.5t19.5 -2.5q11 0 22 3q8 2 12 2q21 0 27 -21q1 -3 1 -9q0 -18 -22 -29q-24 -11 -58 -11q-22 0 -43.5 4.5t-39 15.5t-28.5 28.5t-11 43.5q0 25 12 45.5t31.5 36
t45.5 25.5t54 15q-3 6 -3 14v30q-20 -26 -54 -45.5t-90 -19.5q-62 0 -100 36.5t-38 102.5zM322 180q-42 30 -101 30q-18 0 -35.5 -4.5t-31 -13.5t-21.5 -23t-8 -33q0 -32 21 -51.5t60 -19.5q44 0 71.5 19t44.5 39v57z" />
    <glyph glyph-name="Cacute" unicode="&#x106;" horiz-adv-x="646" 
d="M566 592q-12 0 -24 6q-59 32 -142 32q-57 0 -105 -20.5t-82.5 -57.5t-53.5 -88.5t-19 -113.5q0 -63 20 -114.5t56 -88t86 -57t111 -20.5q80 0 145 39q11 7 25 7q19 0 30 -14q7 -8 7 -20q0 -10 -5.5 -19t-13.5 -15q-38 -27 -89 -42.5t-107 -15.5q-79 0 -144 25.5
t-112 72.5t-73 113.5t-26 148.5q0 75 23.5 141t68.5 114.5t110 76.5t147 28q56 0 103.5 -13.5t80.5 -33.5q21 -14 21 -34q0 -10 -6 -19q-11 -18 -32 -18zM484 874q6 3 12 3q16 0 23 -15l8 -18q2 -4 2 -11q0 -18 -16 -24l-152 -64q-6 -2 -10 -2q-18 0 -26 15q-3 6 -3 13
q0 17 15 25z" />
    <glyph glyph-name="cacute" unicode="&#x107;" horiz-adv-x="477" 
d="M380 359q-24 13 -48 19.5t-51 6.5q-30 0 -58 -11.5t-49.5 -32.5t-34 -50.5t-12.5 -65.5q0 -37 13 -66.5t35 -50.5t51.5 -32t62.5 -11q27 0 50.5 7t45.5 24q16 13 31 13q13 0 23 -10q11 -10 11 -25q0 -17 -11 -26q-38 -34 -76 -46t-80 -12q-54 0 -98 16.5t-76 47.5
t-49.5 74.5t-17.5 96.5q0 49 17 92t47.5 74.5t72 50t91.5 18.5q45 0 79 -8t67 -27q21 -11 21 -34q0 -11 -5 -18q-11 -18 -33 -18q-11 0 -19 4zM303 697q7 12 24 12q9 0 17 -6l14 -10q11 -9 11 -23q0 -12 -7 -19l-80 -97q-11 -12 -26 -12q-9 0 -17 5q-13 9 -13 26q0 9 5 17z
" />
    <glyph glyph-name="Ccircumflex" unicode="&#x108;" horiz-adv-x="646" 
d="M566 592q-12 0 -24 6q-59 32 -142 32q-57 0 -105 -20.5t-82.5 -57.5t-53.5 -88.5t-19 -113.5q0 -63 20 -114.5t56 -88t86 -57t111 -20.5q80 0 145 39q11 7 25 7q19 0 30 -14q7 -8 7 -20q0 -10 -5.5 -19t-13.5 -15q-38 -27 -89 -42.5t-107 -15.5q-79 0 -144 25.5
t-112 72.5t-73 113.5t-26 148.5q0 75 23.5 141t68.5 114.5t110 76.5t147 28q56 0 103.5 -13.5t80.5 -33.5q21 -14 21 -34q0 -10 -6 -19q-11 -18 -32 -18zM389 811l-115 -65q-8 -5 -17 -5q-16 0 -25 13q-5 6 -5 16q0 17 15 25l122 72q11 7 25 7q15 0 25 -7l126 -73
q14 -8 14 -24q0 -10 -4 -15q-8 -15 -26 -15q-7 0 -14 4z" />
    <glyph glyph-name="ccircumflex" unicode="&#x109;" horiz-adv-x="477" 
d="M380 359q-24 13 -48 19.5t-51 6.5q-30 0 -58 -11.5t-49.5 -32.5t-34 -50.5t-12.5 -65.5q0 -37 13 -66.5t35 -50.5t51.5 -32t62.5 -11q27 0 50.5 7t45.5 24q16 13 31 13q13 0 23 -10q11 -10 11 -25q0 -17 -11 -26q-38 -34 -76 -46t-80 -12q-54 0 -98 16.5t-76 47.5
t-49.5 74.5t-17.5 96.5q0 49 17 92t47.5 74.5t72 50t91.5 18.5q45 0 79 -8t67 -27q21 -11 21 -34q0 -11 -5 -18q-11 -18 -33 -18q-11 0 -19 4zM195 547q-10 -8 -21 -8q-12 0 -22 10q-8 8 -8 20q0 14 9 23l102 94q9 9 23 9t23 -9l99 -94q10 -10 10 -23q0 -12 -9 -21
q-10 -10 -23 -10q-11 0 -21 8l-81 71z" />
    <glyph glyph-name="Cdotaccent" unicode="&#x10a;" horiz-adv-x="646" 
d="M566 592q-12 0 -24 6q-59 32 -142 32q-57 0 -105 -20.5t-82.5 -57.5t-53.5 -88.5t-19 -113.5q0 -63 20 -114.5t56 -88t86 -57t111 -20.5q80 0 145 39q11 7 25 7q19 0 30 -14q7 -8 7 -20q0 -10 -5.5 -19t-13.5 -15q-38 -27 -89 -42.5t-107 -15.5q-79 0 -144 25.5
t-112 72.5t-73 113.5t-26 148.5q0 75 23.5 141t68.5 114.5t110 76.5t147 28q56 0 103.5 -13.5t80.5 -33.5q21 -14 21 -34q0 -10 -6 -19q-11 -18 -32 -18zM325 817q0 24 17 37.5t40 13.5q21 0 37.5 -13.5t16.5 -37.5q0 -26 -16.5 -40t-37.5 -14q-23 0 -40 14t-17 40z" />
    <glyph glyph-name="cdotaccent" unicode="&#x10b;" horiz-adv-x="477" 
d="M380 359q-24 13 -48 19.5t-51 6.5q-30 0 -58 -11.5t-49.5 -32.5t-34 -50.5t-12.5 -65.5q0 -37 13 -66.5t35 -50.5t51.5 -32t62.5 -11q27 0 50.5 7t45.5 24q16 13 31 13q13 0 23 -10q11 -10 11 -25q0 -17 -11 -26q-38 -34 -76 -46t-80 -12q-54 0 -98 16.5t-76 47.5
t-49.5 74.5t-17.5 96.5q0 49 17 92t47.5 74.5t72 50t91.5 18.5q45 0 79 -8t67 -27q21 -11 21 -34q0 -11 -5 -18q-11 -18 -33 -18q-11 0 -19 4zM226 619q0 22 15.5 35t36.5 13q19 0 34 -13t15 -35q0 -25 -15 -38.5t-34 -13.5q-21 0 -36.5 13.5t-15.5 38.5z" />
    <glyph glyph-name="Ccaron" unicode="&#x10c;" horiz-adv-x="646" 
d="M566 592q-12 0 -24 6q-59 32 -142 32q-57 0 -105 -20.5t-82.5 -57.5t-53.5 -88.5t-19 -113.5q0 -63 20 -114.5t56 -88t86 -57t111 -20.5q80 0 145 39q11 7 25 7q19 0 30 -14q7 -8 7 -20q0 -10 -5.5 -19t-13.5 -15q-38 -27 -89 -42.5t-107 -15.5q-79 0 -144 25.5
t-112 72.5t-73 113.5t-26 148.5q0 75 23.5 141t68.5 114.5t110 76.5t147 28q56 0 103.5 -13.5t80.5 -33.5q21 -14 21 -34q0 -10 -6 -19q-11 -18 -32 -18zM510 875q7 4 16 4q16 0 24 -13q4 -7 4 -15q0 -17 -14 -25l-123 -73q-11 -7 -26 -7t-26 7l-125 73q-14 8 -14 25
q0 8 3 14q8 15 26 15q7 0 14 -4l123 -70z" />
    <glyph glyph-name="ccaron" unicode="&#x10d;" horiz-adv-x="477" 
d="M380 359q-24 13 -48 19.5t-51 6.5q-30 0 -58 -11.5t-49.5 -32.5t-34 -50.5t-12.5 -65.5q0 -37 13 -66.5t35 -50.5t51.5 -32t62.5 -11q27 0 50.5 7t45.5 24q16 13 31 13q13 0 23 -10q11 -10 11 -25q0 -17 -11 -26q-38 -34 -76 -46t-80 -12q-54 0 -98 16.5t-76 47.5
t-49.5 74.5t-17.5 96.5q0 49 17 92t47.5 74.5t72 50t91.5 18.5q45 0 79 -8t67 -27q21 -11 21 -34q0 -11 -5 -18q-11 -18 -33 -18q-11 0 -19 4zM358 688q9 9 23 9q12 0 20 -8q9 -8 9 -21q0 -12 -9 -21l-104 -97q-9 -9 -23 -9t-23 9l-102 97q-9 7 -9 21q0 13 10 22q10 8 21 8
q14 0 23 -9l82 -82z" />
    <glyph glyph-name="Dcaron" unicode="&#x10e;" horiz-adv-x="739" 
d="M105 658q0 17 12 29.5t30 12.5q37 1 76.5 2t72.5 1q105 0 179.5 -28t122 -75.5t69.5 -109.5t22 -131q0 -75 -25 -140.5t-75.5 -114.5t-125.5 -77.5t-175 -28.5q-29 0 -64.5 0.5t-76.5 1.5q-17 0 -29.5 12.5t-12.5 29.5v616zM190 80q35 -1 63.5 -1.5t37.5 -0.5
q75 0 132.5 21t96.5 58.5t59 89t20 112.5q0 57 -19 105.5t-57.5 83.5t-95.5 55t-133 20q-32 0 -55 -1t-49 -2v-540zM455 875q7 4 16 4q16 0 24 -13q4 -7 4 -15q0 -17 -14 -25l-123 -73q-11 -7 -26 -7t-26 7l-125 73q-14 8 -14 25q0 8 3 14q8 15 26 15q7 0 14 -4l123 -70z
" />
    <glyph glyph-name="dcaron" unicode="&#x10f;" horiz-adv-x="554" 
d="M482 31q0 -16 -11.5 -27t-28.5 -11t-28.5 11t-11.5 27v26q-25 -27 -61 -46t-82 -19q-50 0 -90 16.5t-68 46.5t-43.5 72.5t-15.5 94.5t18.5 96t51.5 75.5t78 49t98 17.5q36 0 63.5 -7.5t50.5 -24.5v234q0 16 11.5 27t28.5 11t28.5 -11t11.5 -27v-631zM402 350
q-55 35 -111 35q-33 0 -63 -11t-52.5 -32t-35.5 -51t-13 -67t11 -66t31 -49.5t46.5 -31t58.5 -10.5q39 0 73 18.5t55 41.5v223zM569 514q-10 0 -17 6q-8 7 -8 18q0 13 10 24q15 18 21.5 41t6.5 50q0 7 -0.5 12.5t-1.5 10.5q0 2 -0.5 3t-0.5 3q0 18 21 18h28q14 0 20.5 -8.5
t7.5 -16.5q1 -3 1 -6.5v-6.5q0 -51 -20.5 -86t-43.5 -53q-12 -9 -24 -9z" />
    <glyph glyph-name="Dcroat" unicode="&#x110;" horiz-adv-x="754" 
d="M704 359q0 -75 -25 -140.5t-75.5 -114.5t-125.5 -77.5t-175 -28.5q-29 0 -64.5 0.5t-76.5 1.5q-17 0 -29.5 12.5t-12.5 29.5v274h-73q-15 0 -26 11t-11 27q0 15 11 26t26 11h73v267q0 17 12 29.5t30 12.5q37 1 76.5 2t72.5 1q105 0 179.5 -28t122 -75.5t69.5 -109.5
t22 -131zM205 80q35 -1 63.5 -1.5t37.5 -0.5q75 0 132.5 21t96.5 58.5t59 89t20 112.5q0 57 -19 105.5t-57.5 83.5t-95.5 55t-133 20q-32 0 -55 -1t-49 -2v-229h152q14 0 25 -11t11 -26q0 -16 -11 -27t-25 -11h-152v-236z" />
    <glyph glyph-name="dcroat" unicode="&#x111;" horiz-adv-x="554" 
d="M402 350q-55 35 -111 35q-33 0 -63 -11t-52.5 -32t-35.5 -51t-13 -67t11 -66t31 -49.5t46.5 -31t58.5 -10.5q39 0 73 18.5t55 41.5v223zM482 31q0 -16 -11.5 -27t-28.5 -11t-28.5 11t-11.5 27v26q-25 -27 -61 -46t-82 -19q-50 0 -90 16.5t-68 46.5t-43.5 72.5t-15.5 94.5
t18.5 96t51.5 75.5t78 49t98 17.5q36 0 63.5 -7.5t50.5 -24.5v106h-122q-20 0 -27.5 11t-7.5 22q0 14 10.5 23t24.5 9h122v63q0 16 11.5 27t28.5 11t28.5 -11t11.5 -27v-63h57q19 0 27 -10.5t8 -21.5q0 -13 -9 -23t-26 -10h-57v-503z" />
    <glyph glyph-name="Emacron" unicode="&#x112;" horiz-adv-x="575" 
d="M471 80q16 0 27.5 -11.5t11.5 -28.5t-11.5 -28.5t-27.5 -11.5h-324q-17 0 -29.5 12.5t-12.5 29.5v616q0 17 12.5 29.5t29.5 12.5h314q16 0 27.5 -11.5t11.5 -28.5t-11.5 -28.5t-27.5 -11.5h-271v-226h241q16 0 27.5 -11.5t11.5 -28.5t-11.5 -28.5t-27.5 -11.5h-241v-234
h281zM422 835q14 0 23 -9.5t9 -23.5t-9 -23t-23 -9h-240q-14 0 -23 9.5t-9 23.5t9 23t23 9h240z" />
    <glyph glyph-name="emacron" unicode="&#x113;" horiz-adv-x="525" 
d="M400 265q-3 56 -37 88t-93 32q-62 0 -99 -34t-44 -86h273zM483 254v-11.5t-1 -10.5q-1 -12 -11.5 -22t-22.5 -10h-316q5 -64 48 -99.5t109 -35.5q34 0 60.5 6.5t49.5 20.5q10 6 22 6q15 0 27 -13q6 -8 6 -18q0 -8 -3 -15.5t-9 -11.5q-38 -27 -77.5 -38.5t-81.5 -11.5
q-55 0 -99.5 16.5t-76 47.5t-48.5 74.5t-17 96.5q0 49 15.5 92t45 74.5t72.5 50t99 18.5q43 0 81.5 -15t66.5 -42t44.5 -65t16.5 -84zM364 645q14 0 23 -9.5t9 -23.5t-9 -23t-23 -9h-200q-14 0 -23 9.5t-9 23.5t9 23t23 9h200z" />
    <glyph glyph-name="Edotaccent" unicode="&#x116;" horiz-adv-x="575" 
d="M471 80q16 0 27.5 -11.5t11.5 -28.5t-11.5 -28.5t-27.5 -11.5h-324q-17 0 -29.5 12.5t-12.5 29.5v616q0 17 12.5 29.5t29.5 12.5h314q16 0 27.5 -11.5t11.5 -28.5t-11.5 -28.5t-27.5 -11.5h-271v-226h241q16 0 27.5 -11.5t11.5 -28.5t-11.5 -28.5t-27.5 -11.5h-241v-234
h281zM250 817q0 24 17 37.5t40 13.5q21 0 37.5 -13.5t16.5 -37.5q0 -26 -16.5 -40t-37.5 -14q-23 0 -40 14t-17 40z" />
    <glyph glyph-name="edotaccent" unicode="&#x117;" horiz-adv-x="525" 
d="M400 265q-3 56 -37 88t-93 32q-62 0 -99 -34t-44 -86h273zM483 254v-11.5t-1 -10.5q-1 -12 -11.5 -22t-22.5 -10h-316q5 -64 48 -99.5t109 -35.5q34 0 60.5 6.5t49.5 20.5q10 6 22 6q15 0 27 -13q6 -8 6 -18q0 -8 -3 -15.5t-9 -11.5q-38 -27 -77.5 -38.5t-81.5 -11.5
q-55 0 -99.5 16.5t-76 47.5t-48.5 74.5t-17 96.5q0 49 15.5 92t45 74.5t72.5 50t99 18.5q43 0 81.5 -15t66.5 -42t44.5 -65t16.5 -84zM215 619q0 22 15.5 35t36.5 13q19 0 34 -13t15 -35q0 -25 -15 -38.5t-34 -13.5q-21 0 -36.5 13.5t-15.5 38.5z" />
    <glyph glyph-name="Eogonek" unicode="&#x118;" horiz-adv-x="575" 
d="M471 80q16 0 27.5 -11.5t11.5 -28.5t-11.5 -28.5t-27.5 -11.5h-20q-20 -1 -38.5 -8t-32 -18.5t-21.5 -26t-8 -29.5q0 -16 6 -26t15 -16t19.5 -8.5t19.5 -2.5q11 0 22 3q8 2 12 2q21 0 27 -21q1 -3 1 -9q0 -18 -22 -29q-24 -11 -58 -11q-22 0 -43.5 4.5t-39 15.5
t-28.5 28.5t-11 43.5q0 38 26 65.5t65 42.5h-215q-17 0 -29.5 12.5t-12.5 29.5v616q0 17 12.5 29.5t29.5 12.5h314q16 0 27.5 -11.5t11.5 -28.5t-11.5 -28.5t-27.5 -11.5h-271v-226h241q16 0 27.5 -11.5t11.5 -28.5t-11.5 -28.5t-27.5 -11.5h-241v-234h281z" />
    <glyph glyph-name="eogonek" unicode="&#x119;" horiz-adv-x="525" 
d="M483 254v-11.5t-1 -10.5q-1 -12 -11.5 -22t-22.5 -10h-316q5 -64 48 -99.5t109 -35.5q34 0 60.5 6.5t49.5 20.5q10 6 22 6q15 0 27 -13q6 -8 6 -18q0 -8 -3 -15.5t-9 -11.5q-36 -26 -73 -37t-76 -13q-26 -11 -41.5 -30.5t-15.5 -41.5q0 -16 6 -26t15 -16t19.5 -8.5
t19.5 -2.5q11 0 22 3q8 2 12 2q21 0 27 -21q1 -3 1 -9q0 -18 -22 -29q-24 -11 -58 -11q-22 0 -43.5 4.5t-39 15.5t-28.5 28.5t-11 43.5q0 35 21.5 60.5t55.5 41.5q-44 7 -79.5 26.5t-60 49.5t-38 69t-13.5 86q0 49 15.5 92t45 74.5t72.5 50t99 18.5q43 0 81.5 -15t66.5 -42
t44.5 -65t16.5 -84zM400 265q-3 56 -37 88t-93 32q-62 0 -99 -34t-44 -86h273z" />
    <glyph glyph-name="Ecaron" unicode="&#x11a;" horiz-adv-x="575" 
d="M471 80q16 0 27.5 -11.5t11.5 -28.5t-11.5 -28.5t-27.5 -11.5h-324q-17 0 -29.5 12.5t-12.5 29.5v616q0 17 12.5 29.5t29.5 12.5h314q16 0 27.5 -11.5t11.5 -28.5t-11.5 -28.5t-27.5 -11.5h-271v-226h241q16 0 27.5 -11.5t11.5 -28.5t-11.5 -28.5t-27.5 -11.5h-241v-234
h281zM430 875q7 4 16 4q16 0 24 -13q4 -7 4 -15q0 -17 -14 -25l-123 -73q-11 -7 -26 -7t-26 7l-125 73q-14 8 -14 25q0 8 3 14q8 15 26 15q7 0 14 -4l123 -70z" />
    <glyph glyph-name="ecaron" unicode="&#x11b;" horiz-adv-x="525" 
d="M400 265q-3 56 -37 88t-93 32q-62 0 -99 -34t-44 -86h273zM483 254v-11.5t-1 -10.5q-1 -12 -11.5 -22t-22.5 -10h-316q5 -64 48 -99.5t109 -35.5q34 0 60.5 6.5t49.5 20.5q10 6 22 6q15 0 27 -13q6 -8 6 -18q0 -8 -3 -15.5t-9 -11.5q-38 -27 -77.5 -38.5t-81.5 -11.5
q-55 0 -99.5 16.5t-76 47.5t-48.5 74.5t-17 96.5q0 49 15.5 92t45 74.5t72.5 50t99 18.5q43 0 81.5 -15t66.5 -42t44.5 -65t16.5 -84zM356 688q9 9 23 9q12 0 20 -8q9 -8 9 -21q0 -12 -9 -21l-104 -97q-9 -9 -23 -9t-23 9l-102 97q-9 7 -9 21q0 13 10 22q10 8 21 8
q14 0 23 -9l82 -82z" />
    <glyph glyph-name="Gcircumflex" unicode="&#x11c;" horiz-adv-x="727" 
d="M404 630q-59 0 -107.5 -20t-83 -56.5t-54 -88.5t-19.5 -115q0 -64 19.5 -115.5t54.5 -88t84 -56.5t109 -20q25 0 51 4.5t50 13t44.5 19.5t34.5 25v144h-150q-16 0 -27.5 11.5t-11.5 28.5t11.5 28.5t27.5 11.5h188q17 0 29.5 -12.5t12.5 -29.5v-200q0 -17 -7.5 -28.5
t-16.5 -18.5q-24 -18 -53.5 -32.5t-61 -24.5t-63 -15t-60.5 -5q-82 0 -147.5 25.5t-111.5 72.5t-71 113.5t-25 148.5q0 75 24.5 141t69.5 114.5t108.5 76.5t141.5 28q60 0 107.5 -13t84.5 -35q11 -6 16 -15t5 -18q0 -11 -6 -21q-11 -18 -33 -18q-13 0 -26 7q-29 15 -63.5 24
t-74.5 9zM389 811l-115 -65q-8 -5 -17 -5q-16 0 -25 13q-5 6 -5 16q0 17 15 25l122 72q11 7 25 7q15 0 25 -7l126 -73q14 -8 14 -24q0 -10 -4 -15q-8 -15 -26 -15q-7 0 -14 4z" />
    <glyph glyph-name="gcircumflex" unicode="&#x11d;" horiz-adv-x="502" 
d="M212 79q7 0 13.5 0.5t13.5 0.5q49 0 91 -9t72.5 -27t48 -45t17.5 -64q0 -36 -17.5 -63t-48 -44.5t-72.5 -26.5t-91 -9t-91 8.5t-72.5 26t-48 44.5t-17.5 64q0 55 39.5 89t104.5 48q-6 8 -8.5 17.5t-2.5 19.5q0 23 12 38q-48 20 -74.5 59t-26.5 89q0 34 13 64t37 52.5
t58 35.5t76 13q33 0 62 -8.5t52 -24.5l101 24q3 1 8 1q11 0 19.5 -6.5t10.5 -17.5q1 -2 1 -7q0 -11 -7 -20t-18 -12l-66 -16q21 -35 21 -78q0 -34 -13 -63.5t-37 -51.5t-58 -34.5t-76 -12.5h-15t-15 1q-3 -6 -4 -12.5t-1 -12.5q0 -18 9 -30zM85 -65q0 -38 42 -58t112 -20
t112 20t42 58t-41 59t-113 21t-113 -21t-41 -59zM129 295q0 -42 29.5 -69.5t79.5 -27.5q48 0 78.5 26.5t30.5 70.5q0 42 -29 71t-80 29q-50 0 -79.5 -29t-29.5 -71zM161 547q-10 -8 -21 -8q-12 0 -22 10q-8 8 -8 20q0 14 9 23l102 94q9 9 23 9t23 -9l99 -94q10 -10 10 -23
q0 -12 -9 -21q-10 -10 -23 -10q-11 0 -21 8l-81 71z" />
    <glyph glyph-name="Gbreve" unicode="&#x11e;" horiz-adv-x="727" 
d="M404 630q-59 0 -107.5 -20t-83 -56.5t-54 -88.5t-19.5 -115q0 -64 19.5 -115.5t54.5 -88t84 -56.5t109 -20q25 0 51 4.5t50 13t44.5 19.5t34.5 25v144h-150q-16 0 -27.5 11.5t-11.5 28.5t11.5 28.5t27.5 11.5h188q17 0 29.5 -12.5t12.5 -29.5v-200q0 -17 -7.5 -28.5
t-16.5 -18.5q-24 -18 -53.5 -32.5t-61 -24.5t-63 -15t-60.5 -5q-82 0 -147.5 25.5t-111.5 72.5t-71 113.5t-25 148.5q0 75 24.5 141t69.5 114.5t108.5 76.5t141.5 28q60 0 107.5 -13t84.5 -35q11 -6 16 -15t5 -18q0 -11 -6 -21q-11 -18 -33 -18q-13 0 -26 7q-29 15 -63.5 24
t-74.5 9zM547 870q12 0 20 -7q9 -8 9 -21q0 -8 -5 -15q-30 -35 -72.5 -58.5t-93.5 -23.5q-59 0 -100.5 23t-69.5 57q-5 7 -5 15q0 14 11 23q8 7 19 7t21 -8q19 -17 49 -32t75 -15q40 0 70.5 13.5t51.5 33.5q8 8 20 8z" />
    <glyph glyph-name="gbreve" unicode="&#x11f;" horiz-adv-x="502" 
d="M212 79q7 0 13.5 0.5t13.5 0.5q49 0 91 -9t72.5 -27t48 -45t17.5 -64q0 -36 -17.5 -63t-48 -44.5t-72.5 -26.5t-91 -9t-91 8.5t-72.5 26t-48 44.5t-17.5 64q0 55 39.5 89t104.5 48q-6 8 -8.5 17.5t-2.5 19.5q0 23 12 38q-48 20 -74.5 59t-26.5 89q0 34 13 64t37 52.5
t58 35.5t76 13q33 0 62 -8.5t52 -24.5l101 24q3 1 8 1q11 0 19.5 -6.5t10.5 -17.5q1 -2 1 -7q0 -11 -7 -20t-18 -12l-66 -16q21 -35 21 -78q0 -34 -13 -63.5t-37 -51.5t-58 -34.5t-76 -12.5h-15t-15 1q-3 -6 -4 -12.5t-1 -12.5q0 -18 9 -30zM85 -65q0 -38 42 -58t112 -20
t112 20t42 58t-41 59t-113 21t-113 -21t-41 -59zM129 295q0 -42 29.5 -69.5t79.5 -27.5q48 0 78.5 26.5t30.5 70.5q0 42 -29 71t-80 29q-50 0 -79.5 -29t-29.5 -71zM361 670q9 0 18 -7q8 -8 8 -19q0 -8 -7 -17q-11 -13 -25.5 -25.5t-32 -23t-38 -17t-44.5 -6.5q-50 0 -84 23
t-54 48q-6 7 -6 18q0 12 9 20q10 8 19 8q12 0 23 -11q16 -16 39 -28.5t57 -12.5q30 0 54 11.5t42 28.5q12 10 22 10z" />
    <glyph glyph-name="Gdotaccent" unicode="&#x120;" horiz-adv-x="727" 
d="M404 630q-59 0 -107.5 -20t-83 -56.5t-54 -88.5t-19.5 -115q0 -64 19.5 -115.5t54.5 -88t84 -56.5t109 -20q25 0 51 4.5t50 13t44.5 19.5t34.5 25v144h-150q-16 0 -27.5 11.5t-11.5 28.5t11.5 28.5t27.5 11.5h188q17 0 29.5 -12.5t12.5 -29.5v-200q0 -17 -7.5 -28.5
t-16.5 -18.5q-24 -18 -53.5 -32.5t-61 -24.5t-63 -15t-60.5 -5q-82 0 -147.5 25.5t-111.5 72.5t-71 113.5t-25 148.5q0 75 24.5 141t69.5 114.5t108.5 76.5t141.5 28q60 0 107.5 -13t84.5 -35q11 -6 16 -15t5 -18q0 -11 -6 -21q-11 -18 -33 -18q-13 0 -26 7q-29 15 -63.5 24
t-74.5 9zM325 817q0 24 17 37.5t40 13.5q21 0 37.5 -13.5t16.5 -37.5q0 -26 -16.5 -40t-37.5 -14q-23 0 -40 14t-17 40z" />
    <glyph glyph-name="gdotaccent" unicode="&#x121;" horiz-adv-x="502" 
d="M212 79q7 0 13.5 0.5t13.5 0.5q49 0 91 -9t72.5 -27t48 -45t17.5 -64q0 -36 -17.5 -63t-48 -44.5t-72.5 -26.5t-91 -9t-91 8.5t-72.5 26t-48 44.5t-17.5 64q0 55 39.5 89t104.5 48q-6 8 -8.5 17.5t-2.5 19.5q0 23 12 38q-48 20 -74.5 59t-26.5 89q0 34 13 64t37 52.5
t58 35.5t76 13q33 0 62 -8.5t52 -24.5l101 24q3 1 8 1q11 0 19.5 -6.5t10.5 -17.5q1 -2 1 -7q0 -11 -7 -20t-18 -12l-66 -16q21 -35 21 -78q0 -34 -13 -63.5t-37 -51.5t-58 -34.5t-76 -12.5h-15t-15 1q-3 -6 -4 -12.5t-1 -12.5q0 -18 9 -30zM85 -65q0 -38 42 -58t112 -20
t112 20t42 58t-41 59t-113 21t-113 -21t-41 -59zM129 295q0 -42 29.5 -69.5t79.5 -27.5q48 0 78.5 26.5t30.5 70.5q0 42 -29 71t-80 29q-50 0 -79.5 -29t-29.5 -71zM189 619q0 22 15.5 35t36.5 13q19 0 34 -13t15 -35q0 -25 -15 -38.5t-34 -13.5q-21 0 -36.5 13.5
t-15.5 38.5z" />
    <glyph glyph-name="Gcommaaccent" unicode="&#x122;" horiz-adv-x="727" 
d="M404 630q-59 0 -107.5 -20t-83 -56.5t-54 -88.5t-19.5 -115q0 -64 19.5 -115.5t54.5 -88t84 -56.5t109 -20q25 0 51 4.5t50 13t44.5 19.5t34.5 25v144h-150q-16 0 -27.5 11.5t-11.5 28.5t11.5 28.5t27.5 11.5h188q17 0 29.5 -12.5t12.5 -29.5v-200q0 -17 -7.5 -28.5
t-16.5 -18.5q-24 -18 -53.5 -32.5t-61 -24.5t-63 -15t-60.5 -5q-82 0 -147.5 25.5t-111.5 72.5t-71 113.5t-25 148.5q0 75 24.5 141t69.5 114.5t108.5 76.5t141.5 28q60 0 107.5 -13t84.5 -35q11 -6 16 -15t5 -18q0 -11 -6 -21q-11 -18 -33 -18q-13 0 -26 7q-29 15 -63.5 24
t-74.5 9zM359 -200q-6 0 -11.5 2t-8.5 8t-3 11q0 12 12 20q27 18 27 53q0 9 -1 12.5t-4 9.5t-3 11q0 8 6 14t14 8l27 6q3 1 8 1q19 0 26 -18t7 -33q0 -42 -25 -67t-58 -36q-8 -2 -13 -2z" />
    <glyph glyph-name="gcommaaccent" unicode="&#x123;" horiz-adv-x="502" 
d="M212 79q7 0 13.5 0.5t13.5 0.5q49 0 91 -9t72.5 -27t48 -45t17.5 -64q0 -36 -17.5 -63t-48 -44.5t-72.5 -26.5t-91 -9t-91 8.5t-72.5 26t-48 44.5t-17.5 64q0 55 39.5 89t104.5 48q-6 8 -8.5 17.5t-2.5 19.5q0 23 12 38q-48 20 -74.5 59t-26.5 89q0 34 13 64t37 52.5
t58 35.5t76 13q33 0 62 -8.5t52 -24.5l101 24q3 1 8 1q11 0 19.5 -6.5t10.5 -17.5q1 -2 1 -7q0 -11 -7 -20t-18 -12l-66 -16q21 -35 21 -78q0 -34 -13 -63.5t-37 -51.5t-58 -34.5t-76 -12.5h-15t-15 1q-3 -6 -4 -12.5t-1 -12.5q0 -18 9 -30zM85 -65q0 -38 42 -58t112 -20
t112 20t42 58t-41 59t-113 21t-113 -21t-41 -59zM129 295q0 -42 29.5 -69.5t79.5 -27.5q48 0 78.5 26.5t30.5 70.5q0 42 -29 71t-80 29q-50 0 -79.5 -29t-29.5 -71zM277 697q6 0 11.5 -2t8.5 -8t3 -11q0 -12 -12 -20q-27 -18 -27 -53q0 -9 1 -12.5t4 -9.5t3 -11q0 -8 -6 -14
t-14 -8l-27 -6q-3 -1 -8 -1q-19 0 -26 18t-7 33q0 42 25 67t58 36q8 2 13 2z" />
    <glyph glyph-name="Hcircumflex" unicode="&#x124;" horiz-adv-x="765" 
d="M575 664q0 17 12.5 29t30.5 12q17 0 29.5 -12t12.5 -29v-629q0 -17 -12.5 -29.5t-29.5 -12.5q-18 0 -30.5 12.5t-12.5 29.5v282h-385v-282q0 -17 -12.5 -29.5t-29.5 -12.5q-18 0 -30.5 12.5t-12.5 29.5v629q0 17 12.5 29t30.5 12q17 0 29.5 -12t12.5 -29v-267h385v267v0z
M382 811l-115 -65q-8 -5 -17 -5q-16 0 -25 13q-5 6 -5 16q0 17 15 25l122 72q11 7 25 7q15 0 25 -7l126 -73q14 -8 14 -24q0 -10 -4 -15q-8 -15 -26 -15q-7 0 -14 4z" />
    <glyph glyph-name="hcircumflex" unicode="&#x125;" horiz-adv-x="558" 
d="M152 31q0 -16 -11.5 -27t-28.5 -11t-28.5 11t-11.5 27v631q0 16 11.5 27t28.5 11t28.5 -11t11.5 -27v-264q25 26 64.5 43t82.5 17q88 0 137.5 -47t49.5 -153v-227q0 -16 -11.5 -27t-28.5 -11t-28.5 11t-11.5 27v216q0 136 -126 136q-38 0 -72.5 -16.5t-55.5 -40.5v-295z
M157 811l-115 -65q-8 -5 -17 -5q-16 0 -25 13q-5 6 -5 16q0 17 15 25l122 72q11 7 25 7q15 0 25 -7l126 -73q14 -8 14 -24q0 -10 -4 -15q-8 -15 -26 -15q-7 0 -14 4z" />
    <glyph glyph-name="Hbar" unicode="&#x126;" horiz-adv-x="775" 
d="M195 35q0 -17 -12.5 -29.5t-29.5 -12.5q-18 0 -30.5 12.5t-12.5 29.5v479h-48q-15 0 -26 11t-11 27q0 15 11 26t26 11h48v75q0 17 12.5 29t30.5 12q17 0 29.5 -12t12.5 -29v-75h385v75q0 17 12.5 29t30.5 12q17 0 29.5 -12t12.5 -29v-75h49q14 0 25 -11t11 -26
q0 -16 -11 -27t-25 -11h-49v-479q0 -17 -12.5 -29.5t-29.5 -12.5q-18 0 -30.5 12.5t-12.5 29.5v282h-385v-282zM580 397v117h-385v-117h385z" />
    <glyph glyph-name="hbar" unicode="&#x127;" horiz-adv-x="574" 
d="M177 31q0 -16 -11.5 -27t-28.5 -11t-28.5 11t-11.5 27v489h-79q-16 0 -27 11t-11 27q0 15 11 26t27 11h79v67q0 16 11.5 27t28.5 11t28.5 -11t11.5 -27v-67h124q16 0 27 -11t11 -26q0 -16 -11 -27t-27 -11h-124v-122q25 26 64.5 43t82.5 17q88 0 137.5 -47t49.5 -153
v-227q0 -16 -11.5 -27t-28.5 -11t-28.5 11t-11.5 27v216q0 136 -126 136q-38 0 -72.5 -16.5t-55.5 -40.5v-295v0z" />
    <glyph glyph-name="Imacron" unicode="&#x12a;" horiz-adv-x="335" 
d="M125 664q0 17 12.5 29t30.5 12q17 0 29.5 -12t12.5 -29v-629q0 -17 -12.5 -29.5t-29.5 -12.5q-18 0 -30.5 12.5t-12.5 29.5v629v0zM291 835q14 0 23 -9.5t9 -23.5t-9 -23t-23 -9h-240q-14 0 -23 9.5t-9 23.5t9 23t23 9h240z" />
    <glyph glyph-name="imacron" unicode="&#x12b;" horiz-adv-x="268" 
d="M174 31q0 -16 -11.5 -27t-28.5 -11t-28.5 11t-11.5 27v386q0 16 11.5 27t28.5 11t28.5 -11t11.5 -27v-386zM235 645q14 0 23 -9.5t9 -23.5t-9 -23t-23 -9h-200q-14 0 -23 9.5t-9 23.5t9 23t23 9h200z" />
    <glyph glyph-name="Iogonek" unicode="&#x12e;" horiz-adv-x="335" 
d="M125 664q0 17 12.5 29t30.5 12q17 0 29.5 -12t12.5 -29v-629q0 -17 -12.5 -29.5t-29.5 -12.5q-10 0 -20 5q-34 -8 -57 -31t-23 -49q0 -16 6 -26t15 -16t19.5 -8.5t19.5 -2.5q11 0 22 3q8 2 12 2q21 0 27 -21q1 -3 1 -9q0 -18 -22 -29q-24 -11 -58 -11q-22 0 -43.5 4.5
t-39 15.5t-28.5 28.5t-11 43.5q0 25 12 45.5t31.5 36t45.5 25.5t54 15q-6 9 -6 21v629v0z" />
    <glyph glyph-name="iogonek" unicode="&#x12f;" horiz-adv-x="268" 
d="M174 31q0 -16 -11.5 -27t-28.5 -11q-10 0 -20 5q-33 -8 -55.5 -31t-22.5 -49q0 -16 6 -26t15 -16t19.5 -8.5t19.5 -2.5q11 0 22 3q8 2 12 2q21 0 27 -21q1 -3 1 -9q0 -18 -22 -29q-24 -11 -58 -11q-22 0 -43.5 4.5t-39 15.5t-28.5 28.5t-11 43.5q0 25 12 45.5t31.5 35.5
t45 25t53.5 15q-4 7 -4 18v386q0 16 11.5 27t28.5 11t28.5 -11t11.5 -27v-386zM84 619q0 22 15.5 35t36.5 13q19 0 34 -13t15 -35q0 -25 -15 -38.5t-34 -13.5q-21 0 -36.5 13.5t-15.5 38.5z" />
    <glyph glyph-name="Idotaccent" unicode="&#x130;" horiz-adv-x="335" 
d="M125 664q0 17 12.5 29t30.5 12q17 0 29.5 -12t12.5 -29v-629q0 -17 -12.5 -29.5t-29.5 -12.5q-18 0 -30.5 12.5t-12.5 29.5v629v0zM112 817q0 24 17 37.5t40 13.5q21 0 37.5 -13.5t16.5 -37.5q0 -26 -16.5 -40t-37.5 -14q-23 0 -40 14t-17 40z" />
    <glyph glyph-name="dotlessi" unicode="&#x131;" horiz-adv-x="268" 
d="M174 31q0 -16 -11.5 -27t-28.5 -11t-28.5 11t-11.5 27v386q0 16 11.5 27t28.5 11t28.5 -11t11.5 -27v-386z" />
    <glyph glyph-name="Jcircumflex" unicode="&#x134;" horiz-adv-x="369" 
d="M64 77q10 -3 19 -5t17 -2q46 0 62.5 29t16.5 74v491q0 17 12.5 29t30.5 12q17 0 29.5 -12t12.5 -29v-505q0 -79 -36 -124t-117 -45q-23 0 -42.5 5t-35.5 12q-10 5 -15.5 14t-5.5 20q0 8 3 16q11 23 34 23q7 0 15 -3zM216 811l-115 -65q-8 -5 -17 -5q-16 0 -25 13
q-5 6 -5 16q0 17 15 25l122 72q11 7 25 7q15 0 25 -7l126 -73q14 -8 14 -24q0 -10 -4 -15q-8 -15 -26 -15q-7 0 -14 4z" />
    <glyph glyph-name="jcircumflex" unicode="&#x135;" horiz-adv-x="283" 
d="M115 417q0 16 11.5 27t28.5 11t28.5 -11t11.5 -27v-450q0 -83 -33 -129t-108 -46q-41 0 -70 11q-26 10 -26 35q0 16 10 25t27 9h8.5t8.5 -2q12 -3 24 -3q43 0 61 28t18 78v444zM75 547q-10 -8 -21 -8q-12 0 -22 10q-8 8 -8 20q0 14 9 23l102 94q9 9 23 9t23 -9l99 -94
q10 -10 10 -23q0 -12 -9 -21q-10 -10 -23 -10q-11 0 -21 8l-81 71z" />
    <glyph glyph-name="Kcommaaccent" unicode="&#x136;" horiz-adv-x="635" 
d="M234 334q-11 13 -11 30q0 18 12 32l262 287q19 22 39 22q17 0 27 -10t10 -24q0 -18 -15 -33l-253 -267l271 -306q15 -16 15 -35q0 -16 -11 -26.5t-28 -10.5q-14 0 -23.5 6t-18.5 17zM105 664q0 17 12.5 29t30.5 12q17 0 29.5 -12t12.5 -29v-629q0 -17 -12.5 -29.5
t-29.5 -12.5q-18 0 -30.5 12.5t-12.5 29.5v629zM279 -200q-6 0 -11.5 2t-8.5 8t-3 11q0 12 12 20q27 18 27 53q0 9 -1 12.5t-4 9.5t-3 11q0 8 6 14t14 8l27 6q3 1 8 1q19 0 26 -18t7 -33q0 -42 -25 -67t-58 -36q-8 -2 -13 -2z" />
    <glyph glyph-name="kcommaaccent" unicode="&#x137;" horiz-adv-x="476" 
d="M194 206q-11 13 -11 29t11 29l147 170q18 21 36 21t28.5 -10t10.5 -24q0 -15 -12 -28l-138 -152l161 -181q12 -15 12 -30t-10.5 -26t-29.5 -11q-13 0 -22 5.5t-17 15.5zM152 31q0 -16 -11.5 -27t-28.5 -11t-28.5 11t-11.5 27v631q0 16 11.5 27t28.5 11t28.5 -11t11.5 -27
v-631zM193 -200q-6 0 -11.5 2t-8.5 8t-3 11q0 12 12 20q27 18 27 53q0 9 -1 12.5t-4 9.5t-3 11q0 8 6 14t14 8l27 6q3 1 8 1q19 0 26 -18t7 -33q0 -42 -25 -67t-58 -36q-8 -2 -13 -2z" />
    <glyph glyph-name="Lacute" unicode="&#x139;" horiz-adv-x="550" 
d="M496 80q16 0 27.5 -11.5t11.5 -28.5t-11.5 -28.5t-27.5 -11.5h-349q-17 0 -29.5 12.5t-12.5 29.5v622q0 17 12.5 29t30.5 12q17 0 29.5 -12t12.5 -29v-584h306zM384 874q6 3 12 3q16 0 23 -15l8 -18q2 -4 2 -11q0 -18 -16 -24l-152 -64q-6 -2 -10 -2q-18 0 -26 15
q-3 6 -3 13q0 17 15 25z" />
    <glyph glyph-name="lacute" unicode="&#x13a;" horiz-adv-x="288" 
d="M152 156q0 -46 12 -67.5t41 -21.5q13 0 25 2.5t20 2.5q10 0 21.5 -7.5t11.5 -24.5t-9.5 -26.5t-24 -14t-31 -5.5t-29.5 -1q-56 0 -86.5 30.5t-30.5 96.5v542q0 16 11.5 27t28.5 11t28.5 -11t11.5 -27v-506zM241 874q6 3 12 3q16 0 23 -15l8 -18q2 -4 2 -11q0 -18 -16 -24
l-152 -64q-6 -2 -10 -2q-18 0 -26 15q-3 6 -3 13q0 17 15 25z" />
    <glyph glyph-name="Lcommaaccent" unicode="&#x13b;" horiz-adv-x="550" 
d="M496 80q16 0 27.5 -11.5t11.5 -28.5t-11.5 -28.5t-27.5 -11.5h-349q-17 0 -29.5 12.5t-12.5 29.5v622q0 17 12.5 29t30.5 12q17 0 29.5 -12t12.5 -29v-584h306zM269 -200q-6 0 -11.5 2t-8.5 8t-3 11q0 12 12 20q27 18 27 53q0 9 -1 12.5t-4 9.5t-3 11q0 8 6 14t14 8l27 6
q3 1 8 1q19 0 26 -18t7 -33q0 -42 -25 -67t-58 -36q-8 -2 -13 -2z" />
    <glyph glyph-name="lcommaaccent" unicode="&#x13c;" horiz-adv-x="288" 
d="M152 156q0 -46 12 -67.5t41 -21.5q13 0 25 2.5t20 2.5q10 0 21.5 -7.5t11.5 -24.5t-9.5 -26.5t-24 -14t-31 -5.5t-29.5 -1q-56 0 -86.5 30.5t-30.5 96.5v542q0 16 11.5 27t28.5 11t28.5 -11t11.5 -27v-506zM126 -200q-6 0 -11.5 2t-8.5 8t-3 11q0 12 12 20q27 18 27 53
q0 9 -1 12.5t-4 9.5t-3 11q0 8 6 14t14 8l27 6q3 1 8 1q19 0 26 -18t7 -33q0 -42 -25 -67t-58 -36q-8 -2 -13 -2z" />
    <glyph glyph-name="Lcaron" unicode="&#x13d;" horiz-adv-x="550" 
d="M496 80q16 0 27.5 -11.5t11.5 -28.5t-11.5 -28.5t-27.5 -11.5h-349q-17 0 -29.5 12.5t-12.5 29.5v622q0 17 12.5 29t30.5 12q17 0 29.5 -12t12.5 -29v-584h306zM354 514q-10 0 -17 6q-8 7 -8 18q0 13 10 24q15 18 21.5 41t6.5 50q0 7 -0.5 12.5t-1.5 10.5q0 2 -0.5 3
t-0.5 3q0 18 21 18h28q14 0 20.5 -8.5t7.5 -16.5q1 -3 1 -6.5v-6.5q0 -51 -20.5 -86t-43.5 -53q-12 -9 -24 -9z" />
    <glyph glyph-name="lcaron" unicode="&#x13e;" horiz-adv-x="288" 
d="M152 156q0 -46 12 -67.5t41 -21.5q13 0 25 2.5t20 2.5q10 0 21.5 -7.5t11.5 -24.5t-9.5 -26.5t-24 -14t-31 -5.5t-29.5 -1q-56 0 -86.5 30.5t-30.5 96.5v542q0 16 11.5 27t28.5 11t28.5 -11t11.5 -27v-506zM244 514q-10 0 -17 6q-8 7 -8 18q0 13 10 24q15 18 21.5 41
t6.5 50q0 7 -0.5 12.5t-1.5 10.5q0 2 -0.5 3t-0.5 3q0 18 21 18h28q14 0 20.5 -8.5t7.5 -16.5q1 -3 1 -6.5v-6.5q0 -51 -20.5 -86t-43.5 -53q-12 -9 -24 -9z" />
    <glyph glyph-name="Ldot" unicode="&#x13f;" horiz-adv-x="550" 
d="M496 80q16 0 27.5 -11.5t11.5 -28.5t-11.5 -28.5t-27.5 -11.5h-349q-17 0 -29.5 12.5t-12.5 29.5v622q0 17 12.5 29t30.5 12q17 0 29.5 -12t12.5 -29v-584h306zM368 374q0 20 15.5 36.5t41.5 16.5q23 0 38 -16.5t15 -36.5q0 -23 -15 -40t-38 -17q-26 0 -41.5 17t-15.5 40
z" />
    <glyph glyph-name="ldot" unicode="&#x140;" horiz-adv-x="324" 
d="M152 156q0 -46 12 -67.5t41 -21.5q13 0 25 2.5t20 2.5q10 0 21.5 -7.5t11.5 -24.5t-9.5 -26.5t-24 -14t-31 -5.5t-29.5 -1q-56 0 -86.5 30.5t-30.5 96.5v542q0 16 11.5 27t28.5 11t28.5 -11t11.5 -27v-506zM226 327q0 22 15.5 35t36.5 13q19 0 34 -13t15 -35
q0 -25 -15 -38.5t-34 -13.5q-21 0 -36.5 13.5t-15.5 38.5z" />
    <glyph glyph-name="Lslash" unicode="&#x141;" horiz-adv-x="553" 
d="M152 0q-17 0 -29.5 12.5t-12.5 29.5v221l-45 -22q-8 -3 -15 -3q-10 0 -19 5t-14 16q-4 7 -4 16q0 10 5.5 19t14.5 14l77 37v319q0 17 12.5 29t30.5 12q17 0 29.5 -12t12.5 -29v-278l127 62q7 3 15 3q23 0 34 -20q4 -7 4 -16q0 -10 -5 -18.5t-14 -13.5l-161 -79v-224h306
q16 0 27.5 -11.5t11.5 -28.5t-11.5 -28.5t-27.5 -11.5h-349z" />
    <glyph glyph-name="lslash" unicode="&#x142;" horiz-adv-x="306" 
d="M169 156q0 -46 12 -67.5t41 -21.5q13 0 25 2.5t20 2.5q10 0 21.5 -7.5t11.5 -24.5t-9.5 -26.5t-24 -14t-31 -5.5t-29.5 -1q-56 0 -86.5 30.5t-30.5 96.5v141l-30 -15q-7 -4 -17 -4q-11 0 -19.5 5t-13.5 14q-3 7 -3 15q0 11 5 20.5t16 14.5l62 31v320q0 16 11.5 27
t28.5 11t28.5 -11t11.5 -27v-282l70 34q7 4 17 4q11 0 20 -5.5t14 -14.5q3 -6 3 -14q0 -11 -5.5 -21t-16.5 -15l-102 -50v-142z" />
    <glyph glyph-name="Nacute" unicode="&#x143;" horiz-adv-x="795" 
d="M610 666q0 16 11.5 27.5t28.5 11.5t28.5 -11.5t11.5 -27.5v-630q0 -19 -9.5 -31t-26.5 -12q-16 0 -27 7.5t-24 23.5l-418 527v-519q0 -16 -11.5 -27.5t-28.5 -11.5t-28.5 11.5t-11.5 27.5v626q0 18 9.5 32.5t29.5 14.5q16 0 27.5 -8t26.5 -28l412 -521v518zM509 874
q6 3 12 3q16 0 23 -15l8 -18q2 -4 2 -11q0 -18 -16 -24l-152 -64q-6 -2 -10 -2q-18 0 -26 15q-3 6 -3 13q0 17 15 25z" />
    <glyph glyph-name="nacute" unicode="&#x144;" horiz-adv-x="558" 
d="M152 31q0 -16 -11.5 -27t-28.5 -11t-28.5 11t-11.5 27v386q0 16 11.5 27t28.5 11t28.5 -11t11.5 -27v-22q23 26 62.5 44.5t84.5 18.5q88 0 137.5 -46t49.5 -152v-229q0 -16 -11.5 -27t-28.5 -11t-28.5 11t-11.5 27v214q0 71 -32 104.5t-95 33.5q-38 0 -71.5 -16.5
t-55.5 -41.5v-294zM312 697q7 12 24 12q9 0 17 -6l14 -10q11 -9 11 -23q0 -12 -7 -19l-80 -97q-11 -12 -26 -12q-9 0 -17 5q-13 9 -13 26q0 9 5 17z" />
    <glyph glyph-name="Ncommaaccent" unicode="&#x145;" horiz-adv-x="795" 
d="M610 666q0 16 11.5 27.5t28.5 11.5t28.5 -11.5t11.5 -27.5v-630q0 -19 -9.5 -31t-26.5 -12q-16 0 -27 7.5t-24 23.5l-418 527v-519q0 -16 -11.5 -27.5t-28.5 -11.5t-28.5 11.5t-11.5 27.5v626q0 18 9.5 32.5t29.5 14.5q16 0 27.5 -8t26.5 -28l412 -521v518zM354 -200
q-6 0 -11.5 2t-8.5 8t-3 11q0 12 12 20q27 18 27 53q0 9 -1 12.5t-4 9.5t-3 11q0 8 6 14t14 8l27 6q3 1 8 1q19 0 26 -18t7 -33q0 -42 -25 -67t-58 -36q-8 -2 -13 -2z" />
    <glyph glyph-name="ncommaaccent" unicode="&#x146;" horiz-adv-x="558" 
d="M152 31q0 -16 -11.5 -27t-28.5 -11t-28.5 11t-11.5 27v386q0 16 11.5 27t28.5 11t28.5 -11t11.5 -27v-22q23 26 62.5 44.5t84.5 18.5q88 0 137.5 -46t49.5 -152v-229q0 -16 -11.5 -27t-28.5 -11t-28.5 11t-11.5 27v214q0 71 -32 104.5t-95 33.5q-38 0 -71.5 -16.5
t-55.5 -41.5v-294zM232 -200q-6 0 -11.5 2t-8.5 8t-3 11q0 12 12 20q27 18 27 53q0 9 -1 12.5t-4 9.5t-3 11q0 8 6 14t14 8l27 6q3 1 8 1q19 0 26 -18t7 -33q0 -42 -25 -67t-58 -36q-8 -2 -13 -2z" />
    <glyph glyph-name="Ncaron" unicode="&#x147;" horiz-adv-x="795" 
d="M610 666q0 16 11.5 27.5t28.5 11.5t28.5 -11.5t11.5 -27.5v-630q0 -19 -9.5 -31t-26.5 -12q-16 0 -27 7.5t-24 23.5l-418 527v-519q0 -16 -11.5 -27.5t-28.5 -11.5t-28.5 11.5t-11.5 27.5v626q0 18 9.5 32.5t29.5 14.5q16 0 27.5 -8t26.5 -28l412 -521v518zM517 875
q7 4 16 4q16 0 24 -13q4 -7 4 -15q0 -17 -14 -25l-123 -73q-11 -7 -26 -7t-26 7l-125 73q-14 8 -14 25q0 8 3 14q8 15 26 15q7 0 14 -4l123 -70z" />
    <glyph glyph-name="ncaron" unicode="&#x148;" horiz-adv-x="558" 
d="M152 31q0 -16 -11.5 -27t-28.5 -11t-28.5 11t-11.5 27v386q0 16 11.5 27t28.5 11t28.5 -11t11.5 -27v-22q23 26 62.5 44.5t84.5 18.5q88 0 137.5 -46t49.5 -152v-229q0 -16 -11.5 -27t-28.5 -11t-28.5 11t-11.5 27v214q0 71 -32 104.5t-95 33.5q-38 0 -71.5 -16.5
t-55.5 -41.5v-294zM356 688q9 9 23 9q12 0 20 -8q9 -8 9 -21q0 -12 -9 -21l-104 -97q-9 -9 -23 -9t-23 9l-102 97q-9 7 -9 21q0 13 10 22q10 8 21 8q14 0 23 -9l82 -82z" />
    <glyph glyph-name="Omacron" unicode="&#x14c;" horiz-adv-x="814" 
d="M407 -10q-76 0 -141.5 26.5t-113.5 74t-75 113.5t-27 146q0 76 26.5 142t74 114.5t113 76t143.5 27.5q76 0 141.5 -26.5t113.5 -74t75 -113.5t27 -146q0 -78 -27 -144t-75 -114t-113.5 -75t-141.5 -27zM407 630q-57 0 -106 -21t-84.5 -58t-56 -88.5t-20.5 -112.5
q0 -60 20.5 -111t56.5 -88.5t85 -59t105 -21.5q60 0 109 21.5t84.5 59t54.5 89t19 110.5q0 61 -20.5 112.5t-56.5 88.5t-85 58t-105 21zM532 835q14 0 23 -9.5t9 -23.5t-9 -23t-23 -9h-240q-14 0 -23 9.5t-9 23.5t9 23t23 9h240z" />
    <glyph glyph-name="omacron" unicode="&#x14d;" 
d="M42 225q0 51 17 94t48.5 74.5t76 49t98.5 17.5t98 -17.5t75.5 -49t49 -74.5t17.5 -94t-17.5 -94t-49 -74.5t-75.5 -49t-98 -17.5t-98.5 17.5t-76 49t-48.5 74.5t-17 94zM127 225q0 -35 11.5 -64.5t32 -50.5t49 -33t62.5 -12t62.5 11.5t49 32.5t32 50.5t11.5 65.5
q0 35 -11.5 64.5t-32 50.5t-49 33t-62.5 12q-33 0 -61.5 -11.5t-49 -32.5t-32.5 -50.5t-12 -65.5zM387 645q14 0 23 -9.5t9 -23.5t-9 -23t-23 -9h-200q-14 0 -23 9.5t-9 23.5t9 23t23 9h200z" />
    <glyph glyph-name="Ohungarumlaut" unicode="&#x150;" horiz-adv-x="814" 
d="M407 -10q-76 0 -141.5 26.5t-113.5 74t-75 113.5t-27 146q0 76 26.5 142t74 114.5t113 76t143.5 27.5q76 0 141.5 -26.5t113.5 -74t75 -113.5t27 -146q0 -78 -27 -144t-75 -114t-113.5 -75t-141.5 -27zM407 630q-57 0 -106 -21t-84.5 -58t-56 -88.5t-20.5 -112.5
q0 -60 20.5 -111t56.5 -88.5t85 -59t105 -21.5q60 0 109 21.5t84.5 59t54.5 89t19 110.5q0 61 -20.5 112.5t-56.5 88.5t-85 58t-105 21zM586 872q7 6 18 6q12 0 22 -8l17 -17q7 -5 7 -13q0 -10 -10 -17l-135 -75q-10 -5 -18 -5q-12 0 -20 8q-6 6 -6 15q0 11 10 19zM381 869
q10 10 25 10q9 0 17 -4l21 -12q9 -5 9 -14t-7 -13l-119 -86q-11 -7 -20 -7q-10 0 -18 8q-7 7 -7 16t9 18z" />
    <glyph glyph-name="ohungarumlaut" unicode="&#x151;" 
d="M42 225q0 51 17 94t48.5 74.5t76 49t98.5 17.5t98 -17.5t75.5 -49t49 -74.5t17.5 -94t-17.5 -94t-49 -74.5t-75.5 -49t-98 -17.5t-98.5 17.5t-76 49t-48.5 74.5t-17 94zM127 225q0 -35 11.5 -64.5t32 -50.5t49 -33t62.5 -12t62.5 11.5t49 32.5t32 50.5t11.5 65.5
q0 35 -11.5 64.5t-32 50.5t-49 33t-62.5 12q-33 0 -61.5 -11.5t-49 -32.5t-32.5 -50.5t-12 -65.5zM409 693q4 6 10 8.5t12 2.5q10 0 18 -6l13 -9q10 -9 10 -22q0 -11 -6 -18l-87 -96q-9 -11 -24 -11q-10 0 -19 6q-12 9 -12 24q0 8 5 16zM244 699q7 12 23 12q8 0 16 -5l12 -9
q11 -8 11 -23q0 -11 -5 -17l-79 -103q-8 -12 -23 -12q-11 0 -18 6q-13 10 -13 25q0 8 5 16z" />
    <glyph glyph-name="OE" unicode="&#x152;" horiz-adv-x="1042" 
d="M938 80q16 0 27.5 -11.5t11.5 -28.5t-11.5 -28.5t-27.5 -11.5h-339q-11 0 -19 8t-8 20q-34 -18 -77 -28t-90 -10q-79 0 -144 25.5t-112 72.5t-73 113.5t-26 148.5q0 75 23.5 141t68.5 114.5t110 76.5t147 28q51 0 94.5 -10.5t78.5 -28.5q0 12 8.5 20.5t20.5 8.5h327
q16 0 27.5 -11.5t11.5 -28.5t-11.5 -28.5t-27.5 -11.5h-271v-226h241q16 0 27.5 -11.5t11.5 -28.5t-11.5 -28.5t-27.5 -11.5h-241v-234h281zM572 578q-35 26 -76.5 39t-95.5 13q-57 0 -105 -20.5t-82.5 -57.5t-53.5 -88.5t-19 -113.5q0 -63 20 -114.5t56 -88t86 -57
t111 -20.5q90 0 159 46v462z" />
    <glyph glyph-name="oe" unicode="&#x153;" horiz-adv-x="842" 
d="M360 225q0 68 29 123q-20 17 -46.5 27t-60.5 10q-33 0 -61.5 -11.5t-49.5 -32.5t-32.5 -50.5t-11.5 -65.5q0 -35 11.5 -64.5t32 -50.5t49 -33t62.5 -12q32 0 59.5 10t47.5 27q-29 52 -29 123zM718 265q-4 56 -38 88t-93 32q-62 0 -98.5 -34t-43.5 -86h273zM607 65
q34 0 60.5 6.5t49.5 20.5q11 7 24 7q17 0 26 -12q7 -8 7 -20q0 -17 -14 -27q-38 -27 -77.5 -38.5t-81.5 -11.5q-98 0 -161 51q-63 -51 -158 -51q-54 0 -98.5 17.5t-76 49t-48.5 74.5t-17 94t17 94t48.5 74.5t76 49t98.5 17.5q47 0 86.5 -13.5t69.5 -38.5q29 24 67.5 38
t86.5 14q43 0 81 -15t66.5 -42t44.5 -65t16 -84v-11.5t-1 -10.5q-1 -12 -11.5 -22t-22.5 -10h-315q5 -64 47.5 -99.5t109.5 -35.5z" />
    <glyph glyph-name="Racute" unicode="&#x154;" horiz-adv-x="627" 
d="M587 32q0 -16 -10.5 -27.5t-28.5 -11.5q-14 0 -24 6.5t-19 17.5l-201 263h-114v-245q0 -17 -12.5 -29.5t-29.5 -12.5q-18 0 -30.5 12.5t-12.5 29.5v623q0 17 12.5 29.5t29.5 12.5q20 0 43 0.5t44 1t37 0.5h22q72 0 119.5 -16.5t76.5 -45t41 -66.5t12 -80q0 -41 -13 -74
t-34 -58t-48.5 -42t-56.5 -24l186 -235q11 -14 11 -29zM190 360h103q30 0 59 9t51 26.5t35.5 42t13.5 55.5q0 27 -8 50.5t-27.5 41t-51 27.5t-77.5 10q-17 0 -45 -0.5t-53 -1.5v-260zM379 874q6 3 12 3q16 0 23 -15l8 -18q2 -4 2 -11q0 -18 -16 -24l-152 -64q-6 -2 -10 -2
q-18 0 -26 15q-3 6 -3 13q0 17 15 25z" />
    <glyph glyph-name="racute" unicode="&#x155;" horiz-adv-x="340" 
d="M152 33q0 -17 -11.5 -28.5t-28.5 -11.5t-28.5 11.5t-11.5 28.5v382q0 17 11.5 28.5t28.5 11.5t28.5 -11.5t11.5 -28.5v-18q17 26 43.5 43.5t69.5 17.5q12 0 22 -2t19 -4q12 -4 20.5 -11.5t8.5 -20.5q0 -3 -0.5 -6t-1.5 -7q-8 -28 -40 -28q-5 0 -10 0.5t-10 1.5
q-7 2 -13.5 2h-13.5q-39 0 -60 -19.5t-34 -44.5v-286zM226 697q7 12 24 12q9 0 17 -6l14 -10q11 -9 11 -23q0 -12 -7 -19l-80 -97q-11 -12 -26 -12q-9 0 -17 5q-13 9 -13 26q0 9 5 17z" />
    <glyph glyph-name="Rcommaaccent" unicode="&#x156;" horiz-adv-x="627" 
d="M587 32q0 -16 -10.5 -27.5t-28.5 -11.5q-14 0 -24 6.5t-19 17.5l-201 263h-114v-245q0 -17 -12.5 -29.5t-29.5 -12.5q-18 0 -30.5 12.5t-12.5 29.5v623q0 17 12.5 29.5t29.5 12.5q20 0 43 0.5t44 1t37 0.5h22q72 0 119.5 -16.5t76.5 -45t41 -66.5t12 -80q0 -41 -13 -74
t-34 -58t-48.5 -42t-56.5 -24l186 -235q11 -14 11 -29zM190 360h103q30 0 59 9t51 26.5t35.5 42t13.5 55.5q0 27 -8 50.5t-27.5 41t-51 27.5t-77.5 10q-17 0 -45 -0.5t-53 -1.5v-260zM274 -200q-6 0 -11.5 2t-8.5 8t-3 11q0 12 12 20q27 18 27 53q0 9 -1 12.5t-4 9.5t-3 11
q0 8 6 14t14 8l27 6q3 1 8 1q19 0 26 -18t7 -33q0 -42 -25 -67t-58 -36q-8 -2 -13 -2z" />
    <glyph glyph-name="rcommaaccent" unicode="&#x157;" horiz-adv-x="340" 
d="M152 33q0 -17 -11.5 -28.5t-28.5 -11.5t-28.5 11.5t-11.5 28.5v382q0 17 11.5 28.5t28.5 11.5t28.5 -11.5t11.5 -28.5v-18q17 26 43.5 43.5t69.5 17.5q12 0 22 -2t19 -4q12 -4 20.5 -11.5t8.5 -20.5q0 -3 -0.5 -6t-1.5 -7q-8 -28 -40 -28q-5 0 -10 0.5t-10 1.5
q-7 2 -13.5 2h-13.5q-39 0 -60 -19.5t-34 -44.5v-286zM117 -200q-6 0 -11.5 2t-8.5 8t-3 11q0 12 12 20q27 18 27 53q0 9 -1 12.5t-4 9.5t-3 11q0 8 6 14t14 8l27 6q3 1 8 1q19 0 26 -18t7 -33q0 -42 -25 -67t-58 -36q-8 -2 -13 -2z" />
    <glyph glyph-name="Rcaron" unicode="&#x158;" horiz-adv-x="627" 
d="M587 32q0 -16 -10.5 -27.5t-28.5 -11.5q-14 0 -24 6.5t-19 17.5l-201 263h-114v-245q0 -17 -12.5 -29.5t-29.5 -12.5q-18 0 -30.5 12.5t-12.5 29.5v623q0 17 12.5 29.5t29.5 12.5q20 0 43 0.5t44 1t37 0.5h22q72 0 119.5 -16.5t76.5 -45t41 -66.5t12 -80q0 -41 -13 -74
t-34 -58t-48.5 -42t-56.5 -24l186 -235q11 -14 11 -29zM190 360h103q30 0 59 9t51 26.5t35.5 42t13.5 55.5q0 27 -8 50.5t-27.5 41t-51 27.5t-77.5 10q-17 0 -45 -0.5t-53 -1.5v-260zM410 875q7 4 16 4q16 0 24 -13q4 -7 4 -15q0 -17 -14 -25l-123 -73q-11 -7 -26 -7t-26 7
l-125 73q-14 8 -14 25q0 8 3 14q8 15 26 15q7 0 14 -4l123 -70z" />
    <glyph glyph-name="rcaron" unicode="&#x159;" horiz-adv-x="340" 
d="M152 33q0 -17 -11.5 -28.5t-28.5 -11.5t-28.5 11.5t-11.5 28.5v382q0 17 11.5 28.5t28.5 11.5t28.5 -11.5t11.5 -28.5v-18q17 26 43.5 43.5t69.5 17.5q12 0 22 -2t19 -4q12 -4 20.5 -11.5t8.5 -20.5q0 -3 -0.5 -6t-1.5 -7q-8 -28 -40 -28q-5 0 -10 0.5t-10 1.5
q-7 2 -13.5 2h-13.5q-39 0 -60 -19.5t-34 -44.5v-286zM277 688q9 9 23 9q12 0 20 -8q9 -8 9 -21q0 -12 -9 -21l-104 -97q-9 -9 -23 -9t-23 9l-102 97q-9 7 -9 21q0 13 10 22q10 8 21 8q14 0 23 -9l82 -82z" />
    <glyph glyph-name="Sacute" unicode="&#x15a;" horiz-adv-x="526" 
d="M252 -10q-56 0 -103 21.5t-91 58.5q-6 5 -9 12.5t-3 15.5q0 14 9 25q12 15 31 15q13 0 23 -7q40 -29 73 -45t71 -16q27 0 52 7t44 21t30 34t11 47q0 43 -25.5 69t-63.5 45.5t-82 36.5t-82 41.5t-63.5 61t-25.5 94.5q0 38 14.5 71.5t41.5 58t66 39t89 14.5q49 0 90 -13
t74 -34q16 -11 16 -32q0 -13 -7 -21q-14 -19 -33 -19q-6 0 -11.5 2t-11.5 5q-25 15 -51 23.5t-61 8.5q-59 0 -92.5 -28t-33.5 -75q0 -43 25.5 -69t63.5 -44.5t82 -35t82 -40.5t63.5 -61t25.5 -97q0 -43 -18 -78t-48.5 -60t-72 -38.5t-89.5 -13.5zM368 874q6 3 12 3
q16 0 23 -15l8 -18q2 -4 2 -11q0 -18 -16 -24l-152 -64q-6 -2 -10 -2q-18 0 -26 15q-3 6 -3 13q0 17 15 25z" />
    <glyph glyph-name="sacute" unicode="&#x15b;" horiz-adv-x="410" 
d="M41 66q0 12 8 22q11 14 28 14q13 0 23 -7q52 -35 104 -35q32 0 56 15.5t24 46.5q0 23 -18 36t-45 22.5t-58.5 19t-58.5 25.5t-45 41.5t-18 66.5q0 60 43 93.5t110 33.5q43 0 73 -10t55 -24q16 -10 16 -28q0 -10 -6 -19q-10 -16 -30 -16q-11 0 -20 5q-19 10 -38.5 16
t-45.5 6q-34 0 -53 -16.5t-19 -39.5q0 -24 18 -37.5t45 -23.5t58.5 -19.5t58.5 -24.5t45 -39.5t18 -63.5q0 -36 -14.5 -61.5t-38.5 -42t-55.5 -24.5t-65.5 -8q-45 0 -78.5 12.5t-62.5 35.5q-13 10 -13 28zM231 697q7 12 24 12q9 0 17 -6l14 -10q11 -9 11 -23q0 -12 -7 -19
l-80 -97q-11 -12 -26 -12q-9 0 -17 5q-13 9 -13 26q0 9 5 17z" />
    <glyph glyph-name="Scircumflex" unicode="&#x15c;" horiz-adv-x="526" 
d="M252 -10q-56 0 -103 21.5t-91 58.5q-6 5 -9 12.5t-3 15.5q0 14 9 25q12 15 31 15q13 0 23 -7q40 -29 73 -45t71 -16q27 0 52 7t44 21t30 34t11 47q0 43 -25.5 69t-63.5 45.5t-82 36.5t-82 41.5t-63.5 61t-25.5 94.5q0 38 14.5 71.5t41.5 58t66 39t89 14.5q49 0 90 -13
t74 -34q16 -11 16 -32q0 -13 -7 -21q-14 -19 -33 -19q-6 0 -11.5 2t-11.5 5q-25 15 -51 23.5t-61 8.5q-59 0 -92.5 -28t-33.5 -75q0 -43 25.5 -69t63.5 -44.5t82 -35t82 -40.5t63.5 -61t25.5 -97q0 -43 -18 -78t-48.5 -60t-72 -38.5t-89.5 -13.5zM253 811l-115 -65
q-8 -5 -17 -5q-16 0 -25 13q-5 6 -5 16q0 17 15 25l122 72q11 7 25 7q15 0 25 -7l126 -73q14 -8 14 -24q0 -10 -4 -15q-8 -15 -26 -15q-7 0 -14 4z" />
    <glyph glyph-name="scircumflex" unicode="&#x15d;" horiz-adv-x="410" 
d="M41 66q0 12 8 22q11 14 28 14q13 0 23 -7q52 -35 104 -35q32 0 56 15.5t24 46.5q0 23 -18 36t-45 22.5t-58.5 19t-58.5 25.5t-45 41.5t-18 66.5q0 60 43 93.5t110 33.5q43 0 73 -10t55 -24q16 -10 16 -28q0 -10 -6 -19q-10 -16 -30 -16q-11 0 -20 5q-19 10 -38.5 16
t-45.5 6q-34 0 -53 -16.5t-19 -39.5q0 -24 18 -37.5t45 -23.5t58.5 -19.5t58.5 -24.5t45 -39.5t18 -63.5q0 -36 -14.5 -61.5t-38.5 -42t-55.5 -24.5t-65.5 -8q-45 0 -78.5 12.5t-62.5 35.5q-13 10 -13 28zM120 547q-10 -8 -21 -8q-12 0 -22 10q-8 8 -8 20q0 14 9 23l102 94
q9 9 23 9t23 -9l99 -94q10 -10 10 -23q0 -12 -9 -21q-10 -10 -23 -10q-11 0 -21 8l-81 71z" />
    <glyph glyph-name="Scedilla" unicode="&#x15e;" horiz-adv-x="526" 
d="M480 180q0 -42 -16.5 -76t-45.5 -58.5t-68 -39t-84 -16.5v-33q56 -3 81 -24t25 -56q0 -36 -32.5 -59t-90.5 -23q-35 0 -58 7.5t-40 18.5q-10 7 -10 18q0 9 4 14q7 12 20 12q6 0 12 -3q13 -7 27 -12t27 -5q24 0 40 9.5t16 26.5q0 18 -11.5 28.5t-28.5 10.5
q-11 0 -17.5 6.5t-6.5 15.5v50q-47 5 -87 25.5t-78 52.5q-6 5 -9 12.5t-3 15.5q0 14 9 25q12 15 31 15q13 0 23 -7q40 -29 73 -45t71 -16q27 0 52 7t44 21t30 34t11 47q0 43 -25.5 69t-63.5 45.5t-82 36.5t-82 41.5t-63.5 61t-25.5 94.5q0 38 14.5 71.5t41.5 58t66 39
t89 14.5q49 0 90 -13t74 -34q16 -11 16 -32q0 -13 -7 -21q-14 -19 -33 -19q-6 0 -11.5 2t-11.5 5q-25 15 -51 23.5t-61 8.5q-59 0 -92.5 -28t-33.5 -75q0 -43 25.5 -69t63.5 -44.5t82 -35t82 -40.5t63.5 -61t25.5 -97z" />
    <glyph glyph-name="scedilla" unicode="&#x15f;" horiz-adv-x="410" 
d="M41 66q0 12 8 22q11 14 28 14q13 0 23 -7q52 -35 104 -35q32 0 56 15.5t24 46.5q0 23 -18 36t-45 22.5t-58.5 19t-58.5 25.5t-45 41.5t-18 66.5q0 60 43 93.5t110 33.5q43 0 73 -10t55 -24q16 -10 16 -28q0 -10 -6 -19q-10 -16 -30 -16q-11 0 -20 5q-19 10 -38.5 16
t-45.5 6q-34 0 -53 -16.5t-19 -39.5q0 -24 18 -37.5t45 -23.5t58.5 -19.5t58.5 -24.5t45 -39.5t18 -63.5q0 -33 -12.5 -57.5t-34 -41t-49.5 -25.5t-59 -11v-34q51 -3 76 -24t25 -56q0 -36 -32.5 -59t-93.5 -23q-29 0 -49 6.5t-35 14.5q-13 6 -13 22q0 6 2 10q5 12 20 12
q7 0 15 -3q12 -5 25 -8.5t25 -3.5q24 0 40 10t16 30q0 15 -10 25t-30 10q-10 0 -17 7t-7 17v47q-36 3 -64 15t-53 32q-13 10 -13 28z" />
    <glyph glyph-name="Scaron" unicode="&#x160;" horiz-adv-x="526" 
d="M252 -10q-56 0 -103 21.5t-91 58.5q-6 5 -9 12.5t-3 15.5q0 14 9 25q12 15 31 15q13 0 23 -7q40 -29 73 -45t71 -16q27 0 52 7t44 21t30 34t11 47q0 43 -25.5 69t-63.5 45.5t-82 36.5t-82 41.5t-63.5 61t-25.5 94.5q0 38 14.5 71.5t41.5 58t66 39t89 14.5q49 0 90 -13
t74 -34q16 -11 16 -32q0 -13 -7 -21q-14 -19 -33 -19q-6 0 -11.5 2t-11.5 5q-25 15 -51 23.5t-61 8.5q-59 0 -92.5 -28t-33.5 -75q0 -43 25.5 -69t63.5 -44.5t82 -35t82 -40.5t63.5 -61t25.5 -97q0 -43 -18 -78t-48.5 -60t-72 -38.5t-89.5 -13.5zM379 875q7 4 16 4
q16 0 24 -13q4 -7 4 -15q0 -17 -14 -25l-123 -73q-11 -7 -26 -7t-26 7l-125 73q-14 8 -14 25q0 8 3 14q8 15 26 15q7 0 14 -4l123 -70z" />
    <glyph glyph-name="scaron" unicode="&#x161;" horiz-adv-x="410" 
d="M41 66q0 12 8 22q11 14 28 14q13 0 23 -7q52 -35 104 -35q32 0 56 15.5t24 46.5q0 23 -18 36t-45 22.5t-58.5 19t-58.5 25.5t-45 41.5t-18 66.5q0 60 43 93.5t110 33.5q43 0 73 -10t55 -24q16 -10 16 -28q0 -10 -6 -19q-10 -16 -30 -16q-11 0 -20 5q-19 10 -38.5 16
t-45.5 6q-34 0 -53 -16.5t-19 -39.5q0 -24 18 -37.5t45 -23.5t58.5 -19.5t58.5 -24.5t45 -39.5t18 -63.5q0 -36 -14.5 -61.5t-38.5 -42t-55.5 -24.5t-65.5 -8q-45 0 -78.5 12.5t-62.5 35.5q-13 10 -13 28zM282 688q9 9 23 9q12 0 20 -8q9 -8 9 -21q0 -12 -9 -21l-104 -97
q-9 -9 -23 -9t-23 9l-102 97q-9 7 -9 21q0 13 10 22q10 8 21 8q14 0 23 -9l82 -82z" />
    <glyph glyph-name="Tcedilla" unicode="&#x162;" horiz-adv-x="595" 
d="M340 35q0 -12 -6 -22t-16 -15v-41q56 -3 81 -24t25 -56q0 -36 -32.5 -59t-90.5 -23q-35 0 -58 7.5t-40 18.5q-10 7 -10 18q0 9 4 14q7 12 20 12q6 0 12 -3q13 -7 27 -12t27 -5q24 0 40 9.5t16 26.5q0 18 -11.5 28.5t-28.5 10.5q-11 0 -17.5 6.5t-6.5 15.5v58
q-20 12 -20 35v585h-206q-16 0 -27.5 11.5t-11.5 28.5t11.5 28.5t27.5 11.5h497q16 0 27.5 -11.5t11.5 -28.5t-11.5 -28.5t-27.5 -11.5h-206v-585z" />
    <glyph glyph-name="tcedilla" unicode="&#x163;" horiz-adv-x="344" 
d="M222 67q20 0 36.5 6t27.5 6q14 0 24 -8.5t10 -24.5q0 -19 -21 -32q-19 -11 -41 -16t-48 -6v-35q51 -3 76 -24t25 -56q0 -36 -32.5 -59t-93.5 -23q-29 0 -49 6.5t-35 14.5q-13 6 -13 22q0 6 2 10q5 12 20 12q7 0 15 -3q12 -5 25 -8.5t25 -3.5q24 0 40 10t16 30
q0 15 -10 25t-30 10q-10 0 -17 7t-7 17v51q-57 11 -81 56t-24 120v366q0 16 11.5 27t28.5 11t28.5 -11t11.5 -27v-87h127q16 0 27 -11t11 -26q0 -16 -11 -27t-27 -11h-127v-196q0 -54 18.5 -83t61.5 -29z" />
    <glyph glyph-name="Tcaron" unicode="&#x164;" horiz-adv-x="595" 
d="M340 35q0 -17 -12.5 -29.5t-29.5 -12.5q-18 0 -30.5 12.5t-12.5 29.5v585h-206q-16 0 -27.5 11.5t-11.5 28.5t11.5 28.5t27.5 11.5h497q16 0 27.5 -11.5t11.5 -28.5t-11.5 -28.5t-27.5 -11.5h-206v-585zM414 875q7 4 16 4q16 0 24 -13q4 -7 4 -15q0 -17 -14 -25l-123 -73
q-11 -7 -26 -7t-26 7l-125 73q-14 8 -14 25q0 8 3 14q8 15 26 15q7 0 14 -4l123 -70z" />
    <glyph glyph-name="tcaron" unicode="&#x165;" horiz-adv-x="344" 
d="M222 67q20 0 36.5 6t27.5 6q14 0 24 -8.5t10 -24.5q0 -19 -21 -32q-20 -12 -43.5 -17t-52.5 -5q-76 0 -108.5 46t-32.5 133v366q0 16 11.5 27t28.5 11t28.5 -11t11.5 -27v-87h127q16 0 27 -11t11 -26q0 -16 -11 -27t-27 -11h-127v-196q0 -54 18.5 -83t61.5 -29zM244 514
q-10 0 -17 6q-8 7 -8 18q0 13 10 24q15 18 21.5 41t6.5 50q0 7 -0.5 12.5t-1.5 10.5q0 2 -0.5 3t-0.5 3q0 18 21 18h28q14 0 20.5 -8.5t7.5 -16.5q1 -3 1 -6.5v-6.5q0 -51 -20.5 -86t-43.5 -53q-12 -9 -24 -9z" />
    <glyph glyph-name="Umacron" unicode="&#x16a;" horiz-adv-x="751" 
d="M180 315q0 -115 53 -179.5t152 -64.5q87 0 136.5 59t49.5 179v355q0 17 12.5 29t30.5 12q17 0 29.5 -12t12.5 -29v-372q0 -80 -22 -137t-59.5 -93.5t-86.5 -53.5t-103 -17q-63 0 -116 19.5t-92 58t-60.5 96t-21.5 134.5v365q0 17 12.5 29t30.5 12q17 0 29.5 -12t12.5 -29
v-349v0zM500 835q14 0 23 -9.5t9 -23.5t-9 -23t-23 -9h-240q-14 0 -23 9.5t-9 23.5t9 23t23 9h240z" />
    <glyph glyph-name="umacron" unicode="&#x16b;" horiz-adv-x="540" 
d="M387 417q0 16 11.5 27t28.5 11t28.5 -11t11.5 -27v-386q0 -16 -11.5 -27t-28.5 -11t-28.5 11t-11.5 27v33q-23 -29 -64 -51.5t-95 -22.5q-75 0 -120.5 46.5t-45.5 145.5v235q0 16 11.5 27t28.5 11t28.5 -11t11.5 -27v-217q0 -64 27 -99.5t89 -35.5q39 0 73.5 20t55.5 47
v285zM367 645q14 0 23 -9.5t9 -23.5t-9 -23t-23 -9h-200q-14 0 -23 9.5t-9 23.5t9 23t23 9h200z" />
    <glyph glyph-name="Ubreve" unicode="&#x16c;" horiz-adv-x="751" 
d="M180 315q0 -115 53 -179.5t152 -64.5q87 0 136.5 59t49.5 179v355q0 17 12.5 29t30.5 12q17 0 29.5 -12t12.5 -29v-372q0 -80 -22 -137t-59.5 -93.5t-86.5 -53.5t-103 -17q-63 0 -116 19.5t-92 58t-60.5 96t-21.5 134.5v365q0 17 12.5 29t30.5 12q17 0 29.5 -12t12.5 -29
v-349v0zM519 870q12 0 20 -7q9 -8 9 -21q0 -8 -5 -15q-30 -35 -72.5 -58.5t-93.5 -23.5q-59 0 -100.5 23t-69.5 57q-5 7 -5 15q0 14 11 23q8 7 19 7t21 -8q19 -17 49 -32t75 -15q40 0 70.5 13.5t51.5 33.5q8 8 20 8z" />
    <glyph glyph-name="ubreve" unicode="&#x16d;" horiz-adv-x="540" 
d="M387 417q0 16 11.5 27t28.5 11t28.5 -11t11.5 -27v-386q0 -16 -11.5 -27t-28.5 -11t-28.5 11t-11.5 27v33q-23 -29 -64 -51.5t-95 -22.5q-75 0 -120.5 46.5t-45.5 145.5v235q0 16 11.5 27t28.5 11t28.5 -11t11.5 -27v-217q0 -64 27 -99.5t89 -35.5q39 0 73.5 20t55.5 47
v285zM388 670q9 0 18 -7q8 -8 8 -19q0 -8 -7 -17q-11 -13 -25.5 -25.5t-32 -23t-38 -17t-44.5 -6.5q-50 0 -84 23t-54 48q-6 7 -6 18q0 12 9 20q10 8 19 8q12 0 23 -11q16 -16 39 -28.5t57 -12.5q30 0 54 11.5t42 28.5q12 10 22 10z" />
    <glyph glyph-name="Uring" unicode="&#x16e;" horiz-adv-x="751" 
d="M180 315q0 -115 53 -179.5t152 -64.5q87 0 136.5 59t49.5 179v355q0 17 12.5 29t30.5 12q17 0 29.5 -12t12.5 -29v-372q0 -80 -22 -137t-59.5 -93.5t-86.5 -53.5t-103 -17q-63 0 -116 19.5t-92 58t-60.5 96t-21.5 134.5v365q0 17 12.5 29t30.5 12q17 0 29.5 -12t12.5 -29
v-349v0zM251 792q0 25 10 43t26.5 30t39 17.5t48.5 5.5t49 -5.5t40 -17.5t27 -30t10 -43t-10 -43.5t-27 -31t-40 -19t-49 -6.5q-51 0 -87.5 25t-36.5 75zM311 792q0 -28 18.5 -41.5t46.5 -13.5q27 0 46 13.5t19 41.5q0 27 -19 39t-46 12q-28 0 -46.5 -12t-18.5 -39z" />
    <glyph glyph-name="uring" unicode="&#x16f;" horiz-adv-x="540" 
d="M387 417q0 16 11.5 27t28.5 11t28.5 -11t11.5 -27v-386q0 -16 -11.5 -27t-28.5 -11t-28.5 11t-11.5 27v33q-23 -29 -64 -51.5t-95 -22.5q-75 0 -120.5 46.5t-45.5 145.5v235q0 16 11.5 27t28.5 11t28.5 -11t11.5 -27v-217q0 -64 27 -99.5t89 -35.5q39 0 73.5 20t55.5 47
v285zM266 503q-24 0 -45 8.5t-36.5 23.5t-24 35t-8.5 43t8.5 43t24 35t36.5 24t45 9q25 0 46 -9t36.5 -24t24.5 -35t9 -43t-9 -43t-24.5 -35t-36.5 -23.5t-46 -8.5zM267 679q-27 0 -45 -19t-18 -46q0 -28 18 -47t45 -19t45 19t18 47q0 27 -18 46t-45 19z" />
    <glyph glyph-name="Uhungarumlaut" unicode="&#x170;" horiz-adv-x="751" 
d="M180 315q0 -115 53 -179.5t152 -64.5q87 0 136.5 59t49.5 179v355q0 17 12.5 29t30.5 12q17 0 29.5 -12t12.5 -29v-372q0 -80 -22 -137t-59.5 -93.5t-86.5 -53.5t-103 -17q-63 0 -116 19.5t-92 58t-60.5 96t-21.5 134.5v365q0 17 12.5 29t30.5 12q17 0 29.5 -12t12.5 -29
v-349v0zM541 872q7 6 18 6q12 0 22 -8l17 -17q7 -5 7 -13q0 -10 -10 -17l-135 -75q-10 -5 -18 -5q-12 0 -20 8q-6 6 -6 15q0 11 10 19zM336 869q10 10 25 10q9 0 17 -4l21 -12q9 -5 9 -14t-7 -13l-119 -86q-11 -7 -20 -7q-10 0 -18 8q-7 7 -7 16t9 18z" />
    <glyph glyph-name="uhungarumlaut" unicode="&#x171;" horiz-adv-x="540" 
d="M387 417q0 16 11.5 27t28.5 11t28.5 -11t11.5 -27v-386q0 -16 -11.5 -27t-28.5 -11t-28.5 11t-11.5 27v33q-23 -29 -64 -51.5t-95 -22.5q-75 0 -120.5 46.5t-45.5 145.5v235q0 16 11.5 27t28.5 11t28.5 -11t11.5 -27v-217q0 -64 27 -99.5t89 -35.5q39 0 73.5 20t55.5 47
v285zM394 693q4 6 10 8.5t12 2.5q10 0 18 -6l13 -9q10 -9 10 -22q0 -11 -6 -18l-87 -96q-9 -11 -24 -11q-10 0 -19 6q-12 9 -12 24q0 8 5 16zM229 699q7 12 23 12q8 0 16 -5l12 -9q11 -8 11 -23q0 -11 -5 -17l-79 -103q-8 -12 -23 -12q-11 0 -18 6q-13 10 -13 25q0 8 5 16z
" />
    <glyph glyph-name="Uogonek" unicode="&#x172;" horiz-adv-x="751" 
d="M180 315q0 -115 53 -179.5t152 -64.5q87 0 136.5 59t49.5 179v355q0 17 12.5 29t30.5 12q17 0 29.5 -12t12.5 -29v-372q0 -78 -20.5 -133.5t-56 -92t-82 -55t-97.5 -20.5q-26 -11 -43 -30.5t-17 -42.5q0 -16 6 -26t15 -16t19.5 -8.5t19.5 -2.5q11 0 22 3q8 2 12 2
q21 0 27 -21q1 -3 1 -9q0 -18 -22 -29q-24 -11 -58 -11q-22 0 -43.5 4.5t-39 15.5t-28.5 28.5t-11 43.5q0 35 21.5 60.5t55.5 41.5q-54 7 -98.5 29.5t-76.5 60.5t-49.5 92t-17.5 123v365q0 17 12.5 29t30.5 12q17 0 29.5 -12t12.5 -29v-349v0z" />
    <glyph glyph-name="uogonek" unicode="&#x173;" horiz-adv-x="540" 
d="M387 417q0 16 11.5 27t28.5 11t28.5 -11t11.5 -27v-386q0 -16 -11.5 -27t-28.5 -11q-10 0 -20 5q-33 -8 -55.5 -31t-22.5 -49q0 -16 6 -26t15 -16t19.5 -8.5t19.5 -2.5q11 0 22 3q8 2 12 2q21 0 27 -21q1 -3 1 -9q0 -18 -22 -29q-24 -11 -58 -11q-22 0 -43.5 4.5
t-39 15.5t-28.5 28.5t-11 43.5q0 25 12 45.5t31.5 35.5t45 25t53.5 15q-4 7 -4 18v33q-23 -29 -64 -51.5t-95 -22.5q-75 0 -120.5 46.5t-45.5 145.5v235q0 16 11.5 27t28.5 11t28.5 -11t11.5 -27v-217q0 -64 27 -99.5t89 -35.5q39 0 73.5 20t55.5 47v285z" />
    <glyph glyph-name="Ydieresis" unicode="&#x178;" horiz-adv-x="584" 
d="M28 664q0 17 11.5 29t31.5 12q14 0 23 -7t19 -24l180 -294l181 294q9 15 19.5 23t24.5 8q19 0 28.5 -11t9.5 -25q0 -11 -7 -23l-217 -346v-265q0 -17 -12.5 -29.5t-29.5 -12.5q-18 0 -30.5 12.5t-12.5 29.5v265l-212 340q-7 11 -7 24zM121 813q0 21 16 33t39 12
q20 0 36 -12t16 -33q0 -23 -16 -35.5t-36 -12.5q-23 0 -39 12.5t-16 35.5zM353 813q0 21 16.5 33t39.5 12q20 0 35.5 -11.5t15.5 -33.5q0 -23 -15.5 -35.5t-35.5 -12.5q-23 0 -39.5 12.5t-16.5 35.5z" />
    <glyph glyph-name="Zacute" unicode="&#x179;" horiz-adv-x="625" 
d="M58 0q-15 0 -24.5 8t-9.5 22t6 24t14 21l414 545h-369q-16 0 -27.5 11.5t-11.5 28.5t11.5 28.5t27.5 11.5h459q15 0 24.5 -8t9.5 -24q0 -12 -7 -23.5t-14 -19.5l-416 -545h401q16 0 27.5 -11.5t11.5 -28.5t-11.5 -28.5t-27.5 -11.5h-488zM414 874q6 3 12 3q16 0 23 -15
l8 -18q2 -4 2 -11q0 -18 -16 -24l-152 -64q-6 -2 -10 -2q-18 0 -26 15q-3 6 -3 13q0 17 15 25z" />
    <glyph glyph-name="zacute" unicode="&#x17a;" horiz-adv-x="456" 
d="M74 0q-16 0 -28 10t-12 28q0 8 4 16.5t9 13.5l262 307h-224q-16 0 -27 11t-11 27q0 15 11 26t27 11h296q16 0 27.5 -9.5t11.5 -29.5q0 -8 -3.5 -15.5t-8.5 -13.5l-263 -307h239q16 0 27 -11t11 -26q0 -16 -11 -27t-27 -11h-310v0zM267 697q7 12 24 12q9 0 17 -6l14 -10
q11 -9 11 -23q0 -12 -7 -19l-80 -97q-11 -12 -26 -12q-9 0 -17 5q-13 9 -13 26q0 9 5 17z" />
    <glyph glyph-name="Zdotaccent" unicode="&#x17b;" horiz-adv-x="625" 
d="M58 0q-15 0 -24.5 8t-9.5 22t6 24t14 21l414 545h-369q-16 0 -27.5 11.5t-11.5 28.5t11.5 28.5t27.5 11.5h459q15 0 24.5 -8t9.5 -24q0 -12 -7 -23.5t-14 -19.5l-416 -545h401q16 0 27.5 -11.5t11.5 -28.5t-11.5 -28.5t-27.5 -11.5h-488zM250 817q0 24 17 37.5t40 13.5
q21 0 37.5 -13.5t16.5 -37.5q0 -26 -16.5 -40t-37.5 -14q-23 0 -40 14t-17 40z" />
    <glyph glyph-name="zdotaccent" unicode="&#x17c;" horiz-adv-x="456" 
d="M74 0q-16 0 -28 10t-12 28q0 8 4 16.5t9 13.5l262 307h-224q-16 0 -27 11t-11 27q0 15 11 26t27 11h296q16 0 27.5 -9.5t11.5 -29.5q0 -8 -3.5 -15.5t-8.5 -13.5l-263 -307h239q16 0 27 -11t11 -26q0 -16 -11 -27t-27 -11h-310v0zM176 619q0 22 15.5 35t36.5 13
q19 0 34 -13t15 -35q0 -25 -15 -38.5t-34 -13.5q-21 0 -36.5 13.5t-15.5 38.5z" />
    <glyph glyph-name="Zcaron" unicode="&#x17d;" horiz-adv-x="625" 
d="M58 0q-15 0 -24.5 8t-9.5 22t6 24t14 21l414 545h-369q-16 0 -27.5 11.5t-11.5 28.5t11.5 28.5t27.5 11.5h459q15 0 24.5 -8t9.5 -24q0 -12 -7 -23.5t-14 -19.5l-416 -545h401q16 0 27.5 -11.5t11.5 -28.5t-11.5 -28.5t-27.5 -11.5h-488zM430 875q7 4 16 4q16 0 24 -13
q4 -7 4 -15q0 -17 -14 -25l-123 -73q-11 -7 -26 -7t-26 7l-125 73q-14 8 -14 25q0 8 3 14q8 15 26 15q7 0 14 -4l123 -70z" />
    <glyph glyph-name="zcaron" unicode="&#x17e;" horiz-adv-x="456" 
d="M74 0q-16 0 -28 10t-12 28q0 8 4 16.5t9 13.5l262 307h-224q-16 0 -27 11t-11 27q0 15 11 26t27 11h296q16 0 27.5 -9.5t11.5 -29.5q0 -8 -3.5 -15.5t-8.5 -13.5l-263 -307h239q16 0 27 -11t11 -26q0 -16 -11 -27t-27 -11h-310v0zM317 688q9 9 23 9q12 0 20 -8
q9 -8 9 -21q0 -12 -9 -21l-104 -97q-9 -9 -23 -9t-23 9l-102 97q-9 7 -9 21q0 13 10 22q10 8 21 8q14 0 23 -9l82 -82z" />
    <glyph glyph-name="longs" unicode="&#x17f;" horiz-adv-x="284" 
d="M302 626q-12 5 -23.5 7t-25.5 2q-43 0 -67 -29t-24 -92v-483q0 -16 -11.5 -27t-28.5 -11t-28.5 11t-11.5 27v492q0 94 41.5 140.5t116.5 46.5q31 0 55 -6.5t41 -16.5q14 -8 18 -16t4 -16q0 -14 -9 -24t-26 -10q-8 0 -21 5z" />
    <glyph glyph-name="Schwa" unicode="&#x18f;" horiz-adv-x="766" 
d="M138 622q0 19 17 31q45 29 96.5 43t113.5 14q78 0 143 -25.5t111 -72t71.5 -112.5t25.5 -148q0 -80 -24.5 -146.5t-69.5 -114.5t-109.5 -74.5t-143.5 -26.5q-75 0 -136.5 26t-106 73.5t-69 115t-24.5 150.5q0 17 12.5 29.5t29.5 12.5h549q-6 54 -28.5 97.5t-58.5 73.5
t-84.5 46t-106.5 16q-38 0 -75 -8.5t-71 -28.5q-11 -7 -25 -7q-18 0 -30 15q-7 10 -7 21zM123 317q2 -51 19.5 -95.5t49 -78.5t76 -53.5t100.5 -19.5t101.5 18t79 50t53.5 77.5t25 101.5h-504z" />
    <glyph glyph-name="florin" unicode="&#x192;" horiz-adv-x="585" 
d="M278 450l13 73q18 96 56 141.5t113 45.5q32 0 57.5 -7.5t45.5 -19.5q19 -12 19 -30q0 -9 -5 -17q-10 -17 -28 -17q-12 0 -23 5q-13 5 -26 8t-35 3q-41 0 -61.5 -28.5t-32.5 -92.5l-12 -64h110q14 0 24 -10t10 -27t-10 -27.5t-24 -10.5h-123l-72 -408q-15 -84 -51 -129.5
t-106 -45.5q-23 0 -44.5 4t-38.5 14q-20 11 -20 34q0 9 4 16q10 16 27 16q8 0 25 -5q6 -2 13 -3t15 -1q44 0 65.5 28.5t30.5 79.5l71 400h-105q-14 0 -24 10.5t-10 27.5t10 27t24 10h118z" />
    <glyph glyph-name="eturn" unicode="&#x1dd;" horiz-adv-x="515" 
d="M120 190q2 -61 37 -93t96 -32q60 0 97.5 35.5t42.5 89.5h-273zM241 385q-33 0 -59.5 -6.5t-50.5 -20.5q-11 -6 -22 -6q-17 0 -27 15q-5 8 -5 16q0 19 19 32q33 23 71 34t80 11q55 0 98 -17t72.5 -47.5t45 -74t15.5 -96.5q0 -49 -15.5 -92t-44.5 -74.5t-72 -50t-97 -18.5
q-45 0 -83.5 14.5t-67 41.5t-45 65t-16.5 85v12.5t1 13.5q1 12 12 22.5t24 10.5h314q-2 28 -12.5 51.5t-29.5 41t-45.5 27.5t-59.5 10z" />
    <glyph glyph-name="Scommaaccent" unicode="&#x218;" horiz-adv-x="526" 
d="M252 -10q-56 0 -103 21.5t-91 58.5q-6 5 -9 12.5t-3 15.5q0 14 9 25q12 15 31 15q13 0 23 -7q40 -29 73 -45t71 -16q27 0 52 7t44 21t30 34t11 47q0 43 -25.5 69t-63.5 45.5t-82 36.5t-82 41.5t-63.5 61t-25.5 94.5q0 38 14.5 71.5t41.5 58t66 39t89 14.5q49 0 90 -13
t74 -34q16 -11 16 -32q0 -13 -7 -21q-14 -19 -33 -19q-6 0 -11.5 2t-11.5 5q-25 15 -51 23.5t-61 8.5q-59 0 -92.5 -28t-33.5 -75q0 -43 25.5 -69t63.5 -44.5t82 -35t82 -40.5t63.5 -61t25.5 -97q0 -43 -18 -78t-48.5 -60t-72 -38.5t-89.5 -13.5zM218 -200q-6 0 -11.5 2
t-8.5 8t-3 11q0 12 12 20q27 18 27 53q0 9 -1 12.5t-4 9.5t-3 11q0 8 6 14t14 8l27 6q3 1 8 1q19 0 26 -18t7 -33q0 -42 -25 -67t-58 -36q-8 -2 -13 -2z" />
    <glyph glyph-name="scommaaccent" unicode="&#x219;" horiz-adv-x="410" 
d="M41 66q0 12 8 22q11 14 28 14q13 0 23 -7q52 -35 104 -35q32 0 56 15.5t24 46.5q0 23 -18 36t-45 22.5t-58.5 19t-58.5 25.5t-45 41.5t-18 66.5q0 60 43 93.5t110 33.5q43 0 73 -10t55 -24q16 -10 16 -28q0 -10 -6 -19q-10 -16 -30 -16q-11 0 -20 5q-19 10 -38.5 16
t-45.5 6q-34 0 -53 -16.5t-19 -39.5q0 -24 18 -37.5t45 -23.5t58.5 -19.5t58.5 -24.5t45 -39.5t18 -63.5q0 -36 -14.5 -61.5t-38.5 -42t-55.5 -24.5t-65.5 -8q-45 0 -78.5 12.5t-62.5 35.5q-13 10 -13 28zM162 -200q-6 0 -11.5 2t-8.5 8t-3 11q0 12 12 20q27 18 27 53
q0 9 -1 12.5t-4 9.5t-3 11q0 8 6 14t14 8l27 6q3 1 8 1q19 0 26 -18t7 -33q0 -42 -25 -67t-58 -36q-8 -2 -13 -2z" />
    <glyph glyph-name="Tcommaaccent" unicode="&#x21a;" horiz-adv-x="595" 
d="M340 35q0 -17 -12.5 -29.5t-29.5 -12.5q-18 0 -30.5 12.5t-12.5 29.5v585h-206q-16 0 -27.5 11.5t-11.5 28.5t11.5 28.5t27.5 11.5h497q16 0 27.5 -11.5t11.5 -28.5t-11.5 -28.5t-27.5 -11.5h-206v-585zM254 -200q-6 0 -11.5 2t-8.5 8t-3 11q0 12 12 20q27 18 27 53
q0 9 -1 12.5t-4 9.5t-3 11q0 8 6 14t14 8l27 6q3 1 8 1q19 0 26 -18t7 -33q0 -42 -25 -67t-58 -36q-8 -2 -13 -2z" />
    <glyph glyph-name="tcommaaccent" unicode="&#x21b;" horiz-adv-x="344" 
d="M222 67q20 0 36.5 6t27.5 6q14 0 24 -8.5t10 -24.5q0 -19 -21 -32q-20 -12 -43.5 -17t-52.5 -5q-76 0 -108.5 46t-32.5 133v366q0 16 11.5 27t28.5 11t28.5 -11t11.5 -27v-87h127q16 0 27 -11t11 -26q0 -16 -11 -27t-27 -11h-127v-196q0 -54 18.5 -83t61.5 -29zM141 -200
q-6 0 -11.5 2t-8.5 8t-3 11q0 12 12 20q27 18 27 53q0 9 -1 12.5t-4 9.5t-3 11q0 8 6 14t14 8l27 6q3 1 8 1q19 0 26 -18t7 -33q0 -42 -25 -67t-58 -36q-8 -2 -13 -2z" />
    <glyph glyph-name="dotlessj" unicode="&#x237;" horiz-adv-x="283" 
d="M115 417q0 16 11.5 27t28.5 11t28.5 -11t11.5 -27v-450q0 -83 -33 -129t-108 -46q-41 0 -70 11q-26 10 -26 35q0 16 10 25t27 9h8.5t8.5 -2q12 -3 24 -3q43 0 61 28t18 78v444z" />
    <glyph glyph-name="schwa" unicode="&#x259;" horiz-adv-x="515" 
d="M120 190q2 -61 37 -93t96 -32q60 0 97.5 35.5t42.5 89.5h-273zM241 385q-33 0 -59.5 -6.5t-50.5 -20.5q-11 -6 -22 -6q-17 0 -27 15q-5 8 -5 16q0 19 19 32q33 23 71 34t80 11q55 0 98 -17t72.5 -47.5t45 -74t15.5 -96.5q0 -49 -15.5 -92t-44.5 -74.5t-72 -50t-97 -18.5
q-45 0 -83.5 14.5t-67 41.5t-45 65t-16.5 85v12.5t1 13.5q1 12 12 22.5t24 10.5h314q-2 28 -12.5 51.5t-29.5 41t-45.5 27.5t-59.5 10z" />
    <glyph glyph-name="afii57929" unicode="&#x2bc;" horiz-adv-x="221" 
d="M79 446q-11 0 -18 7q-9 9 -9 19t9 19q14 17 21 37t7 43q0 11 -2 20t-5 17q-2 5 -3 8.5t-1 7.5q0 12 16 22l22 13q6 3 12 3q15 0 22 -13q14 -26 14 -61q0 -49 -19 -82t-45 -53q-9 -7 -21 -7z" />
    <glyph glyph-name="circumflex" unicode="&#x2c6;" horiz-adv-x="404" 
d="M121 547q-10 -8 -21 -8q-12 0 -22 10q-8 8 -8 20q0 14 9 23l102 94q9 9 23 9t23 -9l99 -94q10 -10 10 -23q0 -12 -9 -21q-10 -10 -23 -10q-11 0 -21 8l-81 71z" />
    <glyph glyph-name="caron" unicode="&#x2c7;" horiz-adv-x="404" 
d="M285 688q9 9 23 9q12 0 20 -8q9 -8 9 -21q0 -12 -9 -21l-104 -97q-9 -9 -23 -9t-23 9l-102 97q-9 7 -9 21q0 13 10 22q10 8 21 8q14 0 23 -9l82 -82z" />
    <glyph glyph-name="breve" unicode="&#x2d8;" horiz-adv-x="415" 
d="M329 670q9 0 18 -7q8 -8 8 -19q0 -8 -7 -17q-11 -13 -25.5 -25.5t-32 -23t-38 -17t-44.5 -6.5q-50 0 -84 23t-54 48q-6 7 -6 18q0 12 9 20q10 8 19 8q12 0 23 -11q16 -16 39 -28.5t57 -12.5q30 0 54 11.5t42 28.5q12 10 22 10z" />
    <glyph glyph-name="dotaccent" unicode="&#x2d9;" horiz-adv-x="221" 
d="M60 619q0 22 15.5 35t36.5 13q19 0 34 -13t15 -35q0 -25 -15 -38.5t-34 -13.5q-21 0 -36.5 13.5t-15.5 38.5z" />
    <glyph glyph-name="ring" unicode="&#x2da;" horiz-adv-x="350" 
d="M174 503q-24 0 -45 8.5t-36.5 23.5t-24 35t-8.5 43t8.5 43t24 35t36.5 24t45 9q25 0 46 -9t36.5 -24t24.5 -35t9 -43t-9 -43t-24.5 -35t-36.5 -23.5t-46 -8.5zM175 679q-27 0 -45 -19t-18 -46q0 -28 18 -47t45 -19t45 19t18 47q0 27 -18 46t-45 19z" />
    <glyph glyph-name="ogonek" unicode="&#x2db;" horiz-adv-x="328" 
d="M244 0q-21 0 -40 -7t-33 -18.5t-22.5 -26.5t-8.5 -30q0 -16 6 -26t15 -16t19.5 -8.5t19.5 -2.5q11 0 22 3q8 2 12 2q21 0 27 -21q1 -3 1 -9q0 -18 -22 -29q-24 -11 -58 -11q-22 0 -43.5 4.5t-39 15.5t-28.5 28.5t-11 43.5q0 30 16.5 53t42.5 39t59 24.5t66 8.5h15v-17
h-15z" />
    <glyph glyph-name="tilde" unicode="&#x2dc;" horiz-adv-x="442" 
d="M378 614q0 -13 -8 -20q-28 -24 -50.5 -34.5t-42.5 -10.5q-17 0 -31.5 6.5t-28.5 15t-28 15t-31 6.5q-11 0 -23 -7.5t-26 -16.5q-11 -6 -20 -6q-10 0 -19 9q-5 7 -5 14q0 13 13 25q26 22 46 30.5t41 8.5q18 0 33 -6.5t29 -14.5t28 -14.5t29 -6.5q14 0 25.5 8t25.5 18
q7 6 17 6q11 0 21 -10q5 -5 5 -15z" />
    <glyph glyph-name="hungarumlaut" unicode="&#x2dd;" horiz-adv-x="448" 
d="M312 693q4 6 10 8.5t12 2.5q10 0 18 -6l13 -9q10 -9 10 -22q0 -11 -6 -18l-87 -96q-9 -11 -24 -11q-10 0 -19 6q-12 9 -12 24q0 8 5 16zM147 699q7 12 23 12q8 0 16 -5l12 -9q11 -8 11 -23q0 -11 -5 -17l-79 -103q-8 -12 -23 -12q-11 0 -18 6q-13 10 -13 25q0 8 5 16z
" />
    <glyph glyph-name="gravecomb" unicode="&#x300;" horiz-adv-x="0" 
d="M-238 591q6 -8 6 -18q0 -15 -13 -25q-7 -5 -17 -5q-8 0 -15.5 3t-12.5 9l-79 94q-7 8 -7 20q0 14 11 23l13 10q7 6 18 6q15 0 25 -13z" />
    <glyph glyph-name="acutecomb" unicode="&#x301;" horiz-adv-x="0" 
d="M-231 697q7 12 24 12q9 0 17 -6l14 -10q11 -9 11 -23q0 -12 -7 -19l-80 -97q-11 -12 -26 -12q-9 0 -17 5q-13 9 -13 26q0 9 5 17z" />
    <glyph glyph-name="Delta" unicode="&#x394;" horiz-adv-x="696" 
d="M306 680q7 16 15.5 22.5t20.5 6.5q14 0 23.5 -6t17.5 -23l273 -623q4 -10 4 -16q0 -17 -12 -29t-29 -12h-542q-17 0 -29 12t-12 29q0 6 4 16zM342 564l-204 -484h416z" />
    <glyph glyph-name="Delta" unicode="&#x2206;" horiz-adv-x="696" 
d="M306 680q7 16 15.5 22.5t20.5 6.5q14 0 23.5 -6t17.5 -23l273 -623q4 -10 4 -16q0 -17 -12 -29t-29 -12h-542q-17 0 -29 12t-12 29q0 6 4 16zM342 564l-204 -484h416z" />
    <glyph glyph-name="Omega" unicode="&#x3a9;" horiz-adv-x="816" 
d="M146 355q0 -41 12 -81.5t34.5 -76t54.5 -63.5t72 -45q35 -15 35 -46q0 -19 -11 -31t-30 -12h-206q-16 0 -27.5 11.5t-11.5 28.5t11.5 28.5t27.5 11.5h130q-35 12 -67.5 38t-58 64t-40.5 85.5t-15 102.5q0 76 27.5 138.5t75 107.5t111.5 69.5t138 24.5q75 0 139.5 -24.5
t111.5 -69.5t74 -107.5t27 -138.5q0 -57 -15.5 -105t-41 -85.5t-58.5 -62.5t-67 -37h130q16 0 27.5 -11.5t11.5 -28.5t-11.5 -28.5t-27.5 -11.5h-207q-18 0 -29 12t-11 32q0 30 35 45q40 17 72.5 44.5t55 62t34.5 75.5t12 85q0 56 -18.5 105.5t-53 87t-83 59.5t-107.5 22
q-60 0 -108.5 -22t-82.5 -59.5t-52.5 -87.5t-18.5 -106z" />
    <glyph glyph-name="Omega" unicode="&#x2126;" horiz-adv-x="816" 
d="M146 355q0 -41 12 -81.5t34.5 -76t54.5 -63.5t72 -45q35 -15 35 -46q0 -19 -11 -31t-30 -12h-206q-16 0 -27.5 11.5t-11.5 28.5t11.5 28.5t27.5 11.5h130q-35 12 -67.5 38t-58 64t-40.5 85.5t-15 102.5q0 76 27.5 138.5t75 107.5t111.5 69.5t138 24.5q75 0 139.5 -24.5
t111.5 -69.5t74 -107.5t27 -138.5q0 -57 -15.5 -105t-41 -85.5t-58.5 -62.5t-67 -37h130q16 0 27.5 -11.5t11.5 -28.5t-11.5 -28.5t-27.5 -11.5h-207q-18 0 -29 12t-11 32q0 30 35 45q40 17 72.5 44.5t55 62t34.5 75.5t12 85q0 56 -18.5 105.5t-53 87t-83 59.5t-107.5 22
q-60 0 -108.5 -22t-82.5 -59.5t-52.5 -87.5t-18.5 -106z" />
    <glyph glyph-name="pi" unicode="&#x3c0;" horiz-adv-x="623" 
d="M403 375h-192v-61q0 -97 -16 -159.5t-39 -98.5t-47.5 -49.5t-41.5 -13.5q-21 0 -32 10.5t-11 27.5q0 27 29 40q16 7 30.5 22t25 41t16.5 66.5t6 98.5v76h-59q-14 0 -24.5 10.5t-10.5 27.5q0 16 10.5 26.5t24.5 10.5h466q14 0 24.5 -10.5t10.5 -26.5q0 -17 -10.5 -27.5
t-24.5 -10.5h-55v-219q0 -46 12 -67.5t41 -21.5q13 0 25 2.5t20 2.5q10 0 21.5 -7.5t11.5 -24.5t-9.5 -26.5t-24 -14t-31 -5.5t-29.5 -1q-56 0 -86.5 30.5t-30.5 96.5v255z" />
    <glyph glyph-name="afii10023" unicode="&#x401;" horiz-adv-x="575" 
d="M471 80q16 0 27.5 -11.5t11.5 -28.5t-11.5 -28.5t-27.5 -11.5h-324q-17 0 -29.5 12.5t-12.5 29.5v616q0 17 12.5 29.5t29.5 12.5h314q16 0 27.5 -11.5t11.5 -28.5t-11.5 -28.5t-27.5 -11.5h-271v-226h241q16 0 27.5 -11.5t11.5 -28.5t-11.5 -28.5t-27.5 -11.5h-241v-234
h281zM139 813q0 21 16 33t39 12q20 0 36 -12t16 -33q0 -23 -16 -35.5t-36 -12.5q-23 0 -39 12.5t-16 35.5zM371 813q0 21 16.5 33t39.5 12q20 0 35.5 -11.5t15.5 -33.5q0 -23 -15.5 -35.5t-35.5 -12.5q-23 0 -39.5 12.5t-16.5 35.5z" />
    <glyph glyph-name="afii10051" unicode="&#x402;" horiz-adv-x="762" 
d="M340 620v-247q27 18 66 34t97 16q44 0 82.5 -11t66.5 -36.5t44 -67.5t16 -104q0 -56 -12.5 -96.5t-35.5 -66.5t-55 -38.5t-71 -12.5q-23 0 -44 4.5t-38 10.5q-11 4 -18.5 13t-7.5 21q0 7 3 16q10 24 36 24q5 0 15 -2q11 -3 22 -5t22 -2q45 0 72 30.5t27 101.5
q0 75 -36 108t-104 33q-53 0 -87.5 -16t-59.5 -32v-260q0 -17 -12.5 -29.5t-29.5 -12.5q-18 0 -30.5 12.5t-12.5 29.5v585h-206q-16 0 -27.5 11.5t-11.5 28.5t11.5 28.5t27.5 11.5h497q16 0 27.5 -11.5t11.5 -28.5t-11.5 -28.5t-27.5 -11.5h-206z" />
    <glyph glyph-name="afii10052" unicode="&#x403;" horiz-adv-x="505" 
d="M190 620v-585q0 -17 -12.5 -29.5t-29.5 -12.5q-18 0 -30.5 12.5t-12.5 29.5v623q0 17 12.5 29.5t29.5 12.5h309q16 0 27.5 -11.5t11.5 -28.5t-11.5 -28.5t-27.5 -11.5h-266zM429 874q6 3 12 3q16 0 23 -15l8 -18q2 -4 2 -11q0 -18 -16 -24l-152 -64q-6 -2 -10 -2
q-18 0 -26 15q-3 6 -3 13q0 17 15 25z" />
    <glyph glyph-name="afii10053" unicode="&#x404;" horiz-adv-x="665" 
d="M618 629q0 -11 -7 -21q-12 -18 -31 -18q-12 0 -21 5q-69 35 -144 35q-58 0 -106 -16.5t-84 -47t-58 -73.5t-29 -96h306q16 0 27.5 -11.5t11.5 -28.5t-11.5 -28.5t-27.5 -11.5h-308q6 -60 30 -106t62 -77.5t87 -47.5t105 -16q47 0 83.5 10t69.5 30q10 6 22 6q19 0 33 -18
q6 -9 6 -21q0 -9 -3.5 -17t-11.5 -13q-46 -31 -95.5 -44t-110.5 -13q-82 0 -149 25.5t-114.5 72t-73.5 113t-26 149.5q0 79 25.5 145t71.5 114t111 74.5t143 26.5q60 0 108.5 -13.5t84.5 -32.5q24 -13 24 -35z" />
    <glyph glyph-name="afii10054" unicode="&#x405;" horiz-adv-x="526" 
d="M252 -10q-56 0 -103 21.5t-91 58.5q-6 5 -9 12.5t-3 15.5q0 14 9 25q12 15 31 15q13 0 23 -7q40 -29 73 -45t71 -16q27 0 52 7t44 21t30 34t11 47q0 43 -25.5 69t-63.5 45.5t-82 36.5t-82 41.5t-63.5 61t-25.5 94.5q0 38 14.5 71.5t41.5 58t66 39t89 14.5q49 0 90 -13
t74 -34q16 -11 16 -32q0 -13 -7 -21q-14 -19 -33 -19q-6 0 -11.5 2t-11.5 5q-25 15 -51 23.5t-61 8.5q-59 0 -92.5 -28t-33.5 -75q0 -43 25.5 -69t63.5 -44.5t82 -35t82 -40.5t63.5 -61t25.5 -97q0 -43 -18 -78t-48.5 -60t-72 -38.5t-89.5 -13.5z" />
    <glyph glyph-name="afii10055" unicode="&#x406;" horiz-adv-x="335" 
d="M125 664q0 17 12.5 29t30.5 12q17 0 29.5 -12t12.5 -29v-629q0 -17 -12.5 -29.5t-29.5 -12.5q-18 0 -30.5 12.5t-12.5 29.5v629v0z" />
    <glyph glyph-name="afii10056" unicode="&#x407;" horiz-adv-x="336" 
d="M91 765q-20 0 -34 12.5t-14 35.5q0 21 14 33t34 12q18 0 32 -12t14 -33q0 -23 -14 -35.5t-32 -12.5zM247 765q-20 0 -34 12.5t-14 35.5q0 21 14 33t34 12q18 0 32 -12t14 -33q0 -23 -14 -35.5t-32 -12.5zM125 664q0 17 12.5 29t30.5 12q17 0 29.5 -12t12.5 -29v-629
q0 -17 -12.5 -29.5t-29.5 -12.5q-18 0 -30.5 12.5t-12.5 29.5v629z" />
    <glyph glyph-name="afii10057" unicode="&#x408;" horiz-adv-x="369" 
d="M64 77q10 -3 19 -5t17 -2q46 0 62.5 29t16.5 74v491q0 17 12.5 29t30.5 12q17 0 29.5 -12t12.5 -29v-505q0 -79 -36 -124t-117 -45q-23 0 -42.5 5t-35.5 12q-10 5 -15.5 14t-5.5 20q0 8 3 16q11 23 34 23q7 0 15 -3z" />
    <glyph glyph-name="afii10058" unicode="&#x409;" horiz-adv-x="1025" 
d="M623 81l40 -2t44 -1q87 0 132.5 37t45.5 112q0 67 -45 102.5t-130 35.5q-35 0 -87 -6v-278zM201 658q2 18 14.5 30t30.5 12h335q17 0 29.5 -12.5t12.5 -29.5v-218q29 2 52.5 3.5t40.5 1.5q132 0 195.5 -58.5t63.5 -157.5q0 -112 -73.5 -171.5t-204.5 -59.5
q-32 0 -61.5 0.5t-55.5 1.5q-18 0 -30 12.5t-12 29.5v578h-254l-12 -132q-14 -149 -34.5 -245t-47.5 -151.5t-60.5 -77t-72.5 -21.5h-11t-11 1q-17 2 -28 13t-11 28v6q2 18 14 27.5t29 9.5h6h4q16 0 37 18t41 70.5t38 147t29 246.5z" />
    <glyph glyph-name="afii10059" unicode="&#x40a;" horiz-adv-x="1052" 
d="M190 341v-306q0 -17 -12.5 -29.5t-29.5 -12.5q-18 0 -30.5 12.5t-12.5 29.5v629q0 17 12.5 29t30.5 12q17 0 29.5 -12t12.5 -29v-243h375v243q0 17 12.5 29t30.5 12q17 0 29.5 -12t12.5 -29v-239q29 2 52.5 3.5t40.5 1.5q132 0 195.5 -57t63.5 -152q0 -106 -73.5 -164.5
t-204.5 -58.5q-36 0 -65.5 1t-58.5 1q-18 0 -26.5 11.5t-8.5 25.5v304h-375zM650 81l40 -2t44 -1q87 0 132.5 35.5t45.5 106.5q0 63 -45 96.5t-130 33.5q-35 0 -87 -6v-263z" />
    <glyph glyph-name="afii10060" unicode="&#x40b;" horiz-adv-x="762" 
d="M340 35q0 -17 -12.5 -29.5t-29.5 -12.5q-18 0 -30.5 12.5t-12.5 29.5v585h-206q-16 0 -27.5 11.5t-11.5 28.5t11.5 28.5t27.5 11.5h497q16 0 27.5 -11.5t11.5 -28.5t-11.5 -28.5t-27.5 -11.5h-206v-247q26 19 68.5 34.5t99.5 15.5q41 0 78 -12t65 -39t44.5 -69.5
t16.5 -103.5v-164q0 -17 -12.5 -29.5t-29.5 -12.5q-18 0 -30.5 12.5t-12.5 29.5v142q0 45 -10 77t-28.5 51.5t-45 28.5t-58.5 9q-48 0 -83.5 -15.5t-61.5 -32.5v-260z" />
    <glyph glyph-name="afii10061" unicode="&#x40c;" horiz-adv-x="635" 
d="M234 334q-11 13 -11 30q0 18 12 32l262 287q19 22 39 22q17 0 27 -10t10 -24q0 -18 -15 -33l-253 -267l271 -306q15 -16 15 -35q0 -16 -11 -26.5t-28 -10.5q-14 0 -23.5 6t-18.5 17zM105 664q0 17 12.5 29t30.5 12q17 0 29.5 -12t12.5 -29v-629q0 -17 -12.5 -29.5
t-29.5 -12.5q-18 0 -30.5 12.5t-12.5 29.5v629zM459 874q6 3 12 3q16 0 23 -15l8 -18q2 -4 2 -11q0 -18 -16 -24l-152 -64q-6 -2 -10 -2q-18 0 -26 15q-3 6 -3 13q0 17 15 25z" />
    <glyph glyph-name="afii10062" unicode="&#x40e;" horiz-adv-x="652" 
d="M31 666q0 15 10 27t30 12q25 0 44 -31l246 -413l180 411q15 33 40 33q20 0 30 -11t10 -25q0 -11 -4 -19l-220 -490q-36 -81 -76 -120.5t-98 -39.5q-14 0 -26.5 1.5t-26.5 6.5q-10 3 -21 13t-11 27q0 7 5 19q6 12 15 16.5t18 4.5q10 0 16 -3q15 -6 30 -6q30 0 51 20.5
t35 50.5l12 26l-282 466q-7 10 -7 24zM479 869q3 0 11 -2q8 -3 16 -10t8 -21q0 -10 -4 -19q-7 -17 -24 -32t-40.5 -26t-52 -17.5t-59.5 -6.5q-68 0 -116.5 22t-62.5 60q-3 9 -3 17q0 11 5.5 20.5t16.5 12.5q4 2 7.5 2h6.5q15 0 25.5 -11t22.5 -29q14 -18 40 -26t58 -8
q29 0 57 9t45 33q9 13 19.5 22.5t23.5 9.5z" />
    <glyph glyph-name="afii10145" unicode="&#x40f;" horiz-adv-x="750" 
d="M414 -116q0 -16 -11.5 -27.5t-28.5 -11.5t-28.5 11.5t-11.5 27.5v116h-187q-17 0 -29.5 12.5t-12.5 29.5v622q0 17 12.5 29t30.5 12q17 0 29.5 -12t12.5 -29v-584h370v584q0 17 12.5 29t30.5 12q17 0 29.5 -12t12.5 -29v-622q0 -17 -12.5 -29.5t-29.5 -12.5h-189v-116z
" />
    <glyph glyph-name="afii10017" unicode="&#x410;" horiz-adv-x="685" 
d="M500 212h-319l-80 -191q-7 -17 -16.5 -22.5t-21.5 -5.5q-20 0 -30 12t-10 27q0 5 1 9t3 9l268 621q7 15 19 24.5t30 9.5t30 -10t18 -24l267 -618q3 -9 3 -17q0 -17 -10.5 -30t-30.5 -13q-14 0 -24.5 7.5t-15.5 20.5zM341 591l-126 -299h252z" />
    <glyph glyph-name="afii10018" unicode="&#x411;" horiz-adv-x="612" 
d="M190 419q26 3 56.5 4.5t50.5 1.5q118 0 181.5 -55.5t63.5 -150.5q0 -109 -71 -166t-198 -57q-37 0 -68.5 1t-57.5 2q-18 1 -30 13.5t-12 29.5v616q0 17 12.5 29.5t29.5 12.5h315q16 0 27.5 -11.5t11.5 -28.5t-11.5 -28.5t-27.5 -11.5h-272v-201zM190 80q23 -2 46.5 -3
t49.5 -1q87 0 129 36.5t42 100.5q0 58 -40.5 95t-124.5 37q-20 0 -47 -1.5t-55 -4.5v-259z" />
    <glyph glyph-name="afii10019" unicode="&#x412;" horiz-adv-x="617" 
d="M297 703q63 0 106 -13.5t69.5 -36.5t38 -55t11.5 -68q0 -66 -35 -106t-85 -57q66 -11 105.5 -53t39.5 -114q0 -53 -19.5 -91.5t-53.5 -63.5t-80.5 -36.5t-100.5 -11.5q-34 0 -74 0.5t-72 1.5q-17 1 -29.5 13.5t-12.5 29.5v615q0 17 12.5 30t29.5 13q32 1 73.5 2t76.5 1z
M190 81q17 -2 47.5 -3t60.5 -1q78 0 121 31.5t43 96.5q0 56 -41.5 85t-117.5 29h-113v-238zM190 394h112q28 0 52.5 7.5t43 22.5t29 36.5t10.5 50.5q0 112 -142 112q-28 0 -57 -1t-48 -2v-226z" />
    <glyph glyph-name="afii10020" unicode="&#x413;" horiz-adv-x="505" 
d="M190 620v-585q0 -17 -12.5 -29.5t-29.5 -12.5q-18 0 -30.5 12.5t-12.5 29.5v623q0 17 12.5 29.5t29.5 12.5h309q16 0 27.5 -11.5t11.5 -28.5t-11.5 -28.5t-27.5 -11.5h-266z" />
    <glyph glyph-name="afii10021" unicode="&#x414;" horiz-adv-x="749" 
d="M95 0v-91q0 -16 -11.5 -27.5t-28.5 -11.5t-28.5 11.5t-11.5 27.5v129q0 17 12.5 29.5t29.5 12.5h33q11 13 28 48.5t34.5 95t32 143t20.5 193.5l5 98q1 18 13.5 30t30.5 12h328q17 0 29.5 -12.5t12.5 -29.5v-578h53q17 0 29.5 -12.5t12.5 -29.5v-129q0 -16 -11.5 -27.5
t-28.5 -11.5t-28.5 11.5t-11.5 27.5v91h-544zM539 80v540h-245l-9 -125q-6 -90 -19 -162t-28 -124t-29.5 -84.5t-24.5 -44.5h355z" />
    <glyph glyph-name="afii10022" unicode="&#x415;" horiz-adv-x="575" 
d="M471 80q16 0 27.5 -11.5t11.5 -28.5t-11.5 -28.5t-27.5 -11.5h-324q-17 0 -29.5 12.5t-12.5 29.5v616q0 17 12.5 29.5t29.5 12.5h314q16 0 27.5 -11.5t11.5 -28.5t-11.5 -28.5t-27.5 -11.5h-271v-226h241q16 0 27.5 -11.5t11.5 -28.5t-11.5 -28.5t-27.5 -11.5h-241v-234
h281z" />
    <glyph glyph-name="afii10024" unicode="&#x416;" horiz-adv-x="903" 
d="M864 29q0 -15 -10 -25.5t-26 -10.5q-14 0 -23.5 6.5t-23.5 24.5l-250 317q-8 11 -8 24t8 23l242 293q10 12 19 18t21 6q17 0 27 -10.5t10 -24.5t-10 -27l-235 -277l248 -308q11 -14 11 -29zM409 664q0 17 12.5 29t30.5 12q17 0 29.5 -12t12.5 -29v-629q0 -17 -12.5 -29.5
t-29.5 -12.5q-18 0 -30.5 12.5t-12.5 29.5v629zM373 388q8 -10 8 -23t-8 -24l-250 -317q-11 -14 -20.5 -22.5t-25.5 -8.5q-18 0 -28 10.5t-10 24.5q0 15 11 29l249 308l-233 275q-12 13 -12 29q0 15 10 25.5t27 10.5q14 0 22.5 -6.5t20.5 -21.5z" />
    <glyph glyph-name="afii10025" unicode="&#x417;" horiz-adv-x="563" 
d="M72 637q43 35 87 54t104 19q91 0 147 -48t56 -138q0 -45 -25 -89.5t-76 -71.5q64 -14 96 -60.5t32 -106.5q0 -48 -19.5 -86.5t-52 -65t-76 -40.5t-91.5 -14q-68 0 -117 24t-87 56q-14 12 -14 32q0 12 8 23q12 15 31 15q14 0 25 -8q39 -29 76 -45.5t73 -16.5q34 0 63 8.5
t50.5 25.5t33.5 42t12 58q0 52 -35.5 83t-101.5 31h-42q-16 0 -27.5 12t-11.5 29t11 28t26 11h38q22 0 43 8.5t37 24t26 37.5t10 48q0 57 -36.5 85.5t-90.5 28.5q-43 0 -74 -14t-62 -37q-12 -9 -27 -9q-16 0 -27 12q-9 10 -9 23q0 17 17 32z" />
    <glyph glyph-name="afii10026" unicode="&#x418;" horiz-adv-x="795" 
d="M690 35q0 -17 -12.5 -29.5t-29.5 -12.5q-18 0 -30.5 12.5t-12.5 29.5v524l-407 -535q-11 -15 -22.5 -23t-27.5 -8q-21 0 -32 12.5t-11 33.5v625q0 17 12.5 29t30.5 12q17 0 29.5 -12t12.5 -29v-524l407 535q11 14 21.5 22t26.5 8q22 0 33.5 -12.5t11.5 -32.5v-625z" />
    <glyph glyph-name="afii10027" unicode="&#x419;" horiz-adv-x="795" 
d="M690 35q0 -17 -12.5 -29.5t-29.5 -12.5q-18 0 -30.5 12.5t-12.5 29.5v524l-407 -535q-11 -15 -22.5 -23t-27.5 -8q-21 0 -32 12.5t-11 33.5v625q0 17 12.5 29t30.5 12q17 0 29.5 -12t12.5 -29v-524l407 535q11 14 21.5 22t26.5 8q22 0 33.5 -12.5t11.5 -32.5v-625z
M549 869q3 0 11 -2q8 -3 16 -10t8 -21q0 -10 -4 -19q-7 -17 -24 -32t-40.5 -26t-52 -17.5t-59.5 -6.5q-68 0 -116.5 22t-62.5 60q-3 9 -3 17q0 11 5.5 20.5t16.5 12.5q4 2 7.5 2h6.5q15 0 25.5 -11t22.5 -29q14 -18 40 -26t58 -8q29 0 57 9t45 33q9 13 19.5 22.5t23.5 9.5z
" />
    <glyph glyph-name="afii10028" unicode="&#x41a;" horiz-adv-x="635" 
d="M234 334q-11 13 -11 30q0 18 12 32l262 287q19 22 39 22q17 0 27 -10t10 -24q0 -18 -15 -33l-253 -267l271 -306q15 -16 15 -35q0 -16 -11 -26.5t-28 -10.5q-14 0 -23.5 6t-18.5 17zM105 664q0 17 12.5 29t30.5 12q17 0 29.5 -12t12.5 -29v-629q0 -17 -12.5 -29.5
t-29.5 -12.5q-18 0 -30.5 12.5t-12.5 29.5v629z" />
    <glyph glyph-name="afii10029" unicode="&#x41b;" horiz-adv-x="728" 
d="M623 34q0 -17 -12.5 -29t-29.5 -12q-18 0 -30.5 12t-12.5 29v586h-254l-12 -132q-14 -149 -34.5 -245t-47.5 -151.5t-60.5 -77t-72.5 -21.5h-11t-11 1q-17 2 -28 13t-11 28v6q2 18 14 27.5t29 9.5h6h4q16 0 37 18t41 70.5t38 147t29 246.5l7 99q2 17 14.5 29t29.5 12h337
q17 0 29 -12t12 -29v-625v0z" />
    <glyph glyph-name="afii10030" unicode="&#x41c;" horiz-adv-x="892" 
d="M492 271q-20 -27 -45 -27t-45 27l-212 290v-526q0 -17 -12.5 -29.5t-29.5 -12.5q-18 0 -30.5 12.5t-12.5 29.5v616q0 24 13.5 39t35.5 15q20 0 32.5 -9t22.5 -23l245 -332l235 335q8 11 20 20t29 9q24 0 36.5 -15t12.5 -33v-622q0 -17 -12.5 -29.5t-29.5 -12.5
q-18 0 -30.5 12.5t-12.5 29.5v532z" />
    <glyph glyph-name="afii10031" unicode="&#x41d;" horiz-adv-x="765" 
d="M575 664q0 17 12.5 29t30.5 12q17 0 29.5 -12t12.5 -29v-629q0 -17 -12.5 -29.5t-29.5 -12.5q-18 0 -30.5 12.5t-12.5 29.5v282h-385v-282q0 -17 -12.5 -29.5t-29.5 -12.5q-18 0 -30.5 12.5t-12.5 29.5v629q0 17 12.5 29t30.5 12q17 0 29.5 -12t12.5 -29v-267h385v267v0z
" />
    <glyph glyph-name="afii10032" unicode="&#x41e;" horiz-adv-x="814" 
d="M407 -10q-76 0 -141.5 26.5t-113.5 74t-75 113.5t-27 146q0 76 26.5 142t74 114.5t113 76t143.5 27.5q76 0 141.5 -26.5t113.5 -74t75 -113.5t27 -146q0 -78 -27 -144t-75 -114t-113.5 -75t-141.5 -27zM407 630q-57 0 -106 -21t-84.5 -58t-56 -88.5t-20.5 -112.5
q0 -60 20.5 -111t56.5 -88.5t85 -59t105 -21.5q60 0 109 21.5t84.5 59t54.5 89t19 110.5q0 61 -20.5 112.5t-56.5 88.5t-85 58t-105 21z" />
    <glyph glyph-name="afii10033" unicode="&#x41f;" horiz-adv-x="760" 
d="M613 700q17 0 29.5 -12.5t12.5 -29.5v-623q0 -17 -12.5 -29.5t-29.5 -12.5q-18 0 -30.5 12.5t-12.5 29.5v585h-380v-585q0 -17 -12.5 -29.5t-29.5 -12.5q-18 0 -30.5 12.5t-12.5 29.5v623q0 17 12.5 29.5t29.5 12.5h466z" />
    <glyph glyph-name="afii10034" unicode="&#x420;" horiz-adv-x="597" 
d="M147 700q17 0 37 0.5t39 1t36 0.5h29q75 0 125 -18.5t79.5 -49t42 -69.5t12.5 -80q0 -43 -15.5 -82.5t-46.5 -70t-78.5 -49t-111.5 -18.5q-21 0 -50 1t-55 3v-234q0 -17 -12.5 -29.5t-29.5 -12.5q-18 0 -30.5 12.5t-12.5 29.5v623q0 17 12.5 29.5t29.5 12.5zM190 350
q26 -2 51 -3.5t51 -1.5q78 0 121.5 37.5t43.5 103.5q0 63 -38.5 99.5t-122.5 36.5q-21 0 -51 -0.5t-55 -1.5v-270z" />
    <glyph glyph-name="afii10035" unicode="&#x421;" horiz-adv-x="646" 
d="M566 592q-12 0 -24 6q-59 32 -142 32q-57 0 -105 -20.5t-82.5 -57.5t-53.5 -88.5t-19 -113.5q0 -63 20 -114.5t56 -88t86 -57t111 -20.5q80 0 145 39q11 7 25 7q19 0 30 -14q7 -8 7 -20q0 -10 -5.5 -19t-13.5 -15q-38 -27 -89 -42.5t-107 -15.5q-79 0 -144 25.5
t-112 72.5t-73 113.5t-26 148.5q0 75 23.5 141t68.5 114.5t110 76.5t147 28q56 0 103.5 -13.5t80.5 -33.5q21 -14 21 -34q0 -10 -6 -19q-11 -18 -32 -18z" />
    <glyph glyph-name="afii10036" unicode="&#x422;" horiz-adv-x="595" 
d="M340 35q0 -17 -12.5 -29.5t-29.5 -12.5q-18 0 -30.5 12.5t-12.5 29.5v585h-206q-16 0 -27.5 11.5t-11.5 28.5t11.5 28.5t27.5 11.5h497q16 0 27.5 -11.5t11.5 -28.5t-11.5 -28.5t-27.5 -11.5h-206v-585z" />
    <glyph glyph-name="afii10037" unicode="&#x423;" horiz-adv-x="652" 
d="M31 666q0 15 10 27t30 12q25 0 44 -31l246 -413l180 411q15 33 40 33q20 0 30 -11t10 -25q0 -11 -4 -19l-220 -490q-36 -81 -76 -120.5t-98 -39.5q-14 0 -26.5 1.5t-26.5 6.5q-10 3 -21 13t-11 27q0 7 5 19q6 12 15 16.5t18 4.5q10 0 16 -3q15 -6 30 -6q30 0 51 20.5
t35 50.5l12 26l-282 466q-7 10 -7 24z" />
    <glyph glyph-name="afii10038" unicode="&#x424;" horiz-adv-x="834" 
d="M458 636q76 0 138 -19t106 -54t68 -86.5t24 -116.5q0 -66 -24.5 -117.5t-69 -86.5t-106 -53.5t-135.5 -18.5v-51q0 -17 -13 -29t-30 -12q-18 0 -30.5 12t-12.5 29v51q-74 0 -135.5 18t-105.5 53.5t-68 87t-24 117.5t24 117t67.5 86.5t105 54t136.5 18.5v31q0 17 12.5 29
t30.5 12q17 0 29.5 -12t12.5 -29v-31zM459 162q113 0 179 50t66 148q0 93 -63.5 145t-181.5 52v-395zM373 557q-115 0 -179 -52t-64 -145q0 -98 66 -148t177 -50v395z" />
    <glyph glyph-name="afii10039" unicode="&#x425;" horiz-adv-x="633" 
d="M51 665q0 16 10.5 28t30.5 12q14 0 22.5 -7.5t19.5 -22.5l185 -255l182 255q11 17 21.5 23.5t24.5 6.5q17 0 28 -11t11 -27q0 -13 -9 -26l-205 -285l216 -300q7 -8 7 -22q0 -15 -10.5 -28t-28.5 -13q-23 0 -41 25l-199 273l-197 -273q-8 -11 -18.5 -18t-23.5 -7
q-18 0 -28.5 12t-10.5 28q0 14 9 26l215 297l-203 283q-8 11 -8 26z" />
    <glyph glyph-name="afii10040" unicode="&#x426;" horiz-adv-x="775" 
d="M745 -91q0 -16 -11.5 -27.5t-28.5 -11.5t-28.5 11.5t-11.5 27.5v91h-518q-17 0 -29.5 12.5t-12.5 29.5v622q0 17 12.5 29t30.5 12q17 0 29.5 -12t12.5 -29v-584h375v584q0 17 12.5 29t30.5 12q17 0 29.5 -12t12.5 -29v-584h53q17 0 29.5 -12.5t12.5 -29.5v-129z" />
    <glyph glyph-name="afii10041" unicode="&#x427;" horiz-adv-x="650" 
d="M150 498q0 -45 11 -77t30.5 -51.5t46.5 -28.5t59 -9q51 0 93 17t70 36v279q0 17 12.5 29t30.5 12q17 0 29.5 -12t12.5 -29v-629q0 -17 -12.5 -29.5t-29.5 -12.5q-18 0 -30.5 12.5t-12.5 29.5v271q-27 -20 -75.5 -37t-109.5 -17q-42 0 -80 12t-67 38.5t-46 69t-17 103.5
v189q0 17 12.5 29t30.5 12q17 0 29.5 -12t12.5 -29v-166v0z" />
    <glyph glyph-name="afii10042" unicode="&#x428;" horiz-adv-x="995" 
d="M805 664q0 17 12.5 29t30.5 12q17 0 29.5 -12t12.5 -29v-622q0 -17 -12.5 -29.5t-29.5 -12.5h-701q-17 0 -29.5 12.5t-12.5 29.5v622q0 17 12.5 29t30.5 12q17 0 29.5 -12t12.5 -29v-584h265v584q0 17 12.5 29t30.5 12q17 0 29.5 -12t12.5 -29v-584h265v584v0z" />
    <glyph glyph-name="afii10043" unicode="&#x429;" horiz-adv-x="1015" 
d="M985 -91q0 -16 -11.5 -27.5t-28.5 -11.5t-28.5 11.5t-11.5 27.5v91h-758q-17 0 -29.5 12.5t-12.5 29.5v622q0 17 12.5 29t30.5 12q17 0 29.5 -12t12.5 -29v-584h265v584q0 17 12.5 29t30.5 12q17 0 29.5 -12t12.5 -29v-584h265v584q0 17 12.5 29t30.5 12q17 0 29.5 -12
t12.5 -29v-584h53q17 0 29.5 -12.5t12.5 -29.5v-129z" />
    <glyph glyph-name="afii10044" unicode="&#x42a;" horiz-adv-x="669" 
d="M619 229q0 -111 -74 -171t-209 -60q-32 0 -63.5 0.5t-58.5 1.5q-18 0 -30 12.5t-12 29.5v578h-128q-16 0 -27.5 11.5t-11.5 28.5t11.5 28.5t27.5 11.5h171q17 0 29.5 -12.5t12.5 -29.5v-218q29 2 55 3.5t43 1.5q136 0 200 -58.5t64 -157.5zM257 81q20 -1 42.5 -2t46.5 -1
q87 0 135 36.5t48 112.5q0 69 -47.5 103.5t-132.5 34.5q-17 0 -41.5 -1.5t-50.5 -4.5v-278z" />
    <glyph glyph-name="afii10045" unicode="&#x42b;" horiz-adv-x="845" 
d="M655 664q0 17 12.5 29t30.5 12q17 0 29.5 -12t12.5 -29v-629q0 -17 -12.5 -29.5t-29.5 -12.5q-18 0 -30.5 12.5t-12.5 29.5v629zM190 81l40 -2t44 -1q87 0 132.5 37t45.5 112q0 67 -45 102.5t-130 35.5q-35 0 -87 -6v-278zM264 -2q-32 0 -61.5 0.5t-55.5 1.5
q-18 0 -30 12.5t-12 29.5v622q0 17 12.5 29t30.5 12q17 0 29.5 -12t12.5 -29v-224q29 2 52.5 3.5t40.5 1.5q132 0 195.5 -58.5t63.5 -157.5q0 -111 -73.5 -171t-204.5 -60z" />
    <glyph glyph-name="afii10046" unicode="&#x42c;" horiz-adv-x="602" 
d="M190 81q20 -1 42.5 -2t46.5 -1q87 0 135 36.5t48 112.5q0 69 -47.5 103.5t-132.5 34.5q-17 0 -41.5 -1.5t-50.5 -4.5v-278zM269 -2q-32 0 -63.5 0.5t-58.5 1.5q-18 0 -30 12.5t-12 29.5v622q0 17 12.5 29t30.5 12q17 0 29.5 -12t12.5 -29v-224q29 2 55 3.5t43 1.5
q136 0 200 -58.5t64 -157.5q0 -111 -74 -171t-209 -60z" />
    <glyph glyph-name="afii10047" unicode="&#x42d;" horiz-adv-x="665" 
d="M30 73q0 12 6 21q12 18 32 18q13 0 22 -5q37 -17 78 -27t86 -10q55 0 103 17t84 49t58.5 77.5t28.5 103.5h-308q-16 0 -27.5 11.5t-11.5 28.5t11.5 28.5t27.5 11.5h307q-14 110 -89.5 171.5t-193.5 61.5q-38 0 -72.5 -10.5t-71.5 -27.5q-8 -4 -18 -4t-19 4.5t-14 13.5
q-3 5 -4 9.5t-1 9.5q0 23 19 33q43 23 94 37.5t107 14.5q78 0 142.5 -25.5t111 -72t72 -112.5t25.5 -148q0 -80 -25.5 -146.5t-72 -114.5t-113 -74.5t-148.5 -26.5q-60 0 -109.5 11t-97.5 37q-8 5 -13.5 14.5t-5.5 20.5z" />
    <glyph glyph-name="afii10048" unicode="&#x42e;" horiz-adv-x="1078" 
d="M190 317v-282q0 -17 -12.5 -29.5t-29.5 -12.5q-18 0 -30.5 12.5t-12.5 29.5v629q0 17 12.5 29t30.5 12q17 0 29.5 -12t12.5 -29v-267h151q7 67 35 124.5t72.5 99.5t103.5 65.5t129 23.5q76 0 140 -26.5t110 -74t71.5 -113.5t25.5 -146q0 -78 -25.5 -144t-71.5 -114
t-110 -75t-140 -27q-69 0 -128.5 23.5t-105 66.5t-74 103.5t-33.5 133.5h-150zM683 630q-55 0 -101.5 -21t-80.5 -58t-53 -88.5t-19 -112.5q0 -60 19.5 -111t53.5 -88.5t80.5 -59t100.5 -21.5q60 0 107.5 21.5t80.5 59t50 89t17 110.5q0 61 -18.5 112.5t-52.5 88.5t-80.5 58
t-103.5 21z" />
    <glyph glyph-name="afii10049" unicode="&#x42f;" horiz-adv-x="608" 
d="M339 703q26 0 59 -1t63 -1q18 -1 30 -13.5t12 -29.5v-623q0 -17 -12.5 -29.5t-29.5 -12.5q-18 0 -30.5 12.5t-12.5 29.5v225h-131l-169 -242q-8 -11 -18 -18t-24 -7q-18 0 -27.5 11t-9.5 25t9 26l156 220q-27 11 -52 29t-44 42.5t-30.5 55.5t-11.5 69q0 47 16 89.5
t49.5 74t85 50t122.5 18.5zM418 620q-17 1 -44.5 2t-50.5 1q-41 0 -72 -11.5t-52 -31t-32 -46.5t-11 -58q0 -28 10.5 -51t27.5 -41t38.5 -29t44.5 -15h141v280z" />
    <glyph glyph-name="afii10065" unicode="&#x430;" horiz-adv-x="460" 
d="M40 132q0 34 13 61t35.5 45t54 27.5t67.5 9.5q26 0 57.5 -6t54.5 -23q0 31 -3.5 57.5t-14 45t-31 29t-53.5 10.5q-25 0 -46 -4.5t-44 -13.5q-8 -3 -15 -3q-22 0 -31 20q-3 7 -3 14q0 11 5.5 19.5t14.5 12.5q35 14 65.5 20.5t58.5 6.5q96 0 134.5 -48t38.5 -136v-248
q0 -14 -10.5 -24.5t-27.5 -10.5t-27.5 10.5t-10.5 24.5v30q-20 -26 -54 -45.5t-90 -19.5q-62 0 -100 36.5t-38 102.5zM322 180q-42 30 -101 30q-18 0 -35.5 -4.5t-31 -13.5t-21.5 -23t-8 -33q0 -32 21 -51.5t60 -19.5q44 0 71.5 19t44.5 39v57z" />
    <glyph glyph-name="afii10066" unicode="&#x431;" horiz-adv-x="549" 
d="M509 221q0 -47 -17 -89t-47.5 -73.5t-73 -50t-93.5 -18.5q-55 0 -99 19.5t-75 55.5t-47.5 88t-16.5 117q0 50 6 104.5t24 104.5t50.5 90.5t86.5 63.5q32 14 58.5 20t49 9.5t42 8t36.5 15.5q20 14 37 14q16 0 27 -14q9 -11 9 -24q0 -18 -14 -30q-23 -21 -47.5 -29.5
t-51 -13.5t-56 -11t-63.5 -21q-32 -14 -52.5 -38t-33.5 -53.5t-19 -62t-8 -63.5q11 24 30 43t42.5 33t50.5 21.5t56 7.5q48 0 87 -16t66 -45.5t41.5 -70.5t14.5 -92zM125 255q0 -44 11 -79t31 -59.5t48 -38t61 -13.5t60 12t46.5 32.5t30.5 48t11 59.5q0 66 -37 109.5
t-107 43.5q-32 0 -58 -10t-46 -26t-33 -36.5t-18 -42.5z" />
    <glyph glyph-name="afii10067" unicode="&#x432;" horiz-adv-x="494" 
d="M429 338q0 -40 -24.5 -68.5t-65.5 -35.5q54 -11 79.5 -38t25.5 -69q0 -64 -50.5 -97.5t-156.5 -33.5q-31 0 -64.5 1t-62.5 2q-16 1 -27 12t-11 28v372q0 17 11 28t27 12q27 1 58.5 2t66.5 1q95 0 144.5 -27.5t49.5 -88.5zM152 64q18 -1 41.5 -2t50.5 -1q56 0 85.5 18.5
t29.5 53.5t-28.5 52t-82.5 17h-96v-138zM253 252q40 0 65.5 18.5t25.5 51.5q0 37 -29.5 52t-73.5 15q-27 0 -50.5 -1t-38.5 -2v-134h101z" />
    <glyph glyph-name="afii10068" unicode="&#x433;" horiz-adv-x="362" 
d="M152 31q0 -16 -11.5 -27t-28.5 -11t-28.5 11t-11.5 27v381q0 16 11 27t27 11h209q16 0 27 -11t11 -26q0 -16 -11 -27t-27 -11h-167v-344z" />
    <glyph glyph-name="afii10069" unicode="&#x434;" horiz-adv-x="534" 
d="M85 -72q0 -16 -11 -27t-26 -11q-16 0 -27 11t-11 27v109q0 16 11 27t27 11h18q23 29 43 96t26 160l5 81q1 16 12.5 27t27.5 11h231q16 0 27 -11t11 -27v-337h37q16 0 27 -11t11 -27v-109q0 -16 -11 -27t-26 -11q-16 0 -27 11t-11 27v72h-364v-72zM369 375h-152l-5 -75
q-8 -87 -26.5 -145.5t-34.5 -79.5h218v300z" />
    <glyph glyph-name="afii10070" unicode="&#x435;" horiz-adv-x="525" 
d="M400 265q-3 56 -37 88t-93 32q-62 0 -99 -34t-44 -86h273zM483 254v-11.5t-1 -10.5q-1 -12 -11.5 -22t-22.5 -10h-316q5 -64 48 -99.5t109 -35.5q34 0 60.5 6.5t49.5 20.5q10 6 22 6q15 0 27 -13q6 -8 6 -18q0 -8 -3 -15.5t-9 -11.5q-38 -27 -77.5 -38.5t-81.5 -11.5
q-55 0 -99.5 16.5t-76 47.5t-48.5 74.5t-17 96.5q0 49 15.5 92t45 74.5t72.5 50t99 18.5q43 0 81.5 -15t66.5 -42t44.5 -65t16.5 -84z" />
    <glyph glyph-name="afii10072" unicode="&#x436;" horiz-adv-x="651" 
d="M406 202q-10 15 -10 31t10 31l120 169q7 10 15.5 16t21.5 6q20 0 30.5 -11.5t10.5 -26.5q0 -6 -1.5 -12.5t-6.5 -11.5l-121 -160l133 -176q9 -12 9 -26q0 -15 -10 -26.5t-28 -11.5q-12 0 -22 6t-17 16zM110 15q-7 -10 -15.5 -16t-22.5 -6q-19 0 -28.5 12t-9.5 26t8 25
l131 177l-120 160q-8 11 -8 23q0 15 10.5 27t30.5 12q12 0 21 -6t16 -16l119 -169q10 -13 10 -31t-10 -31zM364 31q0 -16 -11.5 -27t-28.5 -11t-28.5 11t-11.5 27v386q0 16 11.5 27t28.5 11t28.5 -11t11.5 -27v-386z" />
    <glyph glyph-name="afii10073" unicode="&#x437;" horiz-adv-x="448" 
d="M214 460q83 0 126 -32.5t43 -88.5q0 -33 -18 -62t-61 -45q48 -6 71 -37t23 -70q0 -32 -14 -57t-39.5 -42t-60.5 -26.5t-77 -9.5q-46 0 -83 9t-72 32q-17 12 -17 31q0 9 7 21q10 16 30 16q10 0 21 -6q29 -17 54 -24t48 -7q51 0 84.5 20t33.5 54q0 28 -23 43t-65 15h-42
q-14 0 -24 9.5t-10 23.5q0 13 10 22.5t24 9.5h37q34 0 56 18.5t22 45.5q0 31 -26 48t-70 17q-30 0 -54.5 -6.5t-48.5 -17.5q-8 -4 -19 -4q-19 0 -30 17q-4 7 -4 16q0 19 21 32q31 18 68 26.5t79 8.5z" />
    <glyph glyph-name="afii10074" unicode="&#x438;" 
d="M492 31q0 -16 -11.5 -27t-28.5 -11t-28.5 11t-11.5 27v297l-243 -299q-14 -17 -26.5 -26.5t-30.5 -9.5t-29 12t-11 28v384q0 16 11.5 27t28.5 11t28.5 -11t11.5 -27v-298l243 299q13 15 25 26t32 11q18 0 29 -12.5t11 -28.5v-383v0z" />
    <glyph glyph-name="afii10075" unicode="&#x439;" 
d="M492 31q0 -16 -11.5 -27t-28.5 -11t-28.5 11t-11.5 27v297l-243 -299q-14 -17 -26.5 -26.5t-30.5 -9.5t-29 12t-11 28v384q0 16 11.5 27t28.5 11t28.5 -11t11.5 -27v-298l243 299q13 15 25 26t32 11q18 0 29 -12.5t11 -28.5v-383v0zM355 648q10 32 39 32q16 0 26.5 -9
t10.5 -26q0 -3 -0.5 -6t-1.5 -7q-4 -18 -16 -34.5t-30 -29t-42 -20.5t-53 -8q-32 0 -57.5 8t-44 20.5t-29.5 29t-15 34.5q-1 4 -1 12q0 17 10 26.5t27 9.5q29 0 39 -32q15 -47 71 -47q52 0 67 47z" />
    <glyph glyph-name="afii10076" unicode="&#x43a;" horiz-adv-x="482" 
d="M196 201q-10 13 -10 30t10 28l151 175q8 10 16.5 15.5t20.5 5.5q20 0 30 -11.5t10 -25.5q0 -6 -2.5 -13t-7.5 -12l-145 -158l160 -174q12 -14 12 -30q0 -14 -10 -26t-30 -12q-22 0 -39 20zM152 31q0 -16 -11.5 -27t-28.5 -11t-28.5 11t-11.5 27v386q0 16 11.5 27t28.5 11
t28.5 -11t11.5 -27v-386z" />
    <glyph glyph-name="afii10077" unicode="&#x43b;" horiz-adv-x="525" 
d="M453 31q0 -16 -11.5 -27t-28.5 -11t-28.5 11t-11.5 27v339h-158l-5 -76q-6 -84 -20.5 -142t-35.5 -93t-45.5 -50.5t-49.5 -15.5q-17 0 -28.5 10t-11.5 27q0 16 7.5 25t24.5 16q16 6 29 20t23.5 41t17.5 70t11 108l6 102q1 16 12.5 27t27.5 11h237q16 0 27 -11t11 -27
v-381z" />
    <glyph glyph-name="afii10078" unicode="&#x43c;" horiz-adv-x="625" 
d="M152 31q0 -16 -11.5 -27t-28.5 -11t-28.5 11t-11.5 27v386q0 16 11 27t28 11q16 0 27.5 -9.5t27.5 -29.5l152 -189l145 191q13 17 24.5 27t26.5 10q17 0 28 -11t11 -27v-386q0 -16 -11.5 -27t-28.5 -11t-28.5 11t-11.5 27v290l-127 -161q-12 -16 -31 -16t-31 15l-132 162
v-290z" />
    <glyph glyph-name="afii10079" unicode="&#x43d;" horiz-adv-x="554" 
d="M482 31q0 -16 -11.5 -27t-28.5 -11t-28.5 11t-11.5 27v159h-250v-159q0 -16 -11.5 -27t-28.5 -11t-28.5 11t-11.5 27v386q0 16 11.5 27t28.5 11t28.5 -11t11.5 -27v-152h250v152q0 16 11.5 27t28.5 11t28.5 -11t11.5 -27v-386z" />
    <glyph glyph-name="afii10080" unicode="&#x43e;" 
d="M42 225q0 51 17 94t48.5 74.5t76 49t98.5 17.5t98 -17.5t75.5 -49t49 -74.5t17.5 -94t-17.5 -94t-49 -74.5t-75.5 -49t-98 -17.5t-98.5 17.5t-76 49t-48.5 74.5t-17 94zM127 225q0 -35 11.5 -64.5t32 -50.5t49 -33t62.5 -12t62.5 11.5t49 32.5t32 50.5t11.5 65.5
q0 35 -11.5 64.5t-32 50.5t-49 33t-62.5 12q-33 0 -61.5 -11.5t-49 -32.5t-32.5 -50.5t-12 -65.5z" />
    <glyph glyph-name="afii10081" unicode="&#x43f;" horiz-adv-x="549" 
d="M477 31q0 -16 -11.5 -27t-28.5 -11t-28.5 11t-11.5 27v344h-245v-344q0 -16 -11.5 -27t-28.5 -11t-28.5 11t-11.5 27v381q0 16 11 27t27 11h329q16 0 27 -11t11 -27v-381z" />
    <glyph glyph-name="afii10082" unicode="&#x440;" horiz-adv-x="556" 
d="M152 -162q0 -16 -11.5 -27t-28.5 -11t-28.5 11t-11.5 27v579q0 16 11.5 27t28.5 11t28.5 -11t11.5 -27v-20q23 27 64.5 45t88.5 18q48 0 86.5 -17t65.5 -47t41.5 -72t14.5 -92q0 -51 -16.5 -95.5t-47.5 -77t-74 -51t-96 -18.5q-36 0 -69.5 7.5t-57.5 23.5v-183zM152 100
q30 -20 59 -27.5t61 -7.5q36 0 65 12.5t49 34t31 51.5t11 66q0 34 -9.5 62.5t-28.5 49.5t-46 32.5t-62 11.5q-40 0 -74.5 -18t-55.5 -44v-223z" />
    <glyph glyph-name="afii10083" unicode="&#x441;" horiz-adv-x="477" 
d="M380 359q-24 13 -48 19.5t-51 6.5q-30 0 -58 -11.5t-49.5 -32.5t-34 -50.5t-12.5 -65.5q0 -37 13 -66.5t35 -50.5t51.5 -32t62.5 -11q27 0 50.5 7t45.5 24q16 13 31 13q13 0 23 -10q11 -10 11 -25q0 -17 -11 -26q-38 -34 -76 -46t-80 -12q-54 0 -98 16.5t-76 47.5
t-49.5 74.5t-17.5 96.5q0 49 17 92t47.5 74.5t72 50t91.5 18.5q45 0 79 -8t67 -27q21 -11 21 -34q0 -11 -5 -18q-11 -18 -33 -18q-11 0 -19 4z" />
    <glyph glyph-name="afii10084" unicode="&#x442;" horiz-adv-x="440" 
d="M260 31q0 -16 -11.5 -27t-28.5 -11t-28.5 11t-11.5 27v339h-127q-16 0 -27 11.5t-11 28.5t11 28.5t27 11.5h334q16 0 27 -11.5t11 -28.5t-11 -28.5t-27 -11.5h-127v-339v0z" />
    <glyph glyph-name="afii10085" unicode="&#x443;" horiz-adv-x="479" 
d="M229 164q8 -17 14 -34t13 -34q9 33 21 69l95 259q4 12 13.5 21.5t25.5 9.5q22 0 33 -11.5t11 -27.5q0 -5 -1 -9.5t-3 -9.5l-159 -397q-24 -61 -45 -99.5t-41.5 -61t-41 -31t-44.5 -8.5q-14 0 -28 2t-25.5 7t-19 14.5t-7.5 23.5q0 32 32 32q8 0 17 -2.5t22 -2.5
q29 0 51 24t45 78l10 24l-189 394q-4 8 -4 19q0 17 12 29.5t32 12.5q12 0 22.5 -7t15.5 -18l123 -266v0z" />
    <glyph glyph-name="afii10086" unicode="&#x444;" horiz-adv-x="674" 
d="M377 -162q0 -16 -11.5 -27t-28.5 -11t-28.5 11t-11.5 27v152h-11q-58 0 -103.5 18t-76.5 49.5t-47.5 74.5t-16.5 93q0 46 16 88.5t47 75t76.5 52t103.5 19.5h12v202q0 16 11.5 27t28.5 11t28.5 -11t11.5 -27v-202h13q56 0 101 -18t76.5 -50t48 -75t16.5 -92
q0 -50 -15.5 -93t-46 -74.5t-76 -49.5t-104.5 -18h-13v-152zM297 65v320h-13q-39 0 -68 -13t-49 -34.5t-30 -50.5t-10 -62q0 -70 40.5 -115t121.5 -45h8zM377 65h8q82 0 122 44.5t40 115.5q0 31 -10 60t-30 51t-49.5 35.5t-67.5 13.5h-13v-320z" />
    <glyph glyph-name="afii10087" unicode="&#x445;" horiz-adv-x="473" 
d="M239 280l111 153q9 12 17.5 17t18.5 5q19 0 28.5 -10.5t9.5 -24.5q0 -12 -7 -22l-122 -165l130 -177q8 -11 8 -25t-10 -26t-30 -12t-36 22l-121 167l-123 -167q-8 -11 -16.5 -16.5t-20.5 -5.5q-18 0 -27 10.5t-9 24.5q0 13 8 24l131 177l-119 165q-7 10 -7 23q0 14 10 26
t30 12q13 0 20.5 -6t15.5 -16z" />
    <glyph glyph-name="afii10088" unicode="&#x446;" horiz-adv-x="562" 
d="M547 -72q0 -16 -11 -27t-26 -11q-16 0 -27 11t-11 27v72h-362q-16 0 -27 11t-11 27v379q0 16 11.5 27t28.5 11t28.5 -11t11.5 -27v-342h240v342q0 16 11.5 27t28.5 11t28.5 -11t11.5 -27v-342h37q16 0 27 -11t11 -27v-109v0z" />
    <glyph glyph-name="afii10089" unicode="&#x447;" horiz-adv-x="482" 
d="M330 417q0 16 11.5 27t28.5 11t28.5 -11t11.5 -27v-386q0 -16 -11.5 -27t-28.5 -11t-28.5 11t-11.5 27v144q-23 -14 -55 -23.5t-70 -9.5q-160 0 -160 172v103q0 16 11.5 27t31.5 11q19 0 30.5 -11t11.5 -27v-94q0 -54 25.5 -80t71.5 -26q34 0 61 8.5t42 19.5v172z" />
    </font>
</defs>
</svg>
